<svg width="8" height="15" viewBox="0 0 8 15" fill="none" xmlns="http://www.w3.org/2000/svg">
<path d="M6.50019 0.569822C6.73385 0.569366 6.96028 0.650741 7.14019 0.799822C7.24145 0.883771 7.32515 0.986873 7.38651 1.10322C7.44786 1.21957 7.48565 1.34687 7.49773 1.47785C7.50981 1.60883 7.49592 1.7409 7.45688 1.8665C7.41783 1.99211 7.3544 2.10877 7.27019 2.20982L2.79019 7.56982L7.11019 12.9398C7.19326 13.0421 7.25529 13.1598 7.29272 13.2861C7.33015 13.4125 7.34225 13.545 7.32831 13.676C7.31437 13.807 7.27467 13.934 7.2115 14.0497C7.14832 14.1653 7.06292 14.2673 6.96019 14.3498C6.85673 14.4409 6.73556 14.5095 6.6043 14.5515C6.47304 14.5935 6.33451 14.6079 6.19742 14.5938C6.06033 14.5797 5.92762 14.5375 5.80764 14.4697C5.68766 14.4019 5.58299 14.31 5.50019 14.1998L0.670193 8.19982C0.523111 8.02089 0.442706 7.79645 0.442706 7.56482C0.442706 7.3332 0.523111 7.10876 0.670193 6.92982L5.67019 0.929823C5.77051 0.808805 5.89794 0.713141 6.04215 0.650593C6.18636 0.588044 6.34329 0.560371 6.50019 0.569822Z" fill="white"/>
</svg>
