<svg width="8" height="15" viewBox="0 0 8 15" fill="none" xmlns="http://www.w3.org/2000/svg">
<path d="M1.49981 14.5698C1.26615 14.5703 1.03972 14.4889 0.859807 14.3398C0.758548 14.2559 0.674846 14.1528 0.613494 14.0364C0.552142 13.9201 0.514346 13.7928 0.50227 13.6618C0.490194 13.5308 0.504076 13.3987 0.543121 13.2731C0.582165 13.1475 0.645605 13.0309 0.729806 12.9298L5.20981 7.56983L0.889807 2.19983C0.806741 2.09754 0.74471 1.97984 0.707278 1.8535C0.669846 1.72716 0.657752 1.59467 0.671691 1.46364C0.685631 1.33261 0.725328 1.20563 0.788501 1.09C0.851675 0.97436 0.93708 0.872348 1.03981 0.789826C1.14327 0.698789 1.26444 0.630122 1.3957 0.588133C1.52696 0.546144 1.66549 0.53174 1.80258 0.545825C1.93967 0.55991 2.07238 0.602179 2.19236 0.669981C2.31234 0.737783 2.41701 0.829653 2.49981 0.939826L7.32981 6.93983C7.47689 7.11876 7.55729 7.3432 7.55729 7.57483C7.55729 7.80645 7.47689 8.03089 7.32981 8.20983L2.32981 14.2098C2.22949 14.3308 2.10206 14.4265 1.95785 14.4891C1.81364 14.5516 1.65671 14.5793 1.49981 14.5698Z" fill="white"/>
</svg>
