<svg width="88" height="12" viewBox="0 0 88 12" fill="none" xmlns="http://www.w3.org/2000/svg">
<g clip-path="url(#clip0_1503_152)">
<path d="M6.06897 8.23461C6.06897 7.8484 6.23448 7.79323 6.62069 8.01392C7.28276 8.40013 7.94483 8.73116 7.94483 8.73116C7.94483 8.51047 8.16552 8.34495 8.55172 8.4553C8.93793 8.56564 9.32414 8.62082 9.32414 8.62082C9.32414 8.62082 9.10345 8.12426 8.9931 7.90357C8.82759 7.51737 8.9931 7.29668 9.15862 7.24151C9.15862 7.24151 8.93793 7.07599 8.77241 6.96564C8.44138 6.74495 8.49655 6.46909 8.82759 6.35875C9.26897 6.13806 9.87586 5.91737 9.87586 5.91737C9.71034 5.80702 9.48966 5.53116 9.71035 5.14495C9.93104 4.81392 10.3172 4.31737 10.3172 4.31737C10.3172 4.31737 9.71034 4.31737 9.26896 4.31737C8.88276 4.31737 8.77241 3.98633 8.77241 3.76564C8.77241 3.76564 8.16552 4.20702 7.72414 4.48288C7.33793 4.75875 7.0069 4.48288 7.06207 4.04151C7.17241 3.37944 7.22759 2.60702 7.22759 2.60702C7.0069 2.82771 6.62069 2.77254 6.4 2.44151C6.12414 1.88978 5.84828 1.22771 5.84828 1.22771C5.84828 1.22771 5.57241 1.88978 5.29655 2.44151C5.13103 2.77254 4.74483 2.82771 4.52414 2.6622C4.52414 2.6622 4.57931 3.43461 4.68966 4.09668C4.74483 4.48288 4.41379 4.75875 4.02759 4.48288C3.58621 4.20702 2.92414 3.76564 2.92414 3.76564C2.92414 3.98633 2.81379 4.2622 2.42759 4.31737C1.98621 4.31737 1.37931 4.31737 1.37931 4.31737C1.37931 4.31737 1.76552 4.81392 1.98621 5.14495C2.2069 5.47599 1.98621 5.80702 1.82069 5.91737C1.82069 5.91737 2.37241 6.19323 2.86897 6.35875C3.2 6.52426 3.31034 6.74495 2.92414 6.96564C2.81379 7.07599 2.53793 7.24151 2.53793 7.24151C2.75862 7.29668 2.92414 7.51737 2.75862 7.90357C2.64828 8.12426 2.42759 8.62082 2.42759 8.62082C2.42759 8.62082 2.81379 8.51047 3.2 8.4553C3.58621 8.34495 3.75172 8.56564 3.8069 8.73116C3.8069 8.73116 4.46897 8.34495 5.13103 8.01392C5.46207 7.79323 5.68276 7.90357 5.68276 8.23461V9.17254C5.68276 9.72426 5.57241 10.276 5.4069 10.607C2.92414 10.3312 0.827586 8.34495 0.827586 5.69668C0.827586 2.99323 3.08966 0.786333 5.90345 0.786333C8.71724 0.786333 10.9793 2.99323 10.9793 5.69668C10.9793 8.23461 8.9931 10.3312 6.45517 10.607V11.2691C9.43448 10.9932 11.7517 8.62082 11.7517 5.69668C11.7517 2.55185 9.10345 0.0690918 5.84828 0.0690918C2.64828 0.0690918 0 2.55185 0 5.64151C0 8.34495 2.04138 10.607 4.74483 11.1036C5.18621 11.2139 5.46207 11.2691 5.73793 11.545C6.01379 10.9932 6.06897 9.88978 6.06897 9.28289V8.23461Z" fill="#F01428"/>
<path d="M29.7378 8.62073V2.66211H32.6619C34.2068 2.66211 34.924 3.32418 34.9792 4.15176C34.9792 4.53797 34.924 4.92418 34.6481 5.20004C34.3723 5.4759 34.2619 5.58625 33.7654 5.86211L35.9723 8.6759H34.3723L32.3861 6.13797H31.0619V8.62073H29.7378ZM31.0619 5.36556H31.6688C33.2688 5.36556 33.5999 5.0897 33.5999 4.31728C33.5999 3.54487 32.8826 3.43452 31.8343 3.43452H31.0619V5.36556Z" fill="#2E2A25"/>
<path d="M16.6621 8.62073L19.2552 2.66211H20.8552L23.4483 8.62073H21.8483L21.1311 7.02073H18.3725L17.6552 8.62073H16.6621ZM18.7035 6.24832H20.7449L19.6966 3.8759L18.7035 6.24832Z" fill="#2E2A25"/>
<path d="M26.6484 2.66211H25.269V8.62073H26.6484V2.66211Z" fill="#2E2A25"/>
<path d="M45.9034 8.39979C45.2414 8.67565 44.4138 8.78599 43.4207 8.78599C42.262 8.78599 41.3241 8.51013 40.662 7.95841C40 7.40668 39.6689 6.63427 39.6689 5.64117C39.6689 4.64806 40 3.82048 40.662 3.32392C41.3241 2.7722 42.2621 2.49634 43.531 2.49634C44.3034 2.49634 45.0758 2.55151 45.9034 2.71703V3.71013C45.0207 3.43427 44.1931 3.32392 43.5862 3.32392C42.8138 3.32392 42.2621 3.54461 41.8207 3.93082C41.4345 4.31703 41.2138 4.92392 41.2138 5.64117C41.2138 6.35841 41.4345 6.91013 41.8758 7.35151C42.3172 7.73772 42.9241 7.95841 43.6965 7.95841C44.4138 7.95841 45.1862 7.79289 45.9034 7.51703V8.39979Z" fill="#2E2A25"/>
<path d="M47.6138 8.62073L50.2069 2.66211H51.8069L54.4 8.62073H52.8L52.0827 7.02073H49.3241L48.6069 8.62073H47.6138ZM49.7103 6.24832H51.7517L50.7586 3.8759L49.7103 6.24832Z" fill="#2E2A25"/>
<path d="M64.8828 8.62073L67.4759 2.66211H69.0759L71.669 8.62073H70.069L69.3518 7.02073H66.5932L65.8759 8.62073H64.8828ZM66.9242 6.24832H68.9656L67.9173 3.8759L66.9242 6.24832Z" fill="#2E2A25"/>
<path d="M84.3035 3.8759L85.3518 6.24832H83.3104L84.3035 3.8759ZM83.8621 2.66211L81.269 8.62073H82.2621L82.9794 7.02073H85.738L86.4553 8.62073H88.0553L85.4621 2.66211H83.8621Z" fill="#2E2A25"/>
<path d="M56.3862 8.62073V2.66211H57.9862L61.738 6.91039V2.66211H62.8966V8.62073H61.4069L57.5449 4.15176V8.62073H56.3862Z" fill="#2E2A25"/>
<path d="M73.6001 8.62097V2.66235H76.4691C77.5173 2.66235 78.2898 2.93822 78.8415 3.37959C79.3932 3.87615 79.6691 4.59339 79.6691 5.47615C79.6691 6.46925 79.3932 7.24166 78.7863 7.73822C78.1794 8.28994 77.407 8.5658 76.3587 8.5658H73.6001V8.62097ZM74.9794 7.79339H76.0277C76.7449 7.79339 77.2967 7.62787 77.6829 7.24166C78.0691 6.85546 78.2346 6.35891 78.2346 5.58649C78.2346 5.03477 78.0691 4.53822 77.7932 4.15201C77.5725 3.87615 77.3518 3.71063 77.076 3.60028C76.8001 3.48994 76.4139 3.43477 75.8622 3.43477H75.0346V7.79339H74.9794Z" fill="#2E2A25"/>
</g>
<defs>
<clipPath id="clip0_1503_152">
<rect width="88" height="11.4759" fill="white" transform="translate(0 0.0688477)"/>
</clipPath>
</defs>
</svg>
