<svg width="110" height="27" viewBox="0 0 110 27" fill="none" xmlns="http://www.w3.org/2000/svg">
<path fill-rule="evenodd" clip-rule="evenodd" d="M51.441 17.8562V11.587C51.441 10.4867 51.4822 10.549 52.0018 9.94718H49.8217C50.3407 10.549 50.3819 10.4874 50.3819 11.587V18.6032C49.8423 18.977 48.7837 19.6412 47.0604 19.6412C45.1919 19.6412 44.2579 18.6238 44.2579 16.9421V11.5864C44.2579 10.4861 44.299 10.5484 44.818 9.94655H42.9495H37.9053C38.0716 9.69796 39.3788 7.70482 39.3788 7.70482C39.8149 7.06121 40.3545 6.21075 40.562 5.35904C40.6448 5.04752 40.6866 4.71544 40.6866 4.36217C40.6866 3.15844 40.1676 2.03757 39.2542 1.20704C38.4237 0.438825 37.2405 0.0861816 35.6629 0.0861816C35.2474 0.0861816 34.5832 0.127926 34.1271 0.190231C33.795 0.252536 33.7533 0.397706 33.7533 0.501755C33.7533 0.522316 33.7533 0.688667 34.0019 0.688667L34.5832 0.626363L35.0399 0.605182L35.7458 0.564059C36.1608 0.564059 36.4928 0.605179 37.0324 0.688667C35.9533 2.09987 35.3302 2.84753 32.1957 6.14782C31.3651 7.02009 30.5558 7.74657 29.7047 8.51416C29.7047 8.51416 28.1888 9.90481 28.1477 9.94655H22.8337C22.7714 9.48986 22.6886 9.03316 21.7334 8.28613C20.301 7.14408 17.3951 6.4176 14.1565 6.4176C8.73912 6.4176 4.6083 8.45186 2.55286 10.3615C1.82639 11.0051 0.498047 12.2088 0.498047 14.4718C0.498047 16.278 1.47374 17.7104 3.40457 18.7272C4.06874 19.0798 5.45939 19.8063 8.34473 19.8063C12.6213 19.8063 16.6269 18.1465 19.2848 16.9004C22.3777 15.4269 25.2219 13.7453 29.1035 10.4238H35.1234C34.9365 10.7141 27.858 21.82 27.858 21.82C27.4219 22.5054 26.9446 23.2729 26.9446 24.1247C26.9446 25.2038 27.9415 26.3664 29.5602 26.3664C29.5602 26.3664 29.5396 26.3253 29.5396 26.263H29.5602L29.5191 26.1583C29.5396 26.1583 29.5396 26.1789 29.5602 26.1789L29.5191 26.1377L29.4979 26.0966C29.4773 25.9726 29.4567 25.868 29.4567 25.868C29.2493 25.8268 28.6057 25.6611 28.5851 25.1838V25.1427C28.5851 24.6231 28.8549 24.1458 29.187 23.5851C30.3913 21.5714 36.1203 12.625 37.5938 10.4244H42.8249C42.9701 10.4244 43.0947 10.549 43.1364 10.6531V10.6737C43.1987 10.8606 43.1987 11.1303 43.1987 11.587V16.7559C43.1987 18.9976 44.423 20.0773 46.9763 20.0773C48.8448 20.0773 49.6541 19.5178 50.3806 19.1222V19.8705H52.3943C51.8772 19.5172 51.441 19.4125 51.441 17.8562V17.8562ZM18.083 16.4443C17.0244 16.8182 14.5752 17.6487 10.5684 17.6487C7.28866 17.6487 5.7734 17.1502 4.96344 16.8599H4.90114C4.36157 16.6524 2.92918 16.154 2.0781 15.116C1.60084 14.5552 1.33044 13.9328 1.33044 13.3515C1.33044 12.106 2.49305 10.736 4.44444 9.6774C6.81078 8.41136 10.5678 7.62258 14.2631 7.62258C18.4144 7.62258 20.7808 8.43192 21.445 8.8475C21.6524 8.97211 22.0886 9.32475 22.2132 9.65684C22.2132 9.65684 22.2337 9.78144 22.2543 9.86431H13.6188C12.0002 9.86431 10.2562 9.96836 9.15594 10.1135C8.88616 10.1547 8.01451 10.2587 7.47495 10.7565C7.35034 10.8606 6.99707 11.255 6.99707 11.7322C6.99707 12.0226 7.12168 13.04 8.96965 13.6624C10.4637 14.202 12.6643 14.2437 13.3079 14.2437C15.7783 14.2437 17.9995 13.8288 19.9091 13.0188C22.0886 12.126 22.5453 10.9846 22.7945 10.3409H27.5483C22.2761 15.0119 19.8475 15.8425 18.083 16.4443V16.4443ZM22.2138 10.321C22.1515 10.5285 21.9851 10.7777 21.1758 11.2755C20.6979 11.587 19.8475 12.0232 18.3322 12.4587C15.779 13.2263 13.9316 13.2892 12.4157 13.2892C11.6893 13.2892 9.48865 13.2892 8.13974 12.521C7.74535 12.293 7.57962 12.0437 7.57962 11.7322C7.57962 11.0886 8.55532 10.7976 11.2126 10.5902C13.1223 10.445 14.7204 10.4238 16.4226 10.4033H17.1285C17.1279 10.4039 21.9646 10.321 22.2138 10.321V10.321ZM37.2012 6.79205C37.2012 6.79205 35.4162 9.78144 35.3539 9.86431H29.5832C29.8324 9.63627 30.4138 9.09672 30.4138 9.09672C31.41 8.20389 32.3446 7.33224 34.0673 5.36029C35.6654 3.49177 36.5788 2.22573 37.5751 0.77278C38.5925 1.12543 39.1321 1.72791 39.1321 2.53726C39.1315 3.55407 38.5296 4.67493 37.2012 6.79205V6.79205ZM60.4298 9.94718H58.5195C59.3712 10.4251 59.3712 10.8606 59.3712 11.587V18.2088C59.3712 18.9764 59.3712 19.3708 58.5195 19.8699H61.198C63.9164 19.8699 68.3593 19.3708 68.3593 15.1989C68.3593 12.5422 66.512 9.94718 60.4298 9.94718ZM61.945 19.4337C60.4298 19.4337 60.4298 18.8742 60.4298 17.4618V10.3833C63.4185 10.3833 67.1761 11.1933 67.1761 15.3029C67.1768 18.0848 64.9132 19.4337 61.945 19.4337V19.4337ZM76.4552 17.8144V11.587C76.4552 10.4867 76.5175 10.549 77.0359 9.94718H74.8565C75.3555 10.549 75.4172 10.4874 75.4172 11.587V18.2088C75.4172 18.9764 75.4172 19.3708 74.5449 19.8699H81.3331L82.1642 17.8973C81.687 18.2711 81.0228 19.4331 78.2826 19.4331C76.5792 19.4337 76.4552 18.9359 76.4552 17.8144ZM89.4283 17.8144V14.5764H92.3137C93.186 14.5764 93.2277 14.6593 93.7043 15.0119V13.6836C93.2271 14.0574 93.0607 14.1403 92.3754 14.1403H89.4283V10.3827H91.318C93.2271 10.3827 93.2894 10.6113 93.809 11.3173V9.94718H87.5193C88.3698 10.4251 88.3698 10.8606 88.3698 11.587V18.2088C88.3698 18.9764 88.3698 19.3708 87.5193 19.8699H94.2863L95.1162 17.8973C94.6389 18.2711 93.9747 19.4331 91.2551 19.4331C89.5542 19.4337 89.4283 18.9359 89.4283 17.8144V17.8144ZM108.256 9.94718C108.339 10.0512 108.464 10.0923 108.464 10.3628C108.464 10.6332 108.256 10.8194 108.029 11.0892L105.454 14.0163L103.088 11.1522C102.859 10.8817 102.735 10.6332 102.735 10.3216C102.735 10.1765 102.859 10.0724 102.942 9.9478H100.534C101.198 10.3634 101.262 10.3839 101.821 11.0687L104.603 14.5559V18.4798C104.603 19.3097 104.395 19.4132 104.021 19.8705H106.243C105.911 19.4337 105.724 19.268 105.724 18.4587V14.4518L108.692 11.0475C109.108 10.5702 109.585 10.2587 110 9.94718H108.256V9.94718Z" fill="black"/>
</svg>
