<svg width="100" height="45" viewBox="0 0 100 45" fill="none" xmlns="http://www.w3.org/2000/svg">
<g clip-path="url(#clip0_1503_347)">
<path d="M14.0028 15.4775L10.2521 9.84402L12.971 8.77455L9.26549 6.94441L5.56755 5.11426L5.82362 9.23397L6.09475 13.3612L8.17343 11.2223L11.9392 16.8558L14.0028 15.4775ZM8.25628 4.98623C8.19098 4.98728 8.12645 4.97198 8.06858 4.94172C8.0107 4.91147 7.96131 4.86722 7.92489 4.81301C7.89569 4.77031 7.87541 4.72216 7.86527 4.67143C7.85513 4.62071 7.85535 4.56846 7.8659 4.51782C7.87645 4.46717 7.89712 4.41919 7.92667 4.37673C7.95622 4.33427 7.99404 4.29822 8.03786 4.27074L10.2295 2.76445C10.2725 2.73626 10.3207 2.71683 10.3712 2.70725C10.4218 2.69767 10.4737 2.69814 10.524 2.70863C10.5744 2.71912 10.6222 2.73943 10.6647 2.76839C10.7072 2.79735 10.7436 2.8344 10.7718 2.87742C10.8 2.92045 10.8194 2.9686 10.829 3.01914C10.8386 3.06967 10.8381 3.1216 10.8276 3.17195C10.8171 3.22231 10.7968 3.2701 10.7678 3.31261C10.7389 3.35511 10.7018 3.3915 10.6588 3.41969L8.46716 4.92598C8.40371 4.96499 8.33076 4.98584 8.25628 4.98623V4.98623ZM1.81688 9.10594C1.75032 9.10826 1.68427 9.09358 1.62497 9.06326C1.56566 9.03295 1.51507 8.98802 1.47797 8.93271C1.44893 8.89061 1.42877 8.84305 1.41873 8.7929C1.40868 8.74276 1.40894 8.6911 1.41952 8.64106C1.43009 8.59103 1.45074 8.54367 1.48021 8.50188C1.50968 8.46009 1.54736 8.42473 1.59094 8.39798L3.77506 6.89169C3.81776 6.86248 3.86591 6.8422 3.91664 6.83207C3.96736 6.82193 4.01961 6.82214 4.07025 6.83269C4.12089 6.84324 4.16888 6.86391 4.21134 6.89346C4.25379 6.92301 4.28984 6.96084 4.31733 7.00466C4.3467 7.0463 4.36732 7.09346 4.37794 7.1433C4.38855 7.19313 4.38894 7.24461 4.37908 7.2946C4.36923 7.34459 4.34933 7.39206 4.32059 7.43414C4.29185 7.47622 4.25487 7.51202 4.21189 7.53939L2.02023 9.04568C1.95678 9.0847 1.88384 9.10554 1.80935 9.10594H1.81688ZM6.96087 3.72095C6.91695 3.77137 6.85991 3.80862 6.79609 3.82856C6.73227 3.84851 6.66417 3.85036 6.59936 3.83392C6.4989 3.81219 6.41102 3.75184 6.35466 3.66589C6.2983 3.57995 6.27799 3.47529 6.2981 3.3745L6.78764 0.783678C6.80601 0.682008 6.86381 0.591715 6.94845 0.532467C7.03309 0.473219 7.13771 0.449816 7.23953 0.467357C7.28965 0.476393 7.33748 0.495307 7.38023 0.522999C7.42297 0.550692 7.45978 0.586609 7.48852 0.62866C7.51726 0.670712 7.53734 0.718059 7.54761 0.767946C7.55787 0.817833 7.55812 0.869263 7.54832 0.919244L7.05878 3.52513C7.04503 3.59825 7.01111 3.66607 6.96087 3.72095V3.72095ZM4.96503 3.57032C4.96751 3.63585 4.95284 3.7009 4.92246 3.75903C4.89207 3.81715 4.84704 3.86633 4.79181 3.9017C4.75017 3.93108 4.70301 3.95169 4.65317 3.96231C4.60333 3.97293 4.55186 3.97332 4.50187 3.96346C4.45187 3.9536 4.4044 3.9337 4.36233 3.90496C4.32025 3.87622 4.28444 3.83924 4.25707 3.79626L2.75078 1.60461C2.72223 1.56099 2.70286 1.51203 2.69384 1.46069C2.68483 1.40934 2.68635 1.35671 2.69833 1.30597C2.71031 1.25524 2.73249 1.20748 2.76352 1.1656C2.79455 1.12371 2.83378 1.08858 2.87882 1.06234C2.92091 1.03331 2.96848 1.01315 3.01863 1.0031C3.06877 0.99305 3.12043 0.993319 3.17047 1.00389C3.2205 1.01446 3.26786 1.03511 3.30965 1.06458C3.35144 1.09406 3.3868 1.13173 3.41355 1.17531L4.91984 3.36697C4.95454 3.42953 4.97511 3.49894 4.98009 3.57032H4.96503ZM3.98594 4.98623C4.03504 5.03098 4.07085 5.0884 4.08945 5.15217C4.10805 5.21595 4.10872 5.28361 4.09138 5.34774C4.07139 5.4476 4.01255 5.53544 3.92781 5.59193C3.84307 5.64843 3.73937 5.66895 3.63949 5.649L1.04114 5.15945C0.940395 5.13932 0.851291 5.08111 0.792373 4.99694C0.733455 4.91277 0.70926 4.80912 0.724822 4.70757C0.74485 4.60572 0.804486 4.516 0.890629 4.4581C0.976772 4.4002 1.08238 4.37886 1.18424 4.39878L3.77506 4.88832C3.85351 4.89931 3.92692 4.93339 3.98594 4.98623" fill="#FF5326"/>
<path d="M95.9224 14.2649C95.9224 17.1194 85.5742 17.1194 85.5742 14.2649C85.5742 12.8927 86.1193 11.5766 87.0897 10.6063C88.06 9.63595 89.3761 9.09082 90.7483 9.09082C92.1206 9.09082 93.4366 9.63595 94.407 10.6063C95.3773 11.5766 95.9224 12.8927 95.9224 14.2649" fill="#50D9AF"/>
<path d="M99.0553 16.8706C98.6803 16.8607 98.3133 16.7604 97.9854 16.5781C97.6576 16.3958 97.3787 16.137 97.1724 15.8237C96.7657 15.3567 96.5021 15.0705 95.9599 15.0705C95.4176 15.0705 95.154 15.3341 94.7473 15.8237C94.5412 16.1344 94.2614 16.3893 93.9329 16.5656C93.6043 16.7419 93.2373 16.8342 92.8644 16.8342C92.4916 16.8342 92.1245 16.7419 91.796 16.5656C91.4675 16.3893 91.1877 16.1344 90.9816 15.8237C90.5749 15.3567 90.3263 15.0705 89.769 15.0705C89.2117 15.0705 88.9707 15.3341 88.5564 15.8237C88.3579 16.1444 88.0808 16.4092 87.7513 16.5928C87.4217 16.7764 87.0508 16.8727 86.6736 16.8727C86.2964 16.8727 85.9254 16.7764 85.5959 16.5928C85.2664 16.4092 84.9892 16.1444 84.7907 15.8237C84.384 15.3567 84.1279 15.0705 83.5781 15.0705C83.5198 15.0705 83.462 15.0591 83.4081 15.0367C83.3542 15.0144 83.3052 14.9817 83.2639 14.9404C83.2227 14.8991 83.1899 14.8502 83.1676 14.7962C83.1453 14.7423 83.1338 14.6845 83.1338 14.6262C83.1338 14.5678 83.1453 14.5101 83.1676 14.4561C83.1899 14.4022 83.2227 14.3532 83.2639 14.312C83.3052 14.2707 83.3542 14.238 83.4081 14.2157C83.462 14.1933 83.5198 14.1818 83.5781 14.1818C83.9526 14.1942 84.3187 14.2955 84.6462 14.4776C84.9736 14.6597 85.2529 14.9171 85.461 15.2287C85.8677 15.6957 86.1238 15.9819 86.6736 15.9819C87.2234 15.9819 87.4794 15.7183 87.8861 15.2287C88.0922 14.918 88.372 14.6631 88.7006 14.4868C89.0291 14.3105 89.3962 14.2182 89.769 14.2182C90.1419 14.2182 90.5089 14.3105 90.8374 14.4868C91.166 14.6631 91.4458 14.918 91.6519 15.2287C92.0586 15.6957 92.3071 15.9819 92.8644 15.9819C93.4218 15.9819 93.6628 15.7183 94.077 15.2287C94.2851 14.9171 94.5644 14.6597 94.8918 14.4776C95.2193 14.2955 95.5854 14.1942 95.9599 14.1818C96.3347 14.1923 96.7015 14.2929 97.0292 14.4751C97.357 14.6573 97.636 14.9158 97.8427 15.2287C98.2494 15.6957 98.513 15.9819 99.0553 15.9819C99.1139 15.9808 99.1722 15.9916 99.2265 16.0136C99.2809 16.0356 99.3303 16.0683 99.3718 16.1097C99.4132 16.1512 99.4459 16.2006 99.4679 16.255C99.4899 16.3093 99.5007 16.3676 99.4996 16.4262C99.5017 16.4851 99.4917 16.5439 99.4701 16.5987C99.4485 16.6536 99.4159 16.7034 99.3742 16.7451C99.3325 16.7868 99.2827 16.8194 99.2278 16.841C99.1729 16.8626 99.1142 16.8727 99.0553 16.8706V16.8706ZM93.2335 2.44783C93.1818 2.41655 93.1246 2.39576 93.0649 2.38663C93.0052 2.3775 92.9444 2.38022 92.8858 2.39463C92.8271 2.40904 92.7719 2.43485 92.7233 2.4706C92.6747 2.50635 92.6336 2.55133 92.6023 2.60298L92.6008 2.60599C92.3674 2.98256 90.4092 6.26628 90.4092 7.87801C90.4092 9.27886 90.3489 11.5157 90.3489 11.8471C90.3489 11.9709 90.3981 12.0897 90.4857 12.1773C90.5733 12.2648 90.692 12.314 90.8159 12.314C90.9397 12.314 91.0585 12.2648 91.1461 12.1773C91.2336 12.0897 91.2828 11.9709 91.2828 11.8471V11.7868C91.2828 11.2747 91.3431 9.19601 91.3431 7.86294C91.3431 6.71063 92.8494 4.00684 93.3916 3.07294C93.4508 2.96522 93.4667 2.83896 93.4359 2.71996C93.4051 2.60096 93.33 2.49823 93.2259 2.43276" fill="#50D9AF"/>
<path d="M93.5949 1.61169C93.2451 1.26101 92.8295 0.982773 92.372 0.792931C91.9145 0.60309 91.4241 0.505371 90.9287 0.505371C90.4334 0.505371 89.9429 0.60309 89.4854 0.792931C89.028 0.982773 88.6124 1.26101 88.2626 1.61169C88.1249 1.7497 88.0013 1.90108 87.8936 2.06358V2.17655C88.736 2.05326 89.5962 2.16534 90.3789 2.50041C89.6322 3.16751 89.1755 4.09985 89.1061 5.09876C89.087 5.29662 89.087 5.49588 89.1061 5.69374C89.1061 5.69374 89.1061 5.76153 89.1588 5.78412C89.5572 5.31539 90.0445 4.93028 90.5927 4.65105C91.1408 4.37182 91.7388 4.20401 92.3522 4.15733C92.9963 5.09184 93.2652 6.23452 93.1053 7.35819C93.2891 7.23431 93.4606 7.09308 93.6175 6.93643C94.24 6.31668 94.6263 5.49878 94.7095 4.62428C95.4423 4.9883 96.0639 5.5423 96.5095 6.22848C96.6348 5.73336 96.6581 5.21794 96.5779 4.71355C96.4977 4.20917 96.3157 3.72637 96.0431 3.29451C95.7705 2.86265 95.4128 2.49077 94.9919 2.20147C94.5711 1.91218 94.0957 1.71152 93.5949 1.61169V1.61169Z" fill="#50D9AF"/>
<path d="M63.0022 5.29484C62.8285 5.28265 62.6569 5.33854 62.5237 5.45069C62.3904 5.56283 62.3061 5.72243 62.2885 5.89568C62.2708 6.06893 62.3213 6.24223 62.4293 6.3789C62.5372 6.51557 62.6941 6.60488 62.8667 6.62791C62.9561 6.64052 63.0472 6.63472 63.1343 6.61086C63.2214 6.587 63.3027 6.54559 63.3733 6.48917C63.4438 6.43274 63.502 6.3625 63.5444 6.28275C63.5868 6.20299 63.6125 6.11541 63.6198 6.02539C63.6281 5.93671 63.6186 5.84728 63.5919 5.76231C63.5652 5.67735 63.5218 5.59856 63.4643 5.53054C63.4068 5.46253 63.3363 5.40665 63.257 5.36618C63.1777 5.32571 63.0911 5.30146 63.0022 5.29484V5.29484ZM65.4274 7.56181C65.4025 7.5242 65.3702 7.49206 65.3325 7.46737C65.2948 7.44267 65.2524 7.42593 65.208 7.41818C65.1636 7.41042 65.118 7.41181 65.0742 7.42226C65.0303 7.43271 64.989 7.45201 64.9529 7.47896L63.8232 8.29236C63.7853 8.31795 63.753 8.35092 63.7283 8.3893C63.7035 8.42769 63.6867 8.47068 63.679 8.5157C63.6713 8.56073 63.6727 8.60685 63.6832 8.6513C63.6938 8.69575 63.7132 8.73761 63.7403 8.77437C63.7672 8.81475 63.8028 8.84857 63.8445 8.87334C63.8863 8.89811 63.933 8.91319 63.9813 8.91747C64.0673 8.92571 64.1533 8.90153 64.2223 8.84968L65.3521 8.04382C65.3893 8.01765 65.4209 7.98423 65.445 7.94557C65.469 7.90691 65.4851 7.8638 65.4921 7.81881C65.4991 7.77382 65.497 7.72788 65.4859 7.68372C65.4748 7.63956 65.4549 7.5981 65.4274 7.56181V7.56181ZM62.6935 9.09822L61.5713 9.91162C61.5334 9.93721 61.5011 9.97019 61.4764 10.0086C61.4516 10.0469 61.4348 10.0899 61.4271 10.135C61.4194 10.18 61.4208 10.2261 61.4313 10.2706C61.4419 10.315 61.4613 10.3569 61.4884 10.3936C61.5415 10.4684 61.622 10.5191 61.7123 10.5346C61.8027 10.5502 61.8955 10.5293 61.9704 10.4765L63.0926 9.66308C63.1616 9.60791 63.2069 9.52849 63.2192 9.44105C63.2316 9.3536 63.2101 9.26474 63.1591 9.19262C63.1082 9.1205 63.0316 9.07056 62.945 9.05301C62.8585 9.03547 62.7685 9.05164 62.6935 9.09822V9.09822ZM58.7846 10.0999C58.6958 10.0873 58.6053 10.0928 58.5186 10.1162C58.432 10.1396 58.351 10.1804 58.2806 10.236C58.2101 10.2917 58.1518 10.361 58.1089 10.4399C58.0661 10.5188 58.0398 10.6055 58.0315 10.6949C58.0199 10.7836 58.0263 10.8737 58.0501 10.9599C58.0739 11.0461 58.1148 11.1267 58.1702 11.1969C58.2257 11.2671 58.2946 11.3255 58.373 11.3686C58.4513 11.4117 58.5375 11.4387 58.6265 11.448C58.8032 11.467 58.9803 11.415 59.1187 11.3034C59.2572 11.1918 59.3456 11.0298 59.3646 10.8531C59.3835 10.6763 59.3315 10.4992 59.2199 10.3608C59.1083 10.2224 58.9463 10.1339 58.7696 10.115L58.7846 10.0999V10.0999ZM66.0148 9.65555C65.8837 9.64184 65.7514 9.66711 65.6346 9.72819C65.5177 9.78928 65.4215 9.88347 65.3579 9.99898C65.2943 10.1145 65.2662 10.2462 65.2771 10.3776C65.288 10.509 65.3374 10.6343 65.4191 10.7377C65.5009 10.8412 65.6113 10.9183 65.7366 10.9593C65.8619 11.0003 65.9966 11.0034 66.1237 10.9683C66.2507 10.9332 66.3647 10.8614 66.4511 10.7618C66.5376 10.6623 66.5928 10.5394 66.6098 10.4087C66.6224 10.3198 66.6169 10.2293 66.5935 10.1427C66.5701 10.0561 66.5293 9.97506 66.4737 9.90464C66.4181 9.83421 66.3487 9.77582 66.2698 9.73301C66.1909 9.69019 66.1042 9.66384 66.0148 9.65555V9.65555ZM69.4567 4.2329L68.3345 5.0463C68.2967 5.07189 68.2644 5.10487 68.2396 5.14325C68.2148 5.18163 68.1981 5.22462 68.1903 5.26965C68.1826 5.31467 68.184 5.36079 68.1946 5.40524C68.2051 5.4497 68.2245 5.49156 68.2517 5.52831C68.3044 5.61116 68.3948 5.66539 68.4927 5.67141C68.5773 5.67646 68.6614 5.65543 68.7337 5.61116L69.8559 4.79776C69.896 4.77285 69.9306 4.73999 69.9576 4.70121C69.9845 4.66243 70.0033 4.61855 70.0127 4.57226C70.0221 4.52596 70.0219 4.47824 70.0121 4.43202C70.0024 4.38581 69.9833 4.34206 69.9561 4.30349C69.9288 4.26492 69.8939 4.23233 69.8536 4.20772C69.8133 4.18311 69.7684 4.167 69.7216 4.16039C69.6748 4.15378 69.6272 4.1568 69.5817 4.16927C69.5361 4.18174 69.4936 4.2034 69.4567 4.2329V4.2329ZM67.2048 5.8597L66.0751 6.66556C66.0183 6.70661 65.9754 6.76388 65.9519 6.82984C65.9283 6.89579 65.9253 6.96733 65.9433 7.03501C65.9612 7.1027 65.9992 7.16336 66.0524 7.209C66.1055 7.25464 66.1712 7.28312 66.2408 7.29067C66.3215 7.30576 66.405 7.28961 66.4742 7.24548L67.604 6.43962C67.6729 6.38445 67.7182 6.30503 67.7306 6.21758C67.7429 6.13014 67.7214 6.04128 67.6705 5.96915C67.6195 5.89703 67.5429 5.8471 67.4564 5.82955C67.3698 5.81201 67.2798 5.82818 67.2048 5.87476V5.8597Z" fill="#FF9D6E"/>
<path d="M65.4274 7.56181C65.4025 7.5242 65.3702 7.49206 65.3325 7.46737C65.2948 7.44267 65.2524 7.42593 65.208 7.41818C65.1636 7.41042 65.118 7.41181 65.0742 7.42226C65.0303 7.43271 64.989 7.45201 64.9529 7.47896L63.8232 8.29236C63.7853 8.31795 63.753 8.35092 63.7283 8.3893C63.7035 8.42769 63.6867 8.47068 63.679 8.5157C63.6713 8.56073 63.6727 8.60685 63.6832 8.6513C63.6938 8.69575 63.7132 8.73761 63.7403 8.77437C63.7672 8.81475 63.8028 8.84857 63.8445 8.87334C63.8863 8.89811 63.933 8.91319 63.9813 8.91747C64.0673 8.92571 64.1533 8.90153 64.2223 8.84968L65.3521 8.04382C65.3893 8.01765 65.4209 7.98423 65.445 7.94557C65.469 7.90691 65.4851 7.8638 65.4921 7.81881C65.4991 7.77382 65.497 7.72788 65.4859 7.68372C65.4748 7.63956 65.4549 7.5981 65.4274 7.56181V7.56181ZM63.0022 5.29484C62.8285 5.28265 62.6569 5.33854 62.5237 5.45069C62.3904 5.56283 62.3061 5.72243 62.2885 5.89568C62.2708 6.06893 62.3213 6.24223 62.4293 6.3789C62.5372 6.51557 62.6941 6.60488 62.8667 6.62791C62.9561 6.64052 63.0472 6.63472 63.1343 6.61086C63.2214 6.587 63.3027 6.54559 63.3733 6.48917C63.4438 6.43274 63.502 6.3625 63.5444 6.28275C63.5868 6.20299 63.6125 6.11541 63.6198 6.02539C63.6281 5.93671 63.6186 5.84728 63.5919 5.76231C63.5652 5.67735 63.5218 5.59856 63.4643 5.53054C63.4068 5.46253 63.3363 5.40665 63.257 5.36618C63.1777 5.32571 63.0911 5.30146 63.0022 5.29484V5.29484ZM58.7846 10.0999C58.6958 10.0873 58.6053 10.0928 58.5186 10.1162C58.432 10.1396 58.351 10.1804 58.2806 10.236C58.2101 10.2917 58.1518 10.361 58.1089 10.4399C58.0661 10.5188 58.0398 10.6055 58.0315 10.6949C58.0199 10.7836 58.0263 10.8737 58.0501 10.9599C58.0739 11.0461 58.1148 11.1267 58.1702 11.1969C58.2257 11.2671 58.2946 11.3255 58.373 11.3686C58.4513 11.4117 58.5375 11.4387 58.6265 11.448C58.8032 11.467 58.9803 11.415 59.1187 11.3034C59.2572 11.1918 59.3456 11.0298 59.3646 10.8531C59.3835 10.6763 59.3315 10.4992 59.2199 10.3608C59.1083 10.2224 58.9463 10.1339 58.7696 10.115L58.7846 10.0999ZM62.6935 9.09822L61.5713 9.91162C61.5334 9.93721 61.5011 9.97019 61.4764 10.0086C61.4516 10.0469 61.4348 10.0899 61.4271 10.135C61.4194 10.18 61.4208 10.2261 61.4313 10.2706C61.4419 10.315 61.4613 10.3569 61.4884 10.3936C61.5415 10.4684 61.622 10.5191 61.7123 10.5346C61.8027 10.5502 61.8955 10.5293 61.9704 10.4765L63.0926 9.66308C63.1616 9.60791 63.2069 9.52849 63.2192 9.44105C63.2316 9.3536 63.2101 9.26474 63.1591 9.19262C63.1082 9.1205 63.0316 9.07056 62.945 9.05301C62.8585 9.03547 62.7685 9.05164 62.6935 9.09822V9.09822ZM67.2048 5.8597L66.0751 6.66556C66.0183 6.70661 65.9754 6.76388 65.9519 6.82984C65.9283 6.89579 65.9253 6.96733 65.9433 7.03501C65.9612 7.1027 65.9992 7.16336 66.0524 7.209C66.1055 7.25464 66.1712 7.28312 66.2408 7.29067C66.3215 7.30576 66.405 7.28961 66.4742 7.24548L67.604 6.43962C67.6729 6.38445 67.7182 6.30503 67.7306 6.21758C67.7429 6.13014 67.7214 6.04128 67.6705 5.96915C67.6195 5.89703 67.5429 5.8471 67.4564 5.82955C67.3698 5.81201 67.2798 5.82818 67.2048 5.87476V5.8597V5.8597ZM69.4567 4.2329L68.3345 5.0463C68.2967 5.07189 68.2644 5.10487 68.2396 5.14325C68.2148 5.18163 68.1981 5.22462 68.1903 5.26965C68.1826 5.31467 68.184 5.36079 68.1946 5.40524C68.2051 5.4497 68.2245 5.49156 68.2517 5.52831C68.3044 5.61116 68.3948 5.66539 68.4927 5.67141C68.5773 5.67646 68.6614 5.65543 68.7337 5.61116L69.8559 4.79776C69.896 4.77285 69.9306 4.73999 69.9576 4.70121C69.9845 4.66243 70.0033 4.61855 70.0127 4.57226C70.0221 4.52596 70.0219 4.47824 70.0121 4.43202C70.0024 4.38581 69.9833 4.34206 69.9561 4.30349C69.9288 4.26492 69.8939 4.23233 69.8536 4.20772C69.8133 4.18311 69.7684 4.167 69.7216 4.16039C69.6748 4.15378 69.6272 4.1568 69.5817 4.16927C69.5361 4.18174 69.4936 4.2034 69.4567 4.2329V4.2329ZM66.0148 9.65555C65.8837 9.64184 65.7514 9.66711 65.6346 9.72819C65.5177 9.78928 65.4215 9.88347 65.3579 9.99898C65.2943 10.1145 65.2662 10.2462 65.2771 10.3776C65.288 10.509 65.3374 10.6343 65.4191 10.7377C65.5009 10.8412 65.6113 10.9183 65.7366 10.9593C65.8619 11.0003 65.9966 11.0034 66.1237 10.9683C66.2507 10.9332 66.3647 10.8614 66.4511 10.7618C66.5376 10.6623 66.5928 10.5394 66.6098 10.4087C66.6224 10.3198 66.6169 10.2293 66.5935 10.1427C66.5701 10.0561 66.5293 9.97506 66.4737 9.90464C66.4181 9.83421 66.3487 9.77582 66.2698 9.73301C66.1909 9.69019 66.1042 9.66384 66.0148 9.65555V9.65555Z" fill="#FF9D6E"/>
<path d="M65.4274 7.56181C65.4025 7.5242 65.3702 7.49206 65.3325 7.46737C65.2948 7.44267 65.2524 7.42593 65.208 7.41818C65.1636 7.41042 65.118 7.41181 65.0742 7.42226C65.0303 7.43271 64.989 7.45201 64.9529 7.47896L63.8232 8.29236C63.7853 8.31795 63.753 8.35092 63.7283 8.3893C63.7035 8.42769 63.6867 8.47068 63.679 8.5157C63.6713 8.56073 63.6727 8.60685 63.6832 8.6513C63.6938 8.69575 63.7132 8.73761 63.7403 8.77437C63.7672 8.81475 63.8028 8.84857 63.8445 8.87334C63.8863 8.89811 63.933 8.91319 63.9813 8.91747C64.0673 8.92571 64.1533 8.90153 64.2223 8.84968L65.3521 8.04382C65.3893 8.01765 65.4209 7.98423 65.445 7.94557C65.469 7.90691 65.4851 7.8638 65.4921 7.81881C65.4991 7.77382 65.497 7.72788 65.4859 7.68372C65.4748 7.63956 65.4549 7.5981 65.4274 7.56181V7.56181ZM63.0022 5.29484C62.8285 5.28265 62.6569 5.33854 62.5237 5.45069C62.3904 5.56283 62.3061 5.72243 62.2885 5.89568C62.2708 6.06893 62.3213 6.24223 62.4293 6.3789C62.5372 6.51557 62.6941 6.60488 62.8667 6.62791C62.9561 6.64052 63.0472 6.63472 63.1343 6.61086C63.2214 6.587 63.3027 6.54559 63.3733 6.48917C63.4438 6.43274 63.502 6.3625 63.5444 6.28275C63.5868 6.20299 63.6125 6.11541 63.6198 6.02539C63.6281 5.93671 63.6186 5.84728 63.5919 5.76231C63.5652 5.67735 63.5218 5.59856 63.4643 5.53054C63.4068 5.46253 63.3363 5.40665 63.257 5.36618C63.1777 5.32571 63.0911 5.30146 63.0022 5.29484V5.29484ZM58.7846 10.0999C58.6958 10.0873 58.6053 10.0928 58.5186 10.1162C58.432 10.1396 58.351 10.1804 58.2806 10.236C58.2101 10.2917 58.1518 10.361 58.1089 10.4399C58.0661 10.5188 58.0398 10.6055 58.0315 10.6949C58.0199 10.7836 58.0263 10.8737 58.0501 10.9599C58.0739 11.0461 58.1148 11.1267 58.1702 11.1969C58.2257 11.2671 58.2946 11.3255 58.373 11.3686C58.4513 11.4117 58.5375 11.4387 58.6265 11.448C58.8032 11.467 58.9803 11.415 59.1187 11.3034C59.2572 11.1918 59.3456 11.0298 59.3646 10.8531C59.3835 10.6763 59.3315 10.4992 59.2199 10.3608C59.1083 10.2224 58.9463 10.1339 58.7696 10.115L58.7846 10.0999ZM62.6935 9.09822L61.5713 9.91162C61.5334 9.93721 61.5011 9.97019 61.4764 10.0086C61.4516 10.0469 61.4348 10.0899 61.4271 10.135C61.4194 10.18 61.4208 10.2261 61.4313 10.2706C61.4419 10.315 61.4613 10.3569 61.4884 10.3936C61.5415 10.4684 61.622 10.5191 61.7123 10.5346C61.8027 10.5502 61.8955 10.5293 61.9704 10.4765L63.0926 9.66308C63.1616 9.60791 63.2069 9.52849 63.2192 9.44105C63.2316 9.3536 63.2101 9.26474 63.1591 9.19262C63.1082 9.1205 63.0316 9.07056 62.945 9.05301C62.8585 9.03547 62.7685 9.05164 62.6935 9.09822V9.09822ZM67.2048 5.8597L66.0751 6.66556C66.0183 6.70661 65.9754 6.76388 65.9519 6.82984C65.9283 6.89579 65.9253 6.96733 65.9433 7.03501C65.9612 7.1027 65.9992 7.16336 66.0524 7.209C66.1055 7.25464 66.1712 7.28312 66.2408 7.29067C66.3215 7.30576 66.405 7.28961 66.4742 7.24548L67.604 6.43962C67.6729 6.38445 67.7182 6.30503 67.7306 6.21758C67.7429 6.13014 67.7214 6.04128 67.6705 5.96915C67.6195 5.89703 67.5429 5.8471 67.4564 5.82955C67.3698 5.81201 67.2798 5.82818 67.2048 5.87476V5.8597V5.8597ZM66.0148 9.65555C65.8837 9.64184 65.7514 9.66711 65.6346 9.72819C65.5177 9.78928 65.4215 9.88347 65.3579 9.99898C65.2943 10.1145 65.2662 10.2462 65.2771 10.3776C65.288 10.509 65.3374 10.6343 65.4191 10.7377C65.5009 10.8412 65.6113 10.9183 65.7366 10.9593C65.8619 11.0003 65.9966 11.0034 66.1237 10.9683C66.2507 10.9332 66.3647 10.8614 66.4511 10.7618C66.5376 10.6623 66.5928 10.5394 66.6098 10.4087C66.6224 10.3198 66.6169 10.2293 66.5935 10.1427C66.5701 10.0561 66.5293 9.97506 66.4737 9.90464C66.4181 9.83421 66.3487 9.77582 66.2698 9.73301C66.1909 9.69019 66.1042 9.66384 66.0148 9.65555V9.65555ZM69.4567 4.2329L68.3345 5.0463C68.2967 5.07189 68.2644 5.10487 68.2396 5.14325C68.2148 5.18163 68.1981 5.22462 68.1903 5.26965C68.1826 5.31467 68.184 5.36079 68.1946 5.40524C68.2051 5.4497 68.2245 5.49156 68.2517 5.52831C68.3044 5.61116 68.3948 5.66539 68.4927 5.67141C68.5773 5.67646 68.6614 5.65543 68.7337 5.61116L69.8559 4.79776C69.896 4.77285 69.9306 4.73999 69.9576 4.70121C69.9845 4.66243 70.0033 4.61855 70.0127 4.57226C70.0221 4.52596 70.0219 4.47824 70.0121 4.43202C70.0024 4.38581 69.9833 4.34206 69.9561 4.30349C69.9288 4.26492 69.8939 4.23233 69.8536 4.20772C69.8133 4.18311 69.7684 4.167 69.7216 4.16039C69.6748 4.15378 69.6272 4.1568 69.5817 4.16927C69.5361 4.18174 69.4936 4.2034 69.4567 4.2329V4.2329Z" fill="white"/>
<path d="M71.7993 2.62889C71.4755 2.16947 69.5399 3.12597 68.7867 3.61551L65.4955 5.99545L57.8812 0.633057L56.9548 1.29582L62.9122 7.85572L60.0427 9.94193C59.4327 10.3712 56.8946 9.03063 56.8946 9.03063L56.5029 9.31682L58.0092 11.4106L57.2561 11.9679L57.5197 12.3445H58.7624L60.2235 14.3328L60.7657 13.9411L60.2235 12.3746L64.1022 9.55783L67.9884 16.6374L68.9148 15.9671L66.6478 7.78794L69.9616 5.37787L70.037 5.31009C70.7675 4.74523 72.1232 3.06572 71.7993 2.62889V2.62889ZM58.6419 11.4332C58.553 11.4257 58.4666 11.4005 58.3876 11.3592C58.3086 11.3179 58.2386 11.2613 58.1817 11.1926C58.1249 11.1239 58.0823 11.0445 58.0565 10.9592C58.0307 10.8739 58.0222 10.7842 58.0315 10.6956C58.0408 10.6069 58.0676 10.5209 58.1105 10.4428C58.1534 10.3646 58.2115 10.2958 58.2813 10.2403C58.3511 10.1849 58.4313 10.1439 58.5171 10.1198C58.6029 10.0958 58.6927 10.089 58.7812 10.1001C58.9553 10.1218 59.1139 10.211 59.223 10.3483C59.3322 10.4857 59.3831 10.6604 59.3648 10.8349C59.3466 11.0094 59.2607 11.1698 59.1255 11.2816C58.9903 11.3935 58.8167 11.4479 58.6419 11.4332V11.4332ZM63.093 9.66327L61.9708 10.4767C61.8958 10.5294 61.803 10.5503 61.7126 10.5348C61.6223 10.5193 61.5418 10.4686 61.4888 10.3938C61.4616 10.3571 61.4422 10.3152 61.4317 10.2708C61.4211 10.2263 61.4197 10.1802 61.4274 10.1352C61.4352 10.0901 61.4519 10.0471 61.4767 10.0088C61.5015 9.97037 61.5338 9.9374 61.5716 9.91181L62.6938 9.09841C62.7688 9.05183 62.8588 9.03566 62.9454 9.0532C63.0319 9.07075 63.1085 9.12068 63.1595 9.19281C63.2104 9.26493 63.2319 9.35379 63.2196 9.44123C63.2072 9.52868 63.1619 9.6081 63.093 9.66327V9.66327ZM62.867 6.65069C62.6944 6.62766 62.5375 6.53836 62.4296 6.40169C62.3217 6.26502 62.2712 6.09171 62.2888 5.91846C62.3064 5.74521 62.3908 5.58562 62.524 5.47347C62.6572 5.36132 62.8289 5.30543 63.0026 5.31762C63.0922 5.32598 63.1792 5.35231 63.2584 5.39504C63.3377 5.43776 63.4075 5.496 63.4637 5.56629C63.5199 5.63658 63.5614 5.71747 63.5857 5.80414C63.61 5.89082 63.6166 5.98149 63.6051 6.07077C63.579 6.24153 63.4872 6.39535 63.3493 6.49945C63.2115 6.60355 63.0384 6.64971 62.867 6.62809V6.65069ZM63.9817 8.91012C63.9333 8.90585 63.8866 8.89077 63.8449 8.866C63.8032 8.84123 63.7675 8.80741 63.7407 8.76703C63.7135 8.73027 63.6941 8.68841 63.6836 8.64396C63.673 8.59951 63.6716 8.55338 63.6793 8.50836C63.6871 8.46334 63.7038 8.42034 63.7286 8.38196C63.7534 8.34358 63.7857 8.3106 63.8235 8.28501L64.9532 7.47162C64.9894 7.44466 65.0306 7.42537 65.0745 7.41492C65.1184 7.40447 65.1639 7.40308 65.2083 7.41083C65.2527 7.41859 65.2951 7.43533 65.3328 7.46002C65.3705 7.48472 65.4028 7.51686 65.4277 7.55446C65.4552 7.59076 65.4751 7.63222 65.4862 7.67638C65.4974 7.72053 65.4995 7.76648 65.4924 7.81147C65.4854 7.85646 65.4694 7.89957 65.4453 7.93823C65.4213 7.97689 65.3896 8.0103 65.3524 8.03648L64.2227 8.84234C64.1566 8.89508 64.0736 8.92187 63.9892 8.91766L63.9817 8.91012ZM65.8796 11.0114C65.7491 10.9946 65.6265 10.9397 65.5269 10.8537C65.4274 10.7676 65.3554 10.6542 65.3199 10.5275C65.2844 10.4008 65.287 10.2665 65.3273 10.1412C65.3676 10.016 65.4439 9.90538 65.5466 9.82319C65.6493 9.741 65.774 9.69086 65.905 9.67903C66.0361 9.66719 66.1677 9.69418 66.2835 9.75662C66.3993 9.81907 66.4942 9.91421 66.5563 10.0302C66.6184 10.1462 66.645 10.2779 66.6327 10.4089C66.6254 10.4989 66.5998 10.5865 66.5574 10.6662C66.515 10.746 66.4567 10.8162 66.3862 10.8727C66.3157 10.9291 66.2343 10.9705 66.1472 10.9944C66.0601 11.0182 65.969 11.024 65.8796 11.0114ZM67.6043 6.42474L66.4746 7.24567C66.3996 7.29226 66.3096 7.30843 66.223 7.29088C66.1365 7.27334 66.0599 7.2234 66.0089 7.15128C65.9579 7.07916 65.9364 6.99029 65.9488 6.90285C65.9612 6.81541 66.0064 6.73598 66.0754 6.68081L67.2051 5.87495C67.2802 5.82837 67.3701 5.8122 67.4567 5.82974C67.5432 5.84729 67.6198 5.89722 67.6708 5.96934C67.7218 6.04147 67.7433 6.13033 67.7309 6.21777C67.7185 6.30522 67.6733 6.38464 67.6043 6.43981V6.42474V6.42474ZM69.8637 4.79795L68.734 5.61135C68.6617 5.65562 68.5776 5.67665 68.493 5.6716C68.4444 5.66845 68.3972 5.65384 68.3553 5.62897C68.3134 5.6041 68.278 5.56967 68.252 5.5285C68.2249 5.49175 68.2055 5.44988 68.1949 5.40543C68.1844 5.36098 68.1829 5.31486 68.1907 5.26983C68.1984 5.22481 68.2152 5.18182 68.2399 5.14344C68.2647 5.10505 68.297 5.07208 68.3348 5.04649L69.457 4.23309C69.4928 4.19855 69.5357 4.17212 69.5826 4.15561C69.6295 4.1391 69.6795 4.13289 69.729 4.1374C69.7786 4.14192 69.8266 4.15706 69.8697 4.18178C69.9129 4.20651 69.9503 4.24024 69.9792 4.28069C70.0082 4.32114 70.0281 4.36736 70.0376 4.41619C70.0471 4.46503 70.046 4.51534 70.0344 4.56371C70.0227 4.61207 70.0007 4.65736 69.97 4.69648C69.9392 4.7356 69.9004 4.76764 69.8562 4.79042L69.8637 4.79795Z" fill="#FFBC00"/>
<path d="M7.17153 21.1185H0.724609V44.1044H7.17153C12.5641 44.1044 14.9892 40.2032 14.9892 37.4316V27.9118C14.9892 23.6565 12.067 21.1185 7.17153 21.1185V21.1185ZM3.3079 23.4381H7.17153C8.74561 23.4381 12.4436 23.8825 12.4436 27.957V37.3713C12.4436 38.8174 11.1632 41.7998 7.20919 41.7998H3.3079V23.4381ZM28.8471 20.6289C25.2847 20.6289 21.6771 23.0616 21.6771 27.7235V37.2358C21.6771 42.2969 25.2771 44.5639 28.8471 44.5639C32.417 44.5639 36.017 42.3044 36.017 37.2358V27.7235C36.017 23.0616 32.4094 20.6289 28.8471 20.6289V20.6289ZM24.2604 27.5277C24.2604 26.3113 24.7436 25.1446 25.6038 24.2845C26.464 23.4243 27.6306 22.9411 28.8471 22.9411C30.0635 22.9411 31.2301 23.4243 32.0903 24.2845C32.9505 25.1446 33.4337 26.3113 33.4337 27.5277V37.4316C33.4337 40.3086 31.5508 42.3195 28.8471 42.3195C26.1433 42.3195 24.2604 40.3086 24.2604 37.4316V27.5277V27.5277ZM55.064 30.8642H45.2807V21.1185H42.6974V44.1044H45.2807V33.1838H55.064V44.1044H57.6473V21.1185H55.064V30.8642ZM71.5203 20.6289C67.9504 20.6289 64.3428 23.0616 64.3428 27.7235V37.2358C64.3428 42.2969 67.9504 44.5639 71.5203 44.5639C75.0902 44.5639 78.6902 42.3044 78.6902 37.2358V27.7235C78.6827 23.0616 75.0751 20.6289 71.5203 20.6289V20.6289ZM66.9261 27.5277C66.901 26.9103 67.001 26.2941 67.2201 25.7162C67.4391 25.1384 67.7726 24.6108 68.2007 24.165C68.6287 23.7193 69.1424 23.3646 69.7109 23.1224C70.2794 22.8801 70.891 22.7552 71.509 22.7552C72.1269 22.7552 72.7385 22.8801 73.307 23.1224C73.8755 23.3646 74.3892 23.7193 74.8173 24.165C75.2453 24.6108 75.5788 25.1384 75.7979 25.7162C76.0169 26.2941 76.1169 26.9103 76.0919 27.5277V37.4316C76.0919 40.3086 74.209 42.3195 71.5127 42.3195C68.8165 42.3195 66.9261 40.3086 66.9261 37.4316V27.5277ZM92.8267 21.1185H85.3857V44.1044H87.9765V34.4341H93.015C96.1029 34.4341 99.4243 32.2876 99.4243 27.5654C99.4243 23.1143 96.1105 21.1185 92.8267 21.1185ZM93.015 32.1144H87.9765V23.4381H92.6083C94.1975 23.4381 96.8937 24.3269 96.8937 27.6482C96.8787 29.7043 95.8619 32.0993 93.015 32.0993V32.1144V32.1144Z" fill="#00005E"/>
<path d="M30.8654 2.24463L43.5483 7.60702L39.8353 16.3209L27.1523 10.9585L30.8654 2.24463Z" fill="#00D2FF"/>
<path d="M31.2722 8.75203C31.1954 8.72097 31.1294 8.66798 31.0826 8.59967C31.0357 8.53136 31.01 8.45076 31.0086 8.36792L30.9258 6.14615C30.923 6.0857 30.9323 6.0253 30.953 5.96843C30.9736 5.91156 31.0053 5.85934 31.0463 5.81476C31.1261 5.72442 31.2356 5.66564 31.3551 5.64907L34.8647 5.40806C34.9241 5.40502 34.9834 5.41372 35.0394 5.43366C35.0954 5.4536 35.1469 5.48439 35.191 5.52427C35.2351 5.56415 35.2709 5.61233 35.2963 5.66605C35.3217 5.71978 35.3363 5.77799 35.3392 5.83736L35.422 8.04407C35.4231 8.16681 35.3773 8.28532 35.294 8.37546C35.2572 8.42096 35.2115 8.45846 35.1597 8.48566C35.1079 8.51286 35.0511 8.52918 34.9927 8.53362L31.4756 8.75956C31.4098 8.78313 31.3379 8.78313 31.2722 8.75956V8.75203ZM31.8446 6.55284L31.8898 7.84072L34.5183 7.65997L34.4731 6.37209L31.8446 6.55284ZM37.1467 13.3462C36.9017 13.2363 36.6807 13.0791 36.4965 12.8836C36.3123 12.6881 36.1685 12.4582 36.0733 12.207C35.9781 11.9558 35.9335 11.6883 35.9419 11.4198C35.9504 11.1513 36.0117 10.8871 36.1225 10.6424C36.3282 10.1405 36.7233 9.73974 37.2223 9.52691C37.7212 9.31407 38.2839 9.30627 38.7886 9.50517C39.0341 9.61353 39.2556 9.76956 39.4403 9.96423C39.625 10.1589 39.7692 10.3883 39.8644 10.6392C39.9597 10.89 40.0043 11.1573 39.9954 11.4255C39.9865 11.6937 39.9245 11.9574 39.8129 12.2014C39.61 12.7061 39.2161 13.1103 38.7169 13.3261C38.2176 13.5418 37.6533 13.5518 37.1467 13.3537V13.3462ZM38.4196 10.3412C38.2117 10.245 37.98 10.2129 37.7538 10.2491C37.5277 10.2852 37.3175 10.3879 37.15 10.544C36.9824 10.7002 36.8653 10.9027 36.8133 11.1257C36.7614 11.3488 36.7771 11.5822 36.8585 11.7963C36.9398 12.0103 37.0831 12.1953 37.27 12.3276C37.457 12.4599 37.6791 12.5334 37.908 12.5389C38.1369 12.5444 38.3623 12.4816 38.5554 12.3584C38.7484 12.2353 38.9004 12.0574 38.9919 11.8475C39.0534 11.7113 39.0875 11.5644 39.0922 11.4151C39.0969 11.2658 39.0722 11.117 39.0194 10.9773C38.9666 10.8375 38.8868 10.7096 38.7845 10.6007C38.6822 10.4918 38.5595 10.4041 38.4233 10.3427L38.4196 10.3412" fill="white"/>
<path d="M34.8419 3.93167L35.6478 2.03374L40.37 4.03711L39.5641 5.93504L40.3851 6.28901L41.3943 3.95426C41.4204 3.90066 41.4353 3.84228 41.4379 3.78271C41.4406 3.72315 41.4311 3.66367 41.4099 3.60793C41.3888 3.55219 41.3564 3.50137 41.3149 3.45861C41.2733 3.41585 41.2235 3.38204 41.1683 3.35928L35.6026 1.00946C35.4907 0.964469 35.3655 0.965314 35.2542 1.01182C35.1429 1.05832 35.0543 1.14675 35.0076 1.258L34.021 3.58522L34.8419 3.93167V3.93167Z" fill="#00D2FF"/>
</g>
<defs>
<clipPath id="clip0_1503_347">
<rect width="98.775" height="44.0967" fill="white" transform="translate(0.724609 0.467285)"/>
</clipPath>
</defs>
</svg>
