<svg width="121" height="27" viewBox="0 0 121 27" fill="none" xmlns="http://www.w3.org/2000/svg">
<path d="M66.7743 17.1515H62.8379V10.9382H66.7743V12.0516H64.2471V13.4679H66.4905V14.5936H64.2471V15.981H66.7743V17.1515Z" fill="#333031"/>
<path d="M62.8379 26.1084V19.8933H66.7746V21.0085H64.2468V22.4237H66.4905V23.5491H64.2468V26.1084H62.8379Z" fill="#333031"/>
<path d="M70.7363 12.085C70.5189 12.085 70.2767 12.0793 70.1496 12.0871V15.9829C70.3159 15.9868 70.5605 15.9783 70.7278 15.9783C71.3181 15.9783 72.7562 15.7294 72.7562 13.9827C72.7562 12.4874 71.3096 12.085 70.7359 12.085H70.7363ZM69.1418 17.1171H68.9766V10.9532H69.1167C69.3677 10.9532 69.6459 10.9508 69.9519 10.9444C70.0691 10.9444 70.1987 10.9437 70.3409 10.9402C70.4828 10.9373 70.5926 10.9352 70.671 10.931C70.749 10.9285 70.8069 10.9268 70.8461 10.9268C71.9436 10.9268 74.1294 11.7969 74.1294 13.9824C74.1294 16.5516 71.849 17.1344 70.779 17.1344C70.5619 17.1344 70.3198 17.1323 70.0525 17.1256C69.7849 17.1196 69.4817 17.1167 69.1418 17.1167V17.1171Z" fill="#333031"/>
<path d="M79.4876 10.9551H80.7839V14.5738C80.7839 15.4605 80.5618 16.1235 80.1195 16.5644C79.6825 17.0039 79.1318 17.2245 78.4674 17.2245C77.7113 17.2245 77.1119 16.9929 76.6699 16.5294C76.2216 16.0596 75.9971 15.3882 75.9971 14.5123V10.9554H77.2933V14.213C77.2933 15.3405 77.6844 15.9971 78.4674 15.9971C78.8293 15.9971 79.0898 15.7715 79.2493 15.5075C79.4089 15.2445 79.488 14.8385 79.488 14.2935V10.9558L79.4876 10.9551Z" fill="#333031"/>
<path d="M93.9557 14.5902L93.1522 12.5003L92.3396 14.5902H93.9557V14.5902ZM91.4172 17.1301H90.1167L92.5623 10.9658H93.8215L96.2668 17.1301H94.8777L94.4838 15.7071H91.8111L91.4172 17.1301Z" fill="#333031"/>
<path d="M98.7257 12.2585H96.7598V10.9382H101.866V12.2585H99.9008V17.1007H98.7257V12.2585Z" fill="#333031"/>
<path d="M104.93 17.1007H103.788V10.9382H104.93V17.1007Z" fill="#333031"/>
<path d="M108.391 14.0192C108.391 14.5417 108.563 14.985 108.91 15.3497C109.25 15.7066 109.67 15.8856 110.169 15.8856C110.732 15.8856 111.169 15.7126 111.481 15.3673C111.792 15.0087 111.947 14.5593 111.947 14.0192C111.947 13.4615 111.777 13.0131 111.437 12.6721C111.09 12.3255 110.668 12.1525 110.169 12.1525C109.652 12.1525 109.227 12.3255 108.892 12.6721C108.557 13.0184 108.39 13.4678 108.39 14.0192H108.391ZM106.894 14.0192C106.894 13.1095 107.196 12.353 107.8 11.7476C108.411 11.138 109.2 10.8315 110.169 10.8315C111.132 10.8315 111.915 11.1221 112.52 11.7038C113.137 12.2852 113.445 13.0573 113.445 14.0192C113.445 14.9476 113.134 15.7105 112.511 16.3095C111.895 16.9072 111.114 17.2065 110.169 17.2065C109.212 17.2065 108.426 16.916 107.809 16.3356C107.199 15.7542 106.894 14.9822 106.894 14.0192V14.0192Z" fill="#333031"/>
<path d="M120.666 10.9658V17.1301H119.539L116.616 13.4319V17.1301H115.295V10.9658H116.422L119.345 14.6819V10.9658H120.666Z" fill="#333031"/>
<path d="M85.3366 21.2376H83.3711V19.917H88.4777V21.2376H86.5122V26.0809H85.3366V21.2376Z" fill="#333031"/>
<path d="M70.1185 26.0812H68.9766V19.917H70.1185V26.0812Z" fill="#333031"/>
<path d="M73.556 21.0765C73.4709 21.0786 73.3177 21.0807 73.2231 21.0807V22.7504H73.7163C74.2599 22.7504 74.6952 22.372 74.6952 21.8958C74.6952 20.9995 73.6503 21.074 73.5564 21.0765H73.556ZM73.2362 23.8832V26.0881H72.0864V19.9239C72.3706 19.9239 72.6844 19.9218 73.0279 19.9151C73.3724 19.9091 73.6513 19.9062 73.8656 19.9062C75.1562 19.9062 75.9148 20.7785 75.9148 21.881C75.9148 22.7261 75.5547 23.2704 74.9666 23.6114L76.3518 26.0881H74.9017L73.7703 23.8832H73.2362Z" fill="#333031"/>
<path d="M80.8304 24.404C80.864 23.9313 80.6723 23.8378 79.1886 23.1162C78.3629 22.7138 78.1779 22.0735 78.1779 21.5884C78.1779 20.1372 79.5645 19.811 80.1611 19.811C80.9451 19.811 81.6229 20.1524 82.1108 20.8513L81.2145 21.5447C81.045 21.3872 80.613 20.9608 80.2112 20.9325C79.5561 20.8884 79.4893 21.4335 79.4879 21.575C79.4837 22.172 80.4626 22.4342 80.697 22.5239C81.5626 22.8522 81.84 23.1773 82.0441 23.5388C82.1761 23.7743 82.186 24.0538 82.186 24.3708C82.186 25.0528 81.6289 26.1302 80.1262 26.1853C78.6287 26.24 77.9834 24.7969 77.8433 24.4852L78.9277 23.9561C79.0855 24.1629 79.3933 24.9741 80.1664 24.9868C80.7309 24.996 80.8205 24.5502 80.8304 24.4037V24.404Z" fill="#333031"/>
<path d="M87.0869 15.3935C86.7815 15.7413 86.3526 15.9139 85.7998 15.9139C85.3105 15.9139 84.8986 15.7345 84.5646 15.3759C84.2254 15.013 84.0552 14.5693 84.0552 14.0468C84.0552 13.4944 84.2194 13.0457 84.5477 12.699C84.8763 12.3527 85.2936 12.1801 85.7998 12.1801C86.289 12.1801 86.7042 12.3527 87.0434 12.699C87.2665 12.9264 87.3929 13.188 87.5196 13.4926L88.7965 12.7725C88.6454 12.375 88.4156 12.028 88.106 11.7307C87.5133 11.1507 86.7444 10.8599 85.7998 10.8599C84.8502 10.8599 84.0753 11.1642 83.477 11.7759C82.8836 12.3792 82.5874 13.1375 82.5874 14.0468C82.5874 15.0091 82.8868 15.7808 83.4855 16.3618C84.0898 16.9429 84.8611 17.2341 85.7994 17.2341C86.7264 17.2341 87.4928 16.9344 88.0968 16.3357C88.3933 16.0456 88.6168 15.7169 88.7696 15.3498L87.5112 14.6353C87.3982 14.9435 87.2796 15.1687 87.0869 15.3935V15.3935Z" fill="#333031"/>
<path d="M0.787201 22.5616L0 26.3716H2.50494C2.4001 26.1966 2.29525 26.0176 2.19253 25.8337C1.53417 24.6532 1.09079 23.5321 0.787201 22.5613V22.5616Z" fill="#333031"/>
<path d="M5.33673 0.563477L4.61377 4.05896C5.43063 2.92228 6.3834 1.74217 7.49432 0.563477H5.33673V0.563477Z" fill="#333031"/>
<path d="M4.30833 21.1159C3.71422 18.6774 3.78412 16.7178 3.81978 16.0715C3.93839 13.9241 4.44247 12.3659 4.85055 11.1357C5.35112 9.6266 6.33813 6.739 8.80989 3.75961C9.39977 3.04936 10.4952 1.82513 12.1278 0.563477H8.73152C7.73851 1.51024 6.19269 3.08253 4.77819 5.3139C4.58404 5.61996 4.36306 5.98533 4.12795 6.40682L1.20752 20.4901C1.40379 21.7344 1.71055 22.6046 1.94847 23.3667C2.33749 24.6111 2.67955 25.2821 3.00608 25.8067C3.13317 26.01 3.26203 26.1986 3.38946 26.3726H6.62336C6.39355 26.0521 6.2121 25.7626 6.07055 25.5356C4.96634 23.761 4.56639 22.1778 4.30799 21.1152L4.30833 21.1159Z" fill="#333031"/>
<path d="M41.2533 17.4359L42.6004 10.9197H40.6691C40.5561 12.6462 40.1929 14.9175 39.2271 17.4341L41.2533 17.4359V17.4359Z" fill="#333031"/>
<path d="M43.6506 5.84942L44.7436 0.563477H41.8394C41.9876 0.819407 42.1338 1.0891 42.2743 1.37292C43.0791 2.99464 43.4685 4.5507 43.6506 5.84942V5.84942Z" fill="#333031"/>
<path d="M40.7924 0.56383H37.7163C38.0997 0.980026 38.4742 1.45199 38.8223 1.98751C39.9212 3.683 40.3074 5.32485 40.5001 6.7217H42.8911C42.7993 5.66797 42.5741 4.47445 42.1123 3.21739C41.7258 2.16437 41.252 1.28079 40.7921 0.563477L40.7924 0.56383Z" fill="#333031"/>
<path d="M12.1999 26.1061C11.8875 25.8678 10.7166 24.9591 9.78609 23.7737C8.00516 21.5036 7.66026 18.9322 7.5353 17.9968C6.6962 11.7432 10.7738 6.68075 11.5755 5.68526C13.8962 2.80401 16.5522 1.26526 18.021 0.563477H13.5467C12.9893 0.95708 12.5872 1.28503 12.3531 1.48165C10.5023 3.03806 9.41543 4.5514 8.77331 5.45863C7.86184 6.74747 6.13951 9.23159 5.26617 12.9449C4.92269 14.4053 4.30598 17.1538 5.0127 20.5017C5.55704 23.0765 6.62418 24.771 7.03755 25.3828C7.30725 25.7806 7.56177 26.1085 7.78699 26.3733H12.5628C12.4432 26.2879 12.3221 26.1982 12.1999 26.1064V26.1061Z" fill="#333031"/>
<path d="M35.4111 17.4313L38.3146 17.4334C38.9642 15.9472 39.6914 13.7872 39.8597 11.1364C39.864 11.0676 39.8686 10.9959 39.8732 10.9197H36.8916C36.8765 13.5517 36.1532 15.794 35.4111 17.4313V17.4313Z" fill="#333031"/>
<path d="M35.2247 4.19416C35.7567 5.07315 36.1083 5.93025 36.3441 6.72135H39.5999C39.5434 6.45482 39.4778 6.18124 39.4008 5.90166C39.0715 4.70002 38.5077 2.72988 36.8789 0.911538C36.7706 0.790809 36.6611 0.675027 36.5503 0.563477H31.6802C32.808 1.29562 34.1696 2.4503 35.2251 4.19416H35.2247Z" fill="#333031"/>
<path d="M30.7562 26.3739L31.4478 23.0273C30.3083 24.1481 28.8087 25.3745 26.9678 26.3739H30.7562Z" fill="#333031"/>
<path d="M18.2843 25.291C17.8755 25.2211 17.238 25.0813 16.5115 24.8035C15.0151 24.2305 13.9751 23.3876 13.447 22.9057C12.4007 21.949 11.7455 20.9317 11.3632 20.2017H9.54029L10.3441 16.3154C10.3275 15.8787 10.3427 15.5194 10.3554 15.2574C10.4277 13.7402 10.809 12.6318 11.0872 11.8407C11.1708 11.6045 11.4077 10.9532 11.8592 10.0855H11.6693L12.3661 6.71499H14.1975C15.3713 5.40992 16.4338 4.6446 16.7282 4.43703C19.3956 2.55762 21.9316 2.09835 22.4957 2.00622C22.6874 1.97374 22.8942 1.94056 23.118 1.9102L23.3958 0.563477H19.6123C17.035 1.61297 15.2163 3.20044 14.4499 3.86869C13.2575 4.90723 9.24906 8.50121 8.51127 14.3357C8.34395 15.6599 7.87656 19.3484 9.92118 22.4715C11.0625 24.2157 12.7827 25.4728 12.9853 25.6172C13.2645 25.818 13.6468 26.0909 14.1403 26.3733H18.0601L18.2836 25.2913L18.2843 25.291Z" fill="#333031"/>
<path d="M26.498 1.9741C26.5754 1.98927 26.6537 2.00622 26.7328 2.02351C28.8085 2.48772 30.1662 3.50544 30.5569 3.81397C31.9319 4.89629 32.7127 6.14206 33.1332 6.98646C33.7735 8.27317 34.0026 9.47799 34.0792 10.4286L34.8453 6.7217H35.5951C35.1721 5.53277 34.123 3.26998 31.7508 1.58966C31.1313 1.15158 30.5146 0.819407 29.9247 0.563477H26.791L26.4991 1.9741H26.498Z" fill="#333031"/>
<path d="M34.1133 11.787C34.0646 14.1458 33.2848 15.8547 32.8651 16.75C32.0677 18.4522 31.1848 19.6351 30.5963 20.3079C29.6612 21.3772 27.7825 23.3166 24.7205 24.4971C24.7205 24.4971 23.4232 24.9976 21.6882 25.2589L21.458 26.374H25.0103C26.9392 25.5148 29.4681 24.0371 31.75 21.5692L32.6064 17.4291L34.6249 17.4299C35.3086 16.0369 36.1788 13.7529 36.2137 10.9197H34.1109C34.1225 11.2582 34.1179 11.5516 34.1133 11.787Z" fill="#333031"/>
<path d="M19.1427 6.03767C20.4806 5.28576 21.7384 4.98853 22.5069 4.86886L22.9506 2.72363C22.5019 2.80059 22.1062 2.89414 21.7726 2.97357C18.5468 3.73677 16.5417 5.62713 15.7792 6.3635C15.6567 6.48141 15.5403 6.59966 15.4287 6.71545H18.0985C18.4148 6.47964 18.7608 6.25194 19.1427 6.03767Z" fill="#333031"/>
<path d="M13.4379 15.7108C13.4089 15.3133 13.3309 13.8427 13.9801 12.0956C14.289 11.2647 14.6614 10.642 15.0487 10.0867H12.9712C12.3242 11.1648 11.6884 12.4494 11.413 14.1378C11.3297 14.6507 11.2143 15.4009 11.2387 16.301H13.5029C13.4757 16.1153 13.4531 15.9187 13.4379 15.7108V15.7108Z" fill="#333031"/>
<path d="M18.6631 22.2556C18.3249 22.1723 17.656 22.0043 16.909 21.6043C16.5327 21.4031 15.7897 20.9943 15.1098 20.2029H12.3228C12.7601 20.9682 13.5092 22.011 14.7038 22.8882C15.7882 23.6853 16.9443 24.129 17.7231 24.2992C17.8403 24.3239 18.1075 24.3779 18.4633 24.4287L18.9011 22.3103C18.8241 22.2934 18.745 22.2754 18.6635 22.2556H18.6631Z" fill="#333031"/>
<path d="M27.9568 5.76408C28.3024 5.98224 29.066 6.51246 29.7459 7.44511C30.7011 8.75653 30.9038 10.0549 31.0121 10.8079C31.3457 13.1349 30.6344 14.9458 30.3612 15.6179C29.7664 17.0783 28.9728 18.0128 28.4811 18.5822C26.1953 21.2294 23.4652 22.1108 22.2854 22.3636L21.8745 24.351C23.0165 24.1124 23.9707 23.7301 24.1779 23.6446C24.7198 23.4237 25.7195 22.9746 26.8904 22.1627C27.9547 21.4225 30.5822 19.5985 32.1061 16.0966C32.5413 15.0958 33.4511 12.9337 33.1362 10.1573C33.0507 9.40536 32.9046 8.2189 32.1869 6.90289C30.7438 4.25568 28.181 3.27009 27.3599 2.99862C27.0129 2.88284 26.674 2.79564 26.3443 2.72998L25.8914 4.92252C26.5522 5.06725 27.2596 5.32317 27.9568 5.76408Z" fill="#333031"/>
<path d="M15.4811 15.6935C15.4024 15.2452 15.4327 14.9088 15.4811 14.3644C15.4987 14.1597 15.5665 13.4883 15.779 12.7642C16.132 11.5644 16.771 10.6067 17.1713 10.0867H16.1345C15.3533 11.1203 14.4619 12.5591 14.2876 14.4721C14.2201 15.2123 14.2752 15.8552 14.3423 16.301H15.6413C15.5552 16.0585 15.5076 15.8442 15.4811 15.6935Z" fill="#333031"/>
<path d="M22.3411 5.66797C21.8567 5.76858 21.2446 5.93872 20.5781 6.2296C20.2354 6.37892 19.9177 6.54307 19.6226 6.71711H22.1236L22.3411 5.66797V5.66797Z" fill="#333031"/>
<path d="M16.3892 20.2029C16.9427 20.6706 17.8902 21.2259 19.0558 21.563L19.3371 20.2029H16.3895H16.3892Z" fill="#333031"/>
<path d="M26.2743 7.39282C27.8395 8.17014 28.524 9.56488 28.7146 9.99625C29.3723 11.4838 29.1431 12.82 29.0136 13.5214C28.7019 15.1999 27.8423 16.2865 27.1963 17.102C25.941 18.6866 24.6017 19.4212 24.2138 19.6231C23.7368 19.8713 23.2814 20.1036 22.7279 20.2236L22.4741 21.4517C24.7546 20.7263 26.4027 19.3976 26.4917 19.3248C27.3534 18.6174 28.8039 17.3992 29.6642 15.2571C29.9155 14.6323 30.4528 13.2506 30.2883 11.4337C30.234 10.8346 30.1079 9.60618 29.2851 8.31487C28.543 7.15207 27.6266 6.55125 27.4138 6.4171C26.8437 6.05633 26.2697 5.83146 25.7313 5.69556L25.4457 7.07476C25.72 7.15136 25.9961 7.25444 26.275 7.39247L26.2743 7.39282Z" fill="#333031"/>
<path d="M17.9397 15.8202C17.6085 15.0069 17.6784 14.2903 17.7226 13.8857C17.862 12.6075 18.4907 11.7391 18.7353 11.4076C19.1755 10.8132 19.6793 10.3881 20.1357 10.0867H18.3647C18.1236 10.3355 17.9336 10.5632 17.7953 10.7401C17.4924 11.127 16.8693 11.9385 16.4934 13.1794C16.4934 13.1794 16.0874 14.5197 16.277 15.8922C16.2982 16.0476 16.3246 16.1831 16.3564 16.3014H18.1716C18.0586 16.1051 17.9862 15.9339 17.94 15.8202H17.9397Z" fill="#333031"/>
<path d="M25.2993 9.58986C26.323 10.2373 26.6916 11.2508 26.764 11.4612C27.111 12.4792 26.884 13.3409 26.7361 13.9026C26.3199 15.4851 25.2817 16.4142 24.8655 16.7771C24.438 17.1492 23.9424 17.5813 23.2229 17.8308L22.9331 19.234C23.3581 19.132 23.7143 18.9499 24.1422 18.7292C25.6509 17.9554 26.519 16.8428 26.7812 16.4887C27.1812 15.9465 28.3115 14.4148 28.2639 12.2572C28.2487 11.5748 28.2212 10.3227 27.3238 9.22062C26.6997 8.45318 25.9083 8.06946 25.2824 7.87036L24.965 9.40665C25.0769 9.45996 25.1892 9.52103 25.2993 9.59057V9.58986Z" fill="#333031"/>
<path d="M21.4256 10.1045C20.8816 10.3544 20.5219 10.7014 20.1107 11.0993C19.7531 11.4445 19.2476 11.9324 18.8815 12.7259C18.6916 13.1372 18.1257 14.3628 18.6104 15.6005C18.6605 15.7293 18.7724 16.0135 18.9931 16.2998H20.1445L21.4256 10.1045V10.1045Z" fill="#333031"/>
<path d="M24.3945 16.124C24.9092 15.621 25.312 15.2259 25.642 14.552C25.8295 14.1697 26.1433 13.5072 26.0946 12.6176C26.0766 12.2896 26.0342 11.5331 25.4796 10.8631C25.2544 10.5917 25.0077 10.4099 24.7831 10.281L23.417 16.8918C23.6355 16.7714 23.9596 16.5501 24.3948 16.124H24.3945Z" fill="#333031"/>
<path d="M50.208 26.0791H51.5911L54.4656 10.9739H53.1097L50.208 26.0791Z" fill="#333031"/>
</svg>
