<svg width="102" height="37" viewBox="0 0 102 37" fill="none" xmlns="http://www.w3.org/2000/svg">
<g clip-path="url(#clip0_1503_323)">
<path d="M74.1271 3.11841C74.8015 3.11841 75.7826 4.09231 75.7826 5.78569C75.7826 7.34741 73.7732 12.8346 72.4601 16.8632C71.0537 21.1748 69.7138 27.8051 68.5846 27.8051C67.6732 27.8051 66.6426 25.5672 66.6426 24.5968C66.6421 23.8309 68.2704 18.657 69.533 14.9315C71.0809 10.3602 73.213 3.11885 74.1271 3.11885V3.11841Z" fill="#E31E24"/>
<path d="M74.1271 3.11841C74.8015 3.11841 75.7826 4.09231 75.7826 5.78569C75.7826 7.34741 73.7732 12.8346 72.4601 16.8632C71.0537 21.1748 69.7138 27.8051 68.5846 27.8051C67.6732 27.8051 66.6426 25.5672 66.6426 24.5968C66.6421 23.8309 68.2704 18.657 69.533 14.9315C71.0809 10.3602 73.213 3.11885 74.1271 3.11885V3.11841Z" stroke="#E31E24" stroke-width="0.253814" stroke-miterlimit="1"/>
<path d="M82.8245 15.5217C81.8403 18.7308 80.4415 22.8139 77.6823 22.8139C77.1538 22.8139 76.5669 22.3711 76.6526 21.4999C76.9159 18.8255 79.4935 15.5391 82.4803 15.5391C82.6035 15.5409 82.8294 15.5382 82.8245 15.5217ZM81.9621 12.4291C78.1795 12.4291 72.8105 18.388 72.8105 22.7742C72.8105 24.9192 74.3254 26.2703 76.1536 26.2703C78.391 26.2703 79.6109 25.1067 81.2364 23.7507C81.2364 24.88 82.3964 25.574 83.1815 25.574C84.6714 25.5736 86.205 23.9319 87.739 22.2435C87.4101 23.2964 87.2905 23.9078 87.2905 24.5796C87.2905 25.2116 88.4304 26.9117 89.0218 26.9121C89.2945 26.9112 90.1524 25.366 91.0812 24.0672C92.3171 22.3376 93.9506 20.6318 94.912 20.6318C95.2513 20.6318 95.2986 21.0018 95.2986 21.3396C95.2986 22.1546 95.0857 22.8041 95.0857 24.0225C95.0857 25.4017 95.4914 26.5323 96.9156 26.5323C99.0308 26.5323 101.675 24.3328 101.675 23.2433C101.675 22.846 101.594 22.4635 101.167 22.4635C100.662 22.4635 99.7681 22.992 98.9523 22.992C98.5358 22.992 98.3626 22.3542 98.3626 21.6374C98.3626 19.8355 98.9023 18.5005 98.9023 16.4416C98.9023 15.4132 98.4421 14.7995 97.3687 14.7995C96.0315 14.7995 93.644 17.0549 92.1974 18.6996C92.6799 16.9888 93.3369 14.9959 93.3369 14.2938C93.3369 13.1106 91.6284 11.5989 91.0812 11.5989C90.5755 11.5989 89.361 15.6922 88.8785 17.5315C88.2876 18.4313 85.7796 21.4387 84.9682 21.4387C84.2911 21.4387 84.3215 20.9745 84.3215 20.6706C84.3224 20.0096 86.4326 15.8917 86.4326 14.717C86.4326 13.8355 85.5725 12.0251 84.55 12.0251C84.1844 12.0251 83.9278 12.6165 83.7421 12.9236C83.4011 12.5978 82.8071 12.4286 81.963 12.4286L81.9621 12.4291Z" fill="#E31E24"/>
<path d="M82.8245 15.5217C81.8403 18.7308 80.4415 22.8139 77.6823 22.8139C77.1538 22.8139 76.5669 22.3711 76.6526 21.4999C76.9159 18.8255 79.4935 15.5391 82.4803 15.5391C82.6035 15.5409 82.8294 15.5382 82.8245 15.5217ZM81.9621 12.4291C78.1795 12.4291 72.8105 18.388 72.8105 22.7742C72.8105 24.9192 74.3254 26.2703 76.1536 26.2703C78.391 26.2703 79.6109 25.1067 81.2364 23.7507C81.2364 24.88 82.3964 25.574 83.1815 25.574C84.6714 25.5736 86.205 23.9319 87.739 22.2435C87.4101 23.2964 87.2905 23.9078 87.2905 24.5796C87.2905 25.2116 88.4304 26.9117 89.0218 26.9121C89.2945 26.9112 90.1524 25.366 91.0812 24.0672C92.3171 22.3376 93.9506 20.6318 94.912 20.6318C95.2513 20.6318 95.2986 21.0018 95.2986 21.3396C95.2986 22.1546 95.0857 22.8041 95.0857 24.0225C95.0857 25.4017 95.4914 26.5323 96.9156 26.5323C99.0308 26.5323 101.675 24.3328 101.675 23.2433C101.675 22.846 101.594 22.4635 101.167 22.4635C100.662 22.4635 99.7681 22.992 98.9523 22.992C98.5358 22.992 98.3626 22.3542 98.3626 21.6374C98.3626 19.8355 98.9023 18.5005 98.9023 16.4416C98.9023 15.4132 98.4421 14.7995 97.3687 14.7995C96.0315 14.7995 93.644 17.0549 92.1974 18.6996C92.6799 16.9888 93.3369 14.9959 93.3369 14.2938C93.3369 13.1106 91.6284 11.5989 91.0812 11.5989C90.5755 11.5989 89.361 15.6922 88.8785 17.5315C88.2876 18.4313 85.7796 21.4387 84.9682 21.4387C84.2911 21.4387 84.3215 20.9745 84.3215 20.6706C84.3224 20.0096 86.4326 15.8917 86.4326 14.717C86.4326 13.8355 85.5725 12.0251 84.55 12.0251C84.1844 12.0251 83.9278 12.6165 83.7421 12.9236C83.4011 12.5978 82.8071 12.4286 81.963 12.4286L81.9621 12.4291Z" stroke="#E31E24" stroke-width="0.253814" stroke-miterlimit="1"/>
<path d="M57.4751 24.1692C55.9978 29.2887 54.1196 35.6788 53.3082 35.6788C52.3593 35.6806 51.4229 34.1367 51.4229 32.9428C51.4229 31.2615 53.0448 27.7743 54.3847 23.3431C56.395 16.6878 58.4374 9.25903 59.5845 9.25903C60.4285 9.25903 61.3172 10.9225 61.3868 11.7433C61.4167 12.0915 61.4301 12.6012 61.3368 12.9292C61.9858 12.4258 62.8351 12.1477 63.8099 12.1477C65.2418 12.1477 66.9343 13.5737 66.9343 16.6186C66.9343 20.6539 63.5502 26.0349 60.2089 26.0349C59.1234 26.0349 57.909 25.2114 57.4747 24.1692H57.4751ZM58.6561 20.7615C58.6561 21.6983 59.4051 22.1737 60.2531 22.1737C61.5975 22.1737 63.4212 19.7005 63.4207 17.7045C63.4212 16.4312 62.857 15.5769 61.772 15.5769C59.8193 15.5769 58.6566 19.7005 58.6566 20.7615H58.6561Z" fill="#E31E24"/>
<path d="M57.4751 24.1692C55.9978 29.2887 54.1196 35.6788 53.3082 35.6788C52.3593 35.6806 51.4229 34.1367 51.4229 32.9428C51.4229 31.2615 53.0448 27.7743 54.3847 23.3431C56.395 16.6878 58.4374 9.25903 59.5845 9.25903C60.4285 9.25903 61.3172 10.9225 61.3868 11.7433C61.4167 12.0915 61.4301 12.6012 61.3368 12.9292C61.9858 12.4258 62.8351 12.1477 63.8099 12.1477C65.2418 12.1477 66.9343 13.5737 66.9343 16.6186C66.9343 20.6539 63.5502 26.0349 60.2089 26.0349C59.1234 26.0349 57.909 25.2114 57.4747 24.1692H57.4751ZM58.6561 20.7615C58.6561 21.6983 59.4051 22.1737 60.2531 22.1737C61.5975 22.1737 63.4212 19.7005 63.4207 17.7045C63.4212 16.4312 62.857 15.5769 61.772 15.5769C59.8193 15.5769 58.6566 19.7005 58.6566 20.7615H58.6561Z" stroke="#E31E24" stroke-width="0.253814" stroke-miterlimit="1"/>
<path d="M42.5395 21.045C42.872 21.9515 43.4036 22.2112 44.1575 22.2112C46.2177 22.2112 48.9426 20.4014 50.5173 17.2512C52.2022 13.9447 55.1542 1.88972 56.2223 1.88972C57.2685 1.88972 58.0058 3.48938 58.0058 4.42623C58.0058 5.91565 55.634 12.8365 53.7608 18.2451C52.2736 22.5429 51.2899 27.802 50.1843 27.802C49.1908 27.802 48.349 25.7096 48.3329 24.8183C48.3204 24.143 48.4427 23.5931 48.544 23.2945C47.563 24.1872 45.3666 26.0497 43.2318 26.0497C41.1742 26.0497 39.4567 24.8982 39.0372 21.498C37.6089 21.4565 36.1775 20.8432 36.1775 20.8432C34.9345 24.4724 33.67 28.1064 32.9768 28.1064C31.8668 28.1064 31.005 26.5121 31.005 25.2927C31.005 24.2563 31.8851 21.6886 32.8429 19.016C31.878 18.2929 30.5899 16.8365 30.5899 16.8365C30.5756 17.1588 30.572 17.294 30.5301 17.6288C29.8766 22.8602 26.755 25.8118 24.2301 25.8118C21.6735 25.8118 20.1461 23.8881 20.0519 21.8096C19.9667 19.9358 20.8964 17.6997 21.569 16.7379C21.569 16.7379 20.6719 16.8566 19.0865 17.2605C17.2463 22.937 15.8511 28.26 14.8754 28.26C13.7819 28.26 12.783 26.3006 12.783 25.3481C12.783 24.4416 13.419 22.2987 14.8089 18.1889C14.1943 18.3558 11.6502 19.1092 10.8968 19.3552C8.86909 24.7402 7.67157 28.2961 6.70884 28.2961C5.68807 28.2961 4.95073 25.9966 4.95073 24.9959C4.95073 23.8712 6.40756 20.7098 6.40756 20.7098C3.5488 21.7355 0.936862 22.6219 0.683345 22.4215C-0.132105 21.7765 1.7599 18.754 2.53429 18.2081C2.85431 17.9814 5.27477 17.1525 8.05319 16.2911C10.5357 10.138 14.2228 1.45678 15.0432 1.45678C15.7091 1.45678 16.5991 3.6398 16.5991 4.82972C16.5991 5.84602 14.2978 10.998 12.4888 15.2788C12.9271 15.1543 15.2579 14.4946 16.0412 14.2697C18.1782 8.10625 21.1955 0.547607 22.0413 0.547607C22.7906 0.547607 23.3843 2.79489 23.3843 4.14059C23.3843 5.02477 21.6811 9.49702 20.2497 13.518C21.9721 13.0744 23.3062 12.9744 24.4189 12.9744C25.6958 12.9744 26.1011 14.1331 26.1011 14.8343C26.1006 15.7653 25.4102 16.354 24.73 16.5232C24.2189 17.6305 23.4561 18.8718 23.4561 20.6598C23.4557 21.2847 23.9605 22.0283 24.5255 22.0283C26.0408 22.0283 27.3486 18.3415 27.557 16.4397C27.657 15.5301 27.3486 14.7758 27.3486 14.7758C26.784 14.3594 26.3716 14.0027 26.3711 12.969C26.3716 11.8322 27.2544 10.5553 28.4488 10.5553C29.4593 10.5553 30.1092 11.5943 30.5667 12.8856C30.5667 12.8856 31.8552 14.8035 33.8588 16.1826C35.699 10.8954 38.2842 3.15151 38.9528 3.15151C39.9312 3.15151 40.9207 4.58335 40.9207 5.94913C40.9207 6.69807 38.8238 13.3149 37.1813 17.9376C37.1813 17.9376 37.8191 18.1233 38.2538 18.2094C38.7484 18.3166 39.1349 18.3299 39.2036 18.3273C40.0856 15.1159 43.0064 11.3015 45.7607 11.302C47.9794 11.302 49.1212 12.5789 49.1216 14.7213C49.1212 17.277 46.511 19.8533 42.5382 21.0441L42.5395 21.045ZM46.3418 15.078C46.3418 14.5723 46.1539 14.308 45.584 14.308C44.394 14.308 43.0412 16.1393 42.5092 17.9363C44.9033 17.1565 46.3418 15.7064 46.3418 15.078Z" fill="#E31E24"/>
<path d="M42.5395 21.045C42.872 21.9515 43.4036 22.2112 44.1575 22.2112C46.2177 22.2112 48.9426 20.4014 50.5173 17.2512C52.2022 13.9447 55.1542 1.88972 56.2223 1.88972C57.2685 1.88972 58.0058 3.48938 58.0058 4.42623C58.0058 5.91565 55.634 12.8365 53.7608 18.2451C52.2736 22.5429 51.2899 27.802 50.1843 27.802C49.1908 27.802 48.349 25.7096 48.3329 24.8183C48.3204 24.143 48.4427 23.5931 48.544 23.2945C47.563 24.1872 45.3666 26.0497 43.2318 26.0497C41.1742 26.0497 39.4567 24.8982 39.0372 21.498C37.6089 21.4565 36.1775 20.8432 36.1775 20.8432C34.9345 24.4724 33.67 28.1064 32.9768 28.1064C31.8668 28.1064 31.005 26.5121 31.005 25.2927C31.005 24.2563 31.8851 21.6886 32.8429 19.016C31.878 18.2929 30.5899 16.8365 30.5899 16.8365C30.5756 17.1588 30.572 17.294 30.5301 17.6288C29.8766 22.8602 26.755 25.8118 24.2301 25.8118C21.6735 25.8118 20.1461 23.8881 20.0519 21.8096C19.9667 19.9358 20.8964 17.6997 21.569 16.7379C21.569 16.7379 20.6719 16.8566 19.0865 17.2605C17.2463 22.937 15.8511 28.26 14.8754 28.26C13.7819 28.26 12.783 26.3006 12.783 25.3481C12.783 24.4416 13.419 22.2987 14.8089 18.1889C14.1943 18.3558 11.6502 19.1092 10.8968 19.3552C8.86909 24.7402 7.67157 28.2961 6.70884 28.2961C5.68807 28.2961 4.95073 25.9966 4.95073 24.9959C4.95073 23.8712 6.40756 20.7098 6.40756 20.7098C3.5488 21.7355 0.936862 22.6219 0.683345 22.4215C-0.132105 21.7765 1.7599 18.754 2.53429 18.2081C2.85431 17.9814 5.27477 17.1525 8.05319 16.2911C10.5357 10.138 14.2228 1.45678 15.0432 1.45678C15.7091 1.45678 16.5991 3.6398 16.5991 4.82972C16.5991 5.84602 14.2978 10.998 12.4888 15.2788C12.9271 15.1543 15.2579 14.4946 16.0412 14.2697C18.1782 8.10625 21.1955 0.547607 22.0413 0.547607C22.7906 0.547607 23.3843 2.79489 23.3843 4.14059C23.3843 5.02477 21.6811 9.49702 20.2497 13.518C21.9721 13.0744 23.3062 12.9744 24.4189 12.9744C25.6958 12.9744 26.1011 14.1331 26.1011 14.8343C26.1006 15.7653 25.4102 16.354 24.73 16.5232C24.2189 17.6305 23.4561 18.8718 23.4561 20.6598C23.4557 21.2847 23.9605 22.0283 24.5255 22.0283C26.0408 22.0283 27.3486 18.3415 27.557 16.4397C27.657 15.5301 27.3486 14.7758 27.3486 14.7758C26.784 14.3594 26.3716 14.0027 26.3711 12.969C26.3716 11.8322 27.2544 10.5553 28.4488 10.5553C29.4593 10.5553 30.1092 11.5943 30.5667 12.8856C30.5667 12.8856 31.8552 14.8035 33.8588 16.1826C35.699 10.8954 38.2842 3.15151 38.9528 3.15151C39.9312 3.15151 40.9207 4.58335 40.9207 5.94913C40.9207 6.69807 38.8238 13.3149 37.1813 17.9376C37.1813 17.9376 37.8191 18.1233 38.2538 18.2094C38.7484 18.3166 39.1349 18.3299 39.2036 18.3273C40.0856 15.1159 43.0064 11.3015 45.7607 11.302C47.9794 11.302 49.1212 12.5789 49.1216 14.7213C49.1212 17.277 46.511 19.8533 42.5382 21.0441L42.5395 21.045ZM46.3418 15.078C46.3418 14.5723 46.1539 14.308 45.584 14.308C44.394 14.308 43.0412 16.1393 42.5092 17.9363C44.9033 17.1565 46.3418 15.7064 46.3418 15.078Z" stroke="#E31E24" stroke-width="0.253814" stroke-miterlimit="1"/>
</g>
<defs>
<clipPath id="clip0_1503_323">
<rect width="102" height="36.2559" fill="white" transform="translate(0 0.0634766)"/>
</clipPath>
</defs>
</svg>
