<svg width="102" height="35" viewBox="0 0 102 35" fill="none" xmlns="http://www.w3.org/2000/svg">
<g clip-path="url(#clip0_1503_168)">
<path fill-rule="evenodd" clip-rule="evenodd" d="M27.1311 4.13394C27.09 4.13936 26.9954 4.16105 26.9207 4.18212C26.8461 4.20319 26.7229 4.25245 26.6468 4.29159C26.5708 4.33074 26.4529 4.40559 26.3849 4.45794C26.3169 4.51028 26.1987 4.62762 26.1222 4.71869C26.0457 4.80976 25.9485 4.95526 25.9062 5.04202C25.8639 5.12881 25.8104 5.26144 25.7872 5.33677C25.7641 5.4121 25.739 5.59139 25.7316 5.73521C25.7221 5.9206 25.7297 6.05764 25.7579 6.20621C25.7833 6.34038 25.8356 6.49264 25.9032 6.62955C25.9875 6.80033 26.0516 6.88597 26.2213 7.05503C26.3382 7.17145 26.4997 7.30532 26.5801 7.35254C26.6606 7.39975 26.7845 7.458 26.8556 7.48198C26.9266 7.50599 27.0849 7.53816 27.2074 7.55348C27.3299 7.56884 27.5082 7.5737 27.6042 7.56433C27.7001 7.55497 27.8605 7.52646 27.9607 7.50101C28.0609 7.47553 28.2122 7.41808 28.2969 7.37336C28.3911 7.3236 28.5341 7.20972 28.6651 7.08013C28.7988 6.94787 28.9127 6.80745 28.9681 6.7064C29.017 6.61737 29.0831 6.46049 29.115 6.35776C29.1638 6.20103 29.1731 6.11693 29.1731 5.83482C29.1731 5.55163 29.1639 5.4692 29.1146 5.31187C29.0825 5.20914 29.0161 5.05226 28.9673 4.96323C28.9129 4.86422 28.7997 4.7238 28.6759 4.60165C28.5432 4.47076 28.4128 4.37003 28.2975 4.30947C28.2008 4.25865 28.0276 4.19452 27.9127 4.16698C27.7666 4.13194 27.629 4.11797 27.4548 4.12046C27.3179 4.12241 27.1722 4.12848 27.1311 4.13394ZM49.0203 4.15627C48.9244 4.17756 48.7778 4.22744 48.6946 4.26706C48.6113 4.30671 48.4713 4.39481 48.3833 4.46287C48.2954 4.5309 48.1799 4.63883 48.1267 4.70268C48.0735 4.76653 47.9923 4.8814 47.9462 4.95798C47.9001 5.03455 47.84 5.15685 47.8127 5.22974C47.7855 5.30265 47.7524 5.4567 47.7393 5.57207C47.7253 5.69514 47.724 5.88828 47.7361 6.03941C47.7509 6.22484 47.7759 6.34561 47.8253 6.47057C47.863 6.56602 47.9422 6.7176 48.0013 6.80738C48.0604 6.89715 48.1696 7.02824 48.2441 7.09866C48.3185 7.16908 48.45 7.27228 48.5362 7.32798C48.6224 7.38372 48.7628 7.45088 48.8482 7.47725C48.9336 7.50362 49.0969 7.53811 49.2111 7.55392C49.3267 7.56991 49.4959 7.57531 49.593 7.56613C49.6889 7.55706 49.8402 7.53208 49.9292 7.51064C50.0182 7.48918 50.165 7.43342 50.2554 7.38673C50.3458 7.34004 50.488 7.24349 50.5715 7.1722C50.655 7.1009 50.7673 6.98655 50.8211 6.91807C50.8748 6.84959 50.9547 6.72233 50.9985 6.63528C51.0423 6.54819 51.0998 6.39233 51.1262 6.28888C51.159 6.16064 51.1743 6.01613 51.1743 5.83482C51.1743 5.65163 51.159 5.50909 51.1252 5.37684C51.0982 5.27125 51.0343 5.10416 50.9832 5.00557C50.9181 4.87974 50.8269 4.76262 50.6775 4.61288C50.5604 4.49554 50.4086 4.36857 50.3401 4.33071C50.2716 4.29289 50.1315 4.23317 50.0288 4.19803C49.8742 4.14517 49.7863 4.13271 49.5183 4.12584C49.2897 4.11996 49.1434 4.1289 49.0203 4.15627ZM82.4517 4.15548C82.3626 4.1747 82.2172 4.22705 82.1285 4.27177C82.0397 4.31652 81.9046 4.40355 81.8282 4.46519C81.7518 4.52682 81.6493 4.62207 81.6006 4.67686C81.5518 4.73164 81.4705 4.84151 81.4199 4.92097C81.3692 5.00046 81.2986 5.14054 81.263 5.23225C81.2067 5.37694 81.1966 5.44666 81.187 5.75866C81.1798 5.99113 81.1866 6.16726 81.2063 6.25671C81.2231 6.33284 81.273 6.47356 81.3171 6.56943C81.3613 6.66531 81.4557 6.81659 81.5269 6.90562C81.598 6.99464 81.7201 7.12065 81.7981 7.18564C81.8761 7.25061 82.0145 7.34293 82.1055 7.39079C82.1966 7.43865 82.3425 7.49625 82.4298 7.51881C82.5303 7.54473 82.6984 7.56072 82.8875 7.56224C83.1064 7.56403 83.2329 7.55228 83.3606 7.51829C83.4565 7.49276 83.5966 7.44094 83.6721 7.40312C83.7475 7.36529 83.8778 7.28276 83.9617 7.21971C84.0456 7.15666 84.172 7.03496 84.2427 6.94929C84.3134 6.86366 84.4098 6.71511 84.4571 6.61924C84.5043 6.52337 84.5621 6.37208 84.5855 6.28306C84.6135 6.17665 84.6279 6.02736 84.6275 5.84727C84.6272 5.67855 84.6112 5.50939 84.5859 5.40687C84.5634 5.3153 84.5102 5.16691 84.4678 5.07711C84.4253 4.98729 84.341 4.84781 84.2804 4.76715C84.2198 4.68649 84.1011 4.564 84.0168 4.49492C83.9324 4.42584 83.8093 4.33985 83.7431 4.30387C83.677 4.26786 83.5148 4.21098 83.3827 4.17749C83.1979 4.1306 83.0815 4.117 82.878 4.11852C82.7326 4.11962 82.5407 4.13625 82.4517 4.15548ZM39.9849 7.37047C39.9757 7.37958 39.9683 8.14159 39.9683 9.06383V10.7406H38.9099H37.8516V11.9338C37.8516 12.5901 37.8577 13.1431 37.8652 13.1627C37.8768 13.1929 38.0339 13.1964 38.9235 13.1861L39.9683 13.1741V19.042V24.91H41.3378H42.7074L42.7137 19.0517L42.72 13.1935L43.7845 13.187L44.8491 13.1805V12.0761C44.8491 11.4686 44.842 10.9197 44.8333 10.8561L44.8174 10.7406H43.7625H42.7075V9.04722V7.35386H41.3545C40.6103 7.35386 39.994 7.36133 39.9849 7.37047ZM73.4619 9.04699V10.7406H72.3911H71.3203V11.9608V13.181L72.1857 13.1812C72.6616 13.1812 73.1435 13.1885 73.2565 13.1973L73.4619 13.2133V19.0612V24.9091L74.788 24.9158C75.5173 24.9195 76.1224 24.919 76.1327 24.9148C76.143 24.9105 76.1514 22.2687 76.1514 19.044V13.181H77.2097H78.2681V11.9608V10.7406H77.2099H76.1517L76.1453 9.05344L76.1389 7.36631L74.8004 7.35986L73.4619 7.35343V9.04699ZM60.3882 10.317C60.3266 10.327 60.1192 10.3599 59.9275 10.3902C59.7357 10.4205 59.4612 10.4729 59.3174 10.5067C59.1736 10.5404 58.9438 10.6024 58.8069 10.6445C58.6699 10.6865 58.457 10.7599 58.3337 10.8075C58.2105 10.8552 57.9639 10.9642 57.7859 11.0498C57.6078 11.1354 57.3483 11.2734 57.2091 11.3563C57.0699 11.4393 56.8441 11.5866 56.7071 11.6837C56.5703 11.7807 56.3536 11.9485 56.2256 12.0565C56.0976 12.1645 55.8357 12.4141 55.6436 12.6111C55.4515 12.8081 55.1934 13.1038 55.07 13.2682C54.9466 13.4325 54.7797 13.6735 54.6991 13.8036C54.6186 13.9337 54.4879 14.1634 54.4087 14.3141C54.3295 14.4647 54.2084 14.7193 54.1396 14.8797C54.0708 15.0402 53.9744 15.2868 53.9254 15.4276C53.8763 15.5684 53.808 15.8126 53.7736 15.9701C53.7392 16.1276 53.6811 16.3909 53.6446 16.5553C53.5793 16.8488 53.5781 16.8702 53.5778 17.763C53.5774 18.5391 53.5841 18.7102 53.6236 18.9334C53.649 19.0773 53.6971 19.3126 53.7304 19.4564C53.7636 19.6002 53.8364 19.8636 53.8919 20.0416C53.9475 20.2197 54.043 20.4879 54.1041 20.6377C54.1652 20.7875 54.2743 21.0284 54.3465 21.1731C54.4186 21.3178 54.5488 21.5538 54.6357 21.6976C54.7226 21.8414 54.85 22.0375 54.9188 22.1334C54.9877 22.2293 55.1395 22.4254 55.2563 22.5692C55.3731 22.713 55.5922 22.9542 55.7432 23.1053C55.8943 23.2563 56.1355 23.4758 56.2793 23.593C56.4231 23.7102 56.6304 23.8684 56.74 23.9444C56.8496 24.0205 57.0442 24.1461 57.1725 24.2237C57.3007 24.3012 57.5145 24.4192 57.6475 24.4859C57.7805 24.5527 58.0078 24.6579 58.1528 24.7199C58.2978 24.7818 58.5771 24.8832 58.7735 24.9453C58.9699 25.0074 59.2261 25.0802 59.3427 25.107C59.4594 25.1339 59.7283 25.1814 59.9404 25.2127C60.2623 25.2602 60.4267 25.2694 60.936 25.2687C61.4293 25.268 61.6106 25.2577 61.8827 25.2155C62.0677 25.1867 62.3535 25.1294 62.5177 25.0882C62.6818 25.0469 62.9338 24.9711 63.0776 24.9197C63.2214 24.8683 63.5323 24.7281 63.7684 24.6081C64.0046 24.4881 64.2847 24.3317 64.391 24.2604C64.4973 24.1891 64.6515 24.0794 64.7336 24.0165C64.8158 23.9537 64.981 23.8146 65.1008 23.7075C65.2205 23.6003 65.4119 23.4041 65.5259 23.2713C65.64 23.1385 65.7746 22.9751 65.8249 22.908L65.9165 22.7861V23.8481V24.91H67.2862H68.6558L68.6496 17.8315L68.6433 10.753L67.2799 10.7466L65.9165 10.7402V11.7246V12.7091L65.8457 12.6726C65.8068 12.6524 65.7128 12.559 65.6369 12.465C65.5609 12.371 65.3995 12.195 65.2781 12.0739C65.1567 11.9527 64.9565 11.7728 64.8333 11.674C64.71 11.5752 64.5027 11.4229 64.3726 11.3356C64.2424 11.2482 63.9791 11.0975 63.7874 11.0007C63.5956 10.9038 63.3323 10.7843 63.2022 10.7351C63.072 10.6859 62.8927 10.6229 62.8037 10.595C62.7147 10.5672 62.5578 10.5218 62.4551 10.494C62.3524 10.4663 62.1394 10.4209 61.9819 10.3933C61.8244 10.3657 61.5723 10.3317 61.4216 10.3177C61.271 10.3038 61.002 10.2939 60.824 10.2957C60.6459 10.2975 60.4498 10.3071 60.3882 10.317ZM93.8943 10.3184C93.7847 10.3307 93.5507 10.3637 93.3742 10.3917C93.1978 10.4198 92.9176 10.4769 92.7517 10.5187C92.5857 10.5606 92.3099 10.6402 92.1387 10.6958C91.9675 10.7513 91.6985 10.8519 91.541 10.9193C91.3835 10.9867 91.1387 11.1032 90.997 11.1782C90.8552 11.2531 90.5975 11.4074 90.4242 11.5211C90.2509 11.6348 89.9915 11.8214 89.8477 11.936C89.7038 12.0505 89.4423 12.285 89.2664 12.4571C89.0905 12.6293 88.8552 12.8805 88.7435 13.0153C88.6317 13.1502 88.4472 13.3967 88.3336 13.5632C88.2199 13.7296 88.0595 13.9866 87.9772 14.1343C87.8949 14.2819 87.7826 14.5004 87.7275 14.6199C87.6724 14.7393 87.5885 14.9362 87.5411 15.0573C87.4936 15.1785 87.4213 15.3802 87.3804 15.5056C87.3396 15.6309 87.2787 15.841 87.2452 15.9723C87.2117 16.1036 87.1562 16.3709 87.122 16.5663C87.0877 16.7616 87.0464 17.1209 87.0303 17.3647C87.0079 17.7025 87.0077 17.9084 87.0297 18.2302C87.0455 18.4624 87.0815 18.785 87.1096 18.947C87.1378 19.1091 87.1985 19.3992 87.2446 19.5918C87.2908 19.7844 87.3697 20.0653 87.42 20.2159C87.4703 20.3666 87.5566 20.5963 87.6118 20.7264C87.667 20.8565 87.76 21.0582 87.8185 21.1747C87.877 21.2911 87.977 21.4744 88.0407 21.582C88.1045 21.6896 88.2227 21.876 88.3035 21.9961C88.3842 22.1162 88.5421 22.3307 88.6543 22.4728C88.7665 22.6148 89.0221 22.8944 89.2222 23.0941C89.4224 23.2938 89.7038 23.5508 89.8477 23.6651C89.9915 23.7795 90.2541 23.9681 90.4314 24.0844C90.6086 24.2006 90.9 24.3715 91.0788 24.4642C91.2577 24.5569 91.5273 24.6828 91.678 24.7441C91.8286 24.8054 92.0976 24.9008 92.2756 24.9562C92.4537 25.0116 92.7338 25.0845 92.8982 25.1183C93.0626 25.1521 93.3483 25.2001 93.5332 25.2251C93.7858 25.2591 94.0303 25.2704 94.5168 25.2703C94.9947 25.2703 95.2557 25.2585 95.5129 25.2254C95.7047 25.2007 95.9904 25.153 96.148 25.1195C96.3055 25.0859 96.5958 25.0074 96.7931 24.945C96.9904 24.8825 97.2817 24.7757 97.4405 24.7076C97.5993 24.6395 97.8572 24.5166 98.0137 24.4345C98.1701 24.3523 98.439 24.1918 98.6113 24.0776C98.7836 23.9635 99.0399 23.7787 99.1808 23.6671C99.3218 23.5554 99.5673 23.3383 99.7265 23.1847C99.8858 23.0311 100.13 22.7688 100.269 22.6019C100.408 22.435 100.612 22.1661 100.721 22.0043C100.831 21.8424 100.984 21.5979 101.061 21.4609C101.139 21.3238 101.263 21.0758 101.337 20.9097C101.412 20.7437 101.523 20.4636 101.584 20.2873C101.645 20.1111 101.724 19.8604 101.758 19.7303C101.793 19.6002 101.844 19.3705 101.872 19.2198C101.9 19.0692 101.935 18.8394 101.95 18.7093C101.965 18.5792 101.984 18.2596 101.992 17.9992C102.002 17.7037 101.996 17.3853 101.977 17.1525C101.96 16.9473 101.918 16.6281 101.885 16.4432C101.851 16.2583 101.796 16.005 101.762 15.8803C101.728 15.7556 101.663 15.5427 101.617 15.4072C101.571 15.2716 101.492 15.0599 101.441 14.9366C101.39 14.8134 101.27 14.5588 101.175 14.3709C101.079 14.1831 100.891 13.8637 100.756 13.6612C100.621 13.4587 100.434 13.1978 100.341 13.0814C100.247 12.965 100.053 12.7476 99.9088 12.5983C99.7646 12.449 99.5279 12.2249 99.3826 12.1002C99.2373 11.9756 99.03 11.8101 98.9219 11.7325C98.8138 11.6548 98.6077 11.5169 98.4639 11.4259C98.3201 11.3349 98.0455 11.1834 97.8538 11.0892C97.662 10.995 97.3875 10.8736 97.2437 10.8195C97.0998 10.7654 96.8701 10.6867 96.7332 10.6447C96.5962 10.6026 96.3665 10.5397 96.2227 10.5048C96.0788 10.4699 95.7987 10.412 95.6001 10.3762C95.2929 10.3207 95.1536 10.3099 94.6663 10.3036C94.3512 10.2995 94.0039 10.3062 93.8943 10.3184ZM26.091 18.0183L26.0834 25.296L26.0305 25.5086C26.0014 25.6255 25.9315 25.821 25.8752 25.943C25.8188 26.065 25.7124 26.2449 25.6387 26.3428C25.5651 26.4406 25.4449 26.5716 25.3717 26.6338C25.2984 26.696 25.1688 26.7917 25.0835 26.8465C24.9982 26.9014 24.8575 26.9746 24.7707 27.0094C24.6838 27.0441 24.5272 27.0903 24.4225 27.1119C24.3178 27.1335 24.1261 27.1512 23.9966 27.1512C23.8672 27.1512 23.6745 27.1346 23.5685 27.1143C23.4624 27.094 23.355 27.0709 23.3297 27.0629C23.2853 27.0488 23.2837 27.0983 23.2837 28.4577C23.2837 29.7766 23.2865 29.8683 23.3273 29.885C23.3512 29.8949 23.6622 29.9026 24.0183 29.9021C24.6263 29.9014 24.685 29.8972 24.9816 29.8338C25.1553 29.7967 25.4221 29.7219 25.5745 29.6675C25.7268 29.6132 25.9769 29.5078 26.1302 29.4334C26.2835 29.359 26.5154 29.2281 26.6455 29.1425C26.7756 29.0569 26.9605 28.9222 27.0564 28.8431C27.1523 28.7641 27.3324 28.5948 27.4568 28.467C27.5811 28.3391 27.7281 28.1784 27.7835 28.11C27.8389 28.0415 27.9586 27.8716 28.0497 27.7324C28.1407 27.5933 28.2757 27.3523 28.3496 27.197C28.4236 27.0417 28.518 26.8138 28.5595 26.6905C28.601 26.5673 28.6577 26.3768 28.6855 26.2672C28.7134 26.1576 28.7555 25.9727 28.7791 25.8563C28.8191 25.6592 28.8226 25.131 28.8299 18.1926L28.8377 10.7406H27.4682H26.0986L26.091 18.0183ZM32.4478 17.8253V24.91H33.7925H35.1372V17.8253V10.7406H33.7925H32.4478V17.8253ZM48.0864 18.0211V25.3021L48.0255 25.5423C47.992 25.6744 47.9185 25.8748 47.8621 25.9875C47.8058 26.1002 47.6959 26.2758 47.6181 26.3776C47.5402 26.4794 47.3924 26.6297 47.2896 26.7115C47.1869 26.7934 47.0243 26.8976 46.9285 26.9431C46.8326 26.9887 46.6645 27.0496 46.5549 27.0785C46.4305 27.1113 46.2436 27.1358 46.0569 27.1437C45.8267 27.1534 45.7209 27.1468 45.5962 27.1148C45.5072 27.092 45.4126 27.0713 45.386 27.0687C45.3497 27.0652 45.3325 27.0859 45.3169 27.1512C45.3056 27.1992 45.295 27.7819 45.2934 28.4461C45.2919 29.1104 45.2986 29.6931 45.3083 29.7411C45.318 29.789 45.3315 29.8478 45.3383 29.8718C45.3495 29.9116 45.3979 29.9154 45.8984 29.9154C46.2713 29.9154 46.5352 29.9025 46.7247 29.8751C46.8779 29.853 47.1086 29.8084 47.2375 29.776C47.3664 29.7435 47.6205 29.6568 47.8022 29.5833C47.9839 29.5097 48.2371 29.3915 48.3648 29.3205C48.4925 29.2496 48.6976 29.1195 48.8206 29.0314C48.9437 28.9433 49.1499 28.7732 49.2789 28.6534C49.408 28.5336 49.5956 28.337 49.6958 28.2165C49.7961 28.0961 49.9334 27.9157 50.0009 27.8156C50.0684 27.7156 50.1761 27.5392 50.2403 27.4236C50.3044 27.308 50.4052 27.1008 50.4642 26.9631C50.5233 26.8254 50.6057 26.5987 50.6473 26.4594C50.689 26.3201 50.749 26.063 50.7806 25.888L50.8381 25.5699V18.1615V10.753L49.4623 10.7466L48.0864 10.7402V18.0211ZM81.5293 12.5522C81.5287 13.5486 81.5259 16.8684 81.5231 19.9295L81.5178 25.4952L81.4589 25.6695C81.4266 25.7654 81.3664 25.9111 81.3253 25.9933C81.2841 26.0754 81.2027 26.2099 81.1443 26.2921C81.0859 26.3743 80.9713 26.505 80.8897 26.5827C80.8081 26.6603 80.672 26.7687 80.5872 26.8235C80.5024 26.8782 80.3484 26.9583 80.2449 27.0014C80.1415 27.0445 79.9727 27.0958 79.87 27.1155C79.7672 27.1351 79.5786 27.1512 79.4509 27.1512C79.3232 27.1512 79.132 27.1346 79.026 27.1143C78.92 27.094 78.8125 27.0709 78.7872 27.0629C78.7429 27.0488 78.7412 27.0986 78.7412 28.4658V29.8834L78.8943 29.8994C78.9785 29.9082 79.2519 29.9154 79.5019 29.9154C79.8438 29.9154 80.0296 29.9029 80.2516 29.8651C80.4138 29.8375 80.6504 29.7867 80.7772 29.7522C80.904 29.7178 81.0945 29.6549 81.2005 29.6126C81.3066 29.5702 81.511 29.4766 81.6548 29.4044C81.7986 29.3322 82.0171 29.2068 82.1404 29.1257C82.2637 29.0445 82.4694 28.8901 82.5976 28.7826C82.7258 28.675 82.9258 28.4802 83.0419 28.3497C83.1581 28.2192 83.3172 28.0223 83.3956 27.912C83.4739 27.8017 83.5868 27.628 83.6464 27.5258C83.706 27.4237 83.8015 27.2388 83.8585 27.1149C83.9156 26.9911 83.9915 26.8057 84.0273 26.703C84.0631 26.6003 84.1152 26.4321 84.1432 26.3293C84.1711 26.2265 84.2165 25.9967 84.244 25.8188C84.2931 25.5004 84.2939 25.3769 84.2942 18.1179L84.2944 10.7406H82.9124H81.5303L81.5293 12.5522ZM62.1211 13.0896C62.2867 13.1238 62.5258 13.1864 62.6525 13.2289C62.7792 13.2713 62.9641 13.3436 63.0635 13.3895C63.1629 13.4355 63.3665 13.5431 63.5158 13.6288C63.6652 13.7145 63.8658 13.8421 63.9617 13.9124C64.0575 13.9826 64.2328 14.1265 64.3511 14.2322C64.4694 14.3378 64.6513 14.5257 64.7554 14.6497C64.8595 14.7737 65.0105 14.9732 65.0911 15.093C65.1716 15.2129 65.289 15.4061 65.352 15.5225C65.4149 15.6389 65.5166 15.854 65.578 16.0005C65.6394 16.147 65.7234 16.3878 65.7646 16.5356C65.8059 16.6834 65.8569 16.9426 65.8781 17.1116C65.8992 17.2807 65.9163 17.6057 65.9161 17.8338C65.9158 18.062 65.8993 18.3632 65.8794 18.5031C65.8595 18.6431 65.8267 18.828 65.8066 18.914C65.7864 19 65.7406 19.1601 65.7048 19.2696C65.6689 19.3792 65.5997 19.5623 65.5508 19.6764C65.5019 19.7906 65.4045 19.9894 65.3344 20.1182C65.2642 20.2469 65.1373 20.4505 65.0523 20.5705C64.9673 20.6905 64.8104 20.8866 64.7036 21.0063C64.5969 21.1261 64.4199 21.303 64.3103 21.3994C64.2007 21.4959 64.0134 21.644 63.8941 21.7285C63.7747 21.813 63.5749 21.9407 63.4501 22.0121C63.3253 22.0835 63.1148 22.1868 62.9823 22.2415C62.8499 22.2962 62.6667 22.3649 62.5753 22.3942C62.484 22.4235 62.3159 22.4699 62.2018 22.4974C62.0877 22.525 61.8767 22.5633 61.7329 22.5827C61.5891 22.6021 61.3146 22.618 61.1228 22.618C60.9311 22.618 60.6565 22.6021 60.5127 22.5827C60.3689 22.5633 60.1728 22.5292 60.0769 22.507C59.981 22.4847 59.8017 22.4349 59.6785 22.3962C59.5552 22.3575 59.3932 22.3014 59.3184 22.2715C59.2437 22.2417 59.07 22.1609 58.9324 22.0921C58.7949 22.0233 58.5759 21.8963 58.4458 21.8097C58.3157 21.7232 58.1007 21.5616 57.968 21.4506C57.8353 21.3395 57.6407 21.1508 57.5356 21.0311C57.4305 20.9115 57.2701 20.7071 57.1792 20.577C57.0883 20.4469 56.9549 20.234 56.8829 20.1039C56.8108 19.9737 56.7078 19.755 56.6541 19.6178C56.6002 19.4805 56.5224 19.2508 56.4811 19.1073C56.4398 18.9637 56.3805 18.7118 56.3495 18.5475C56.3043 18.3079 56.2932 18.1622 56.2935 17.8128C56.2937 17.4721 56.3058 17.3119 56.3486 17.0782C56.3788 16.9139 56.4313 16.6761 56.4652 16.5497C56.4992 16.4234 56.5679 16.2105 56.6179 16.0766C56.6679 15.9427 56.7481 15.755 56.796 15.6596C56.8439 15.5641 56.9287 15.4128 56.9845 15.3234C57.0402 15.2339 57.1624 15.0567 57.256 14.9294C57.3496 14.8022 57.5127 14.6075 57.6185 14.4967C57.7243 14.3859 57.9077 14.214 58.0261 14.1145C58.1446 14.0151 58.356 13.8583 58.4959 13.766C58.6359 13.6738 58.8975 13.5281 59.0774 13.4423C59.2573 13.3566 59.511 13.2524 59.6411 13.2108C59.7712 13.1693 59.9337 13.1227 60.0022 13.1074C60.0707 13.0921 60.2388 13.0636 60.3757 13.0442C60.5538 13.0189 60.7952 13.0115 61.2224 13.0181C61.739 13.0262 61.8609 13.0359 62.1211 13.0896ZM95.1768 13.0979C95.3343 13.1193 95.597 13.1751 95.7606 13.222C95.9242 13.2688 96.1778 13.3577 96.3241 13.4195C96.4705 13.4812 96.7139 13.6024 96.8651 13.6886C97.0162 13.7749 97.2325 13.9117 97.3458 13.9926C97.4589 14.0735 97.6768 14.263 97.8298 14.4137C97.9828 14.5643 98.1776 14.7804 98.2627 14.8938C98.3478 15.0072 98.4714 15.187 98.5374 15.2934C98.6034 15.3999 98.6979 15.5674 98.7475 15.6657C98.797 15.7641 98.8722 15.9316 98.9147 16.038C98.9572 16.1445 99.0232 16.3327 99.0614 16.4563C99.0997 16.58 99.154 16.7929 99.1821 16.9295C99.2102 17.0661 99.2453 17.3388 99.2599 17.5356C99.282 17.8319 99.2798 17.9451 99.2472 18.1955C99.2256 18.3617 99.1806 18.6271 99.1473 18.7853C99.114 18.9434 99.0482 19.1917 99.0011 19.3371C98.954 19.4824 98.863 19.7091 98.7989 19.8407C98.7349 19.9724 98.6222 20.1763 98.5484 20.2937C98.4747 20.4112 98.3389 20.6042 98.2468 20.7227C98.1546 20.8411 97.9723 21.0446 97.8416 21.1748C97.7108 21.305 97.4976 21.4909 97.3677 21.5879C97.2379 21.685 97.0419 21.8186 96.9324 21.8847C96.8228 21.9509 96.6413 22.0475 96.529 22.0995C96.4168 22.1515 96.2095 22.2342 96.0683 22.2833C95.9272 22.3324 95.6437 22.408 95.4382 22.4514C95.0849 22.5258 95.0351 22.5301 94.5168 22.5307C94.089 22.5312 93.9145 22.5213 93.72 22.4854C93.583 22.4601 93.3434 22.4009 93.1874 22.3538C93.0314 22.3067 92.8353 22.2398 92.7516 22.2051C92.6679 22.1704 92.4873 22.0855 92.3503 22.0164C92.2134 21.9474 92.0173 21.8348 91.9146 21.7663C91.8118 21.6979 91.6247 21.5585 91.4988 21.4567C91.3729 21.3549 91.1848 21.1813 91.0809 21.0709C90.9771 20.9605 90.8435 20.807 90.7842 20.7298C90.7248 20.6526 90.6143 20.4942 90.5385 20.3778C90.4627 20.2614 90.3444 20.0541 90.2756 19.9171C90.2068 19.7801 90.1165 19.5784 90.0749 19.4688C90.0334 19.3593 89.9718 19.1737 89.9382 19.0565C89.9045 18.9393 89.8529 18.7009 89.8235 18.5268C89.7834 18.2895 89.7701 18.1058 89.7703 17.792C89.7704 17.5268 89.7854 17.2799 89.8112 17.1174C89.8336 16.9765 89.8894 16.7284 89.9353 16.5662C89.9811 16.4039 90.0597 16.167 90.11 16.0397C90.1603 15.9124 90.2488 15.718 90.3068 15.6078C90.3647 15.4975 90.4746 15.3126 90.551 15.1969C90.6275 15.0811 90.7817 14.8768 90.8938 14.7427C91.0059 14.6087 91.2114 14.3983 91.3504 14.2751C91.4895 14.152 91.7265 13.9687 91.8772 13.8678C92.0279 13.7669 92.2296 13.6429 92.3254 13.5921C92.4213 13.5414 92.6224 13.4501 92.7723 13.3893C92.9222 13.3285 93.1687 13.2462 93.3201 13.2064C93.4716 13.1666 93.7131 13.1167 93.8569 13.0954C94.0007 13.0742 94.1856 13.0529 94.2678 13.048C94.35 13.0431 94.5237 13.0437 94.6538 13.0491C94.7839 13.0546 95.0193 13.0766 95.1768 13.0979Z" fill="black"/>
<path d="M13.1235 0.953871C13.733 0.760056 14.2597 0.592936 14.2939 0.582477L14.3562 0.563477L14.3627 1.6737C14.3663 2.28433 14.3661 7.08707 14.3622 12.3464L14.3551 21.9089L14.2995 22.3572C14.2688 22.6037 14.2213 22.9455 14.1939 23.1167C14.1664 23.2879 14.1265 23.5176 14.1051 23.6272C14.0836 23.7368 14.0326 23.9721 13.9916 24.1502C13.9505 24.3282 13.8792 24.6084 13.833 24.7727C13.7867 24.9371 13.7105 25.1892 13.6636 25.333C13.6167 25.4768 13.5142 25.757 13.4357 25.9556C13.3573 26.1542 13.1783 26.552 13.0381 26.8396C12.8979 27.1272 12.6844 27.5307 12.5636 27.7361C12.4428 27.9415 12.2432 28.2609 12.1201 28.4458C11.9969 28.6307 11.787 28.9277 11.6536 29.1057C11.5202 29.2838 11.2897 29.5751 11.1415 29.7532C10.9933 29.9312 10.6138 30.3357 10.2982 30.6519C9.9826 30.9681 9.57869 31.3475 9.40064 31.4948C9.22258 31.6422 8.94253 31.8641 8.77833 31.9879C8.6141 32.1117 8.30593 32.3279 8.09351 32.4683C7.88107 32.6087 7.55599 32.8098 7.3711 32.9152C7.1862 33.0205 6.84441 33.2 6.61157 33.3139C6.37874 33.4279 6.00333 33.5939 5.77734 33.6828C5.55136 33.7717 5.20653 33.8964 5.01105 33.9598C4.81557 34.0232 4.47938 34.1192 4.26398 34.1731C4.04857 34.227 3.68742 34.3042 3.46143 34.3448C3.23544 34.3853 2.86003 34.4413 2.6272 34.4694C2.39436 34.4975 2.04697 34.5325 1.85522 34.5473C1.66348 34.5621 1.16762 34.5809 0.753296 34.5892L0 34.6042V33.2246L2.49024e-05 31.845L0.778198 31.844C1.36557 31.8432 1.64495 31.8322 1.91748 31.7988C2.11608 31.7746 2.40716 31.7327 2.56434 31.7059C2.72155 31.6791 2.97929 31.6282 3.1371 31.5928C3.29493 31.5575 3.55855 31.4896 3.7229 31.4419C3.88726 31.3942 4.14544 31.3125 4.29663 31.2605C4.44783 31.2083 4.69997 31.1131 4.85693 31.0489C5.01391 30.9847 5.28801 30.8609 5.46607 30.7739C5.64412 30.6868 5.92987 30.5351 6.10108 30.4368C6.27228 30.3384 6.53002 30.179 6.67383 30.0825C6.81764 29.9861 7.04176 29.8288 7.17188 29.7331C7.30199 29.6374 7.53732 29.4524 7.69483 29.3221C7.85233 29.1917 8.17233 28.8936 8.40591 28.6596C8.6395 28.4256 8.93733 28.1053 9.06772 27.9478C9.19811 27.7903 9.37357 27.5701 9.45764 27.4586C9.54168 27.3471 9.71538 27.095 9.8436 26.8983C9.97185 26.7017 10.1277 26.4511 10.1901 26.3416C10.2524 26.232 10.382 25.9852 10.4781 25.7931C10.5742 25.6011 10.7257 25.2593 10.8148 25.0336C10.9038 24.808 11.0292 24.4608 11.0934 24.2622C11.1575 24.0636 11.2537 23.7218 11.307 23.5026C11.3603 23.2834 11.4275 22.9641 11.4565 22.7929C11.4854 22.6218 11.5272 22.3528 11.5493 22.1953C11.5857 21.9363 11.5903 20.9308 11.5975 11.6728L11.6055 1.4367L11.8105 1.37146L13.1235 0.953871Z" fill="#962BFF"/>
<path d="M7.85047 2.62591C8.21001 2.51218 8.81232 2.32016 9.18897 2.19919C9.56561 2.07819 9.8878 1.97818 9.90491 1.97691C9.92976 1.97509 9.93596 3.89611 9.93569 11.506C9.93549 17.372 9.92598 21.2241 9.91098 21.523C9.89756 21.79 9.86312 22.1486 9.83441 22.3198C9.8057 22.491 9.74459 22.7768 9.69862 22.9548C9.65262 23.1329 9.5686 23.4187 9.5119 23.5899C9.4552 23.7611 9.35818 24.0291 9.29632 24.1856C9.23446 24.342 9.12686 24.5885 9.05718 24.7334C8.98753 24.8783 8.86409 25.1145 8.78286 25.2583C8.70163 25.4021 8.53125 25.6767 8.40419 25.8684C8.27717 26.0602 8.05212 26.3683 7.9041 26.5532C7.75608 26.7381 7.45514 27.069 7.23535 27.2884C7.01554 27.5079 6.68441 27.8086 6.49951 27.9567C6.31461 28.1048 6.00645 28.33 5.8147 28.4571C5.62295 28.5843 5.37622 28.7397 5.26642 28.8025C5.1566 28.8652 4.90447 28.9944 4.70612 29.0895C4.50775 29.1846 4.239 29.3041 4.10889 29.3552C3.97877 29.4062 3.75465 29.4865 3.61084 29.5335C3.46703 29.5805 3.20369 29.657 3.02564 29.7036C2.84758 29.75 2.58272 29.8107 2.43707 29.8383C2.29141 29.8659 2.01126 29.9065 1.81451 29.9283C1.61776 29.9502 1.13632 29.9745 0.744655 29.9824L0.0325225 29.9966L0.0165352 29.8998C0.00774463 29.8465 0.00042334 29.2188 0.000273926 28.5048L0 27.2066L0.728394 27.1936C1.28185 27.1838 1.53752 27.1685 1.79297 27.1299C1.97787 27.1019 2.23001 27.0557 2.35327 27.0272C2.47654 26.9986 2.66704 26.9461 2.77661 26.9104C2.88618 26.8748 3.04307 26.8179 3.12524 26.784C3.20742 26.7502 3.40913 26.655 3.57349 26.5725C3.73784 26.4901 3.97817 26.3561 4.10754 26.2748C4.23691 26.1935 4.44868 26.0464 4.5781 25.9479C4.70754 25.8494 4.90985 25.6794 5.02768 25.5702C5.14552 25.4609 5.31653 25.2928 5.40769 25.1966C5.49884 25.1004 5.63677 24.9444 5.71422 24.8498C5.79164 24.7552 5.92654 24.5752 6.01399 24.4498C6.10145 24.3244 6.2405 24.108 6.32301 23.9691C6.40548 23.8302 6.52227 23.6124 6.58254 23.4851C6.64278 23.3578 6.73327 23.1436 6.78362 23.0092C6.83395 22.8747 6.90774 22.6282 6.94756 22.4613C6.98737 22.2945 7.04283 22.0086 7.07075 21.8261C7.09869 21.6436 7.13846 21.3255 7.15915 21.1191C7.19195 20.7922 7.19678 19.5949 7.19678 11.7883V2.83268L7.85047 2.62591Z" fill="#962BFF"/>
<path d="M3.65843 3.90537C4.13217 3.77065 4.72709 3.60119 4.98047 3.5288C5.23385 3.45641 5.46121 3.39647 5.48574 3.39562C5.5285 3.39413 5.52969 3.7458 5.51547 12.1036C5.50693 17.123 5.49069 20.961 5.47715 21.1619C5.46054 21.4085 5.43182 21.5933 5.37908 21.7934C5.33807 21.949 5.26411 22.1787 5.2147 22.3039C5.16532 22.4291 5.06915 22.637 5.00099 22.766C4.93286 22.895 4.81567 23.0928 4.74059 23.2056C4.66548 23.3185 4.51519 23.5173 4.4066 23.6474C4.298 23.7775 4.12216 23.9645 4.01583 24.0629C3.90949 24.1613 3.72166 24.3176 3.59839 24.4101C3.47512 24.5027 3.27772 24.6362 3.15973 24.7068C3.04175 24.7774 2.84004 24.8837 2.71149 24.9429C2.58295 25.0022 2.39374 25.0799 2.29102 25.1157C2.18829 25.1515 2.01901 25.2039 1.91482 25.2323C1.81062 25.2606 1.61452 25.2946 1.47903 25.3078C1.34353 25.321 0.990341 25.332 0.694153 25.3324C0.397964 25.3327 0.120627 25.326 0.0778198 25.3175L0 25.3019V23.9105C0 23.0608 0.00908936 22.5191 0.0233584 22.5191C0.036208 22.5191 0.123042 22.5372 0.216352 22.5593C0.324378 22.585 0.499018 22.5999 0.697266 22.6003C0.938071 22.6008 1.05556 22.5887 1.21616 22.5468C1.33033 22.517 1.49671 22.4596 1.58586 22.4192C1.67501 22.3788 1.818 22.2957 1.90359 22.2346C1.98917 22.1736 2.13657 22.0403 2.23113 21.9386C2.32571 21.8368 2.44068 21.6908 2.48662 21.6141C2.53257 21.5374 2.59659 21.4091 2.62889 21.3291C2.66121 21.2492 2.70427 21.1199 2.72462 21.0418C2.75676 20.9184 2.76389 19.8103 2.77933 12.5251L2.79708 4.15031L3.65843 3.90537Z" fill="#962BFF"/>
</g>
<defs>
<clipPath id="clip0_1503_168">
<rect width="102" height="34.0723" fill="white" transform="translate(0 0.563477)"/>
</clipPath>
</defs>
</svg>
