<svg width="113" height="21" viewBox="0 0 113 21" fill="none" xmlns="http://www.w3.org/2000/svg">
<g clip-path="url(#clip0_1503_376)">
<path d="M9.64453 0.713653C10.83 0.307442 12.2213 0.753751 12.9657 1.7562C14.0431 3.2224 15.0804 4.71823 16.1526 6.18966C17.3312 5.00764 18.4835 3.79772 19.7039 2.66103C20.6994 3.90407 21.5746 5.23951 22.4986 6.53485C22.7688 6.78764 22.4655 7.04567 22.2842 7.22872C20.3054 9.20225 18.3319 11.1845 16.3549 13.1598C15.8998 13.7107 14.92 13.7438 14.5051 13.1284C12.7739 10.7277 11.0689 8.30963 9.3499 5.90025C8.96984 5.35109 8.44508 4.89083 7.81745 4.65198C7.16194 4.35561 6.42797 4.51774 5.73584 4.42534C5.97817 3.70358 6.66856 3.28865 7.15322 2.74297C7.93775 2.0212 8.58978 1.05885 9.64453 0.713653V0.713653ZM26.2521 3.57631C30.3753 3.59374 34.4984 3.57108 38.6215 3.58851C38.6111 4.49333 38.6215 5.39641 38.6111 6.30124C37.185 6.3117 35.7606 6.29426 34.3362 6.30647C34.3171 9.99375 34.3415 13.6793 34.324 17.3666C33.0357 17.3753 31.7456 17.3596 30.4572 17.377C30.4729 13.6863 30.4502 9.99549 30.4694 6.30298C29.0729 6.30472 27.6765 6.29252 26.2818 6.31344C26.212 5.40339 26.2591 4.48985 26.2521 3.57631V3.57631ZM42.2042 3.58503C43.7663 3.57631 45.3266 3.59026 46.887 3.57631C48.7071 8.17016 50.5202 12.7657 52.3211 17.3648C50.8776 17.3683 49.4358 17.3805 47.9923 17.3579C47.6924 16.4321 47.3734 15.5133 47.0421 14.5998C45.2063 14.5963 43.3723 14.5946 41.5382 14.6033C41.2174 15.5255 40.9141 16.453 40.5881 17.3735C39.3119 17.3735 38.0375 17.3544 36.7631 17.384C38.571 12.7814 40.3928 8.18585 42.2042 3.58503V3.58503ZM42.4396 12.0527C43.6843 12.0771 44.9309 12.0632 46.1774 12.0562C45.5689 10.1315 45.0076 8.19282 44.38 6.27509C43.6652 8.17713 43.0776 10.1245 42.4396 12.0527ZM53.8483 3.57457C55.1332 3.5798 56.4181 3.58328 57.7047 3.57457C57.6978 7.27405 57.6855 10.9735 57.71 14.6713C59.7776 14.687 61.847 14.6486 63.9147 14.6887C63.9077 15.5813 63.9199 16.4739 63.913 17.3666C60.5587 17.3753 57.2044 17.3526 53.8501 17.3805C53.8571 12.778 53.8588 8.17713 53.8483 3.57457V3.57457ZM65.5326 3.57631C66.8192 3.58154 68.1041 3.59026 69.3907 3.57282C69.3924 7.27056 69.3907 10.97 69.3925 14.6678C71.4671 14.6817 73.5417 14.666 75.6164 14.673C75.6111 15.5709 75.6111 16.4687 75.6094 17.3666C72.2516 17.3753 68.8938 17.3561 65.5361 17.377C65.5291 12.7762 65.5361 8.17713 65.5326 3.57631V3.57631ZM77.0477 3.5798C78.3744 3.58154 79.7029 3.58328 81.0296 3.57457C81.0279 8.1719 81.0331 12.771 81.0279 17.3701C79.6994 17.3735 78.3727 17.3561 77.0442 17.3788C77.0494 12.7797 77.0425 8.17887 77.0477 3.5798V3.5798ZM83.5663 3.57805C85.3341 3.58328 87.1001 3.58154 88.8679 3.58154C90.4387 6.9829 91.9258 10.4226 93.5385 13.8031C93.481 10.3965 93.5123 6.98813 93.4827 3.58154C94.6054 3.58677 95.7299 3.56062 96.8544 3.58154C96.8335 8.17713 96.837 12.7727 96.8544 17.3666C95.1267 17.3788 93.399 17.3509 91.6731 17.3823C90.0674 13.8589 88.5681 10.2866 86.9362 6.77544C86.9206 10.3058 86.9624 13.8379 86.9537 17.3683C85.8222 17.3735 84.6925 17.3701 83.561 17.3666C83.5767 12.771 83.5645 8.17364 83.5663 3.57805V3.57805ZM99.6961 3.58154C100.981 3.57456 102.266 3.592 103.551 3.56933C103.556 5.5847 103.526 7.60007 103.563 9.61543C105.048 7.62622 106.499 5.61085 107.951 3.59549C109.47 3.56933 110.988 3.58154 112.507 3.58328C110.955 5.63003 109.321 7.61401 107.77 9.66076C109.48 12.2305 111.192 14.7968 112.902 17.3666C111.312 17.3718 109.721 17.3701 108.131 17.3648C106.633 14.9171 105.116 12.4816 103.568 10.067C103.523 12.5025 103.553 14.938 103.553 17.3735C102.268 17.3666 100.985 17.3718 99.6996 17.3666C99.6787 12.7727 99.6874 8.17713 99.6961 3.58154V3.58154Z" fill="#04529C"/>
<path d="M3.95228 6.50791C5.19706 6.08078 6.60573 6.71363 7.32575 7.76664C9.06217 10.2109 10.7812 12.6656 12.5193 15.1081C12.9482 15.7218 13.4747 16.3163 14.2017 16.569C14.8677 16.855 15.6016 16.7207 16.3025 16.8027C16.1003 17.4059 15.572 17.7894 15.1484 18.2305C14.5155 18.818 13.9594 19.4857 13.2916 20.0384C12.3764 20.795 10.9869 20.9118 9.96525 20.3017C9.44746 20.0175 9.05345 19.5642 8.72047 19.0848C6.98927 16.6283 5.24588 14.1806 3.51817 11.7224C3.13463 11.175 2.59592 10.7304 1.97004 10.4916C1.34416 10.258 0.665977 10.3225 0.0122038 10.3068C0.00871698 10.2109 0.00348679 10.0191 0 9.92322C0.777555 9.11952 1.58649 8.34545 2.36404 7.54C2.80512 7.08149 3.3264 6.67354 3.95228 6.50791V6.50791Z" fill="#EE4035"/>
</g>
<defs>
<clipPath id="clip0_1503_376">
<rect width="112.903" height="20.1291" fill="white" transform="translate(0 0.563477)"/>
</clipPath>
</defs>
</svg>
