<svg width="139" height="30" viewBox="0 0 139 30" fill="none" xmlns="http://www.w3.org/2000/svg">
<path d="M72.2492 13.5861C72.2821 10.7952 74.1372 8.61169 77.0102 8.61169C79.3907 8.61169 81.1966 10.0564 81.328 12.2235H79.9325C79.7847 10.828 78.6191 9.89224 77.0431 9.89224C74.9417 9.89224 73.7104 11.7146 73.7104 13.5861C73.7104 15.5562 75.0237 17.2964 77.0431 17.2964C78.6027 17.2964 79.7848 16.377 79.9653 14.8174H81.3444C81.1638 17.0666 79.5713 18.577 76.9774 18.577C73.9895 18.577 72.2492 16.1472 72.2492 13.5861ZM83.0189 13.5861C83.0189 10.7295 85.0054 8.61169 87.862 8.61169C90.85 8.61169 92.6887 10.9101 92.6887 13.5861C92.6887 16.4591 90.735 18.5605 87.8784 18.5605C84.8905 18.577 83.0189 16.3114 83.0189 13.5861ZM91.2604 13.5861C91.2604 11.5011 89.8978 9.87582 87.862 9.87582C85.7278 9.87582 84.4472 11.6653 84.4472 13.5861C84.4472 15.6383 85.7606 17.2964 87.862 17.2964C90.0127 17.3128 91.2604 15.4905 91.2604 13.5861ZM94.7573 18.3635V8.84153H97.1049L99.6332 16.4427L99.7645 17.4934H99.9615L100.093 16.4427L102.621 8.84153H104.985V18.3635H103.573V9.79373H103.376L103.196 11.419L100.864 18.3635H98.9108L96.5796 11.419L96.399 9.79373H96.202V18.3635H94.7573ZM121.632 18.3635L120.483 15.0308H116.871L115.722 18.3635H114.179L117.544 8.84153H119.761L123.126 18.3635H121.632ZM117.265 13.816H120.056L118.858 10.3683L118.759 9.56389H118.562L118.48 10.3683L117.265 13.816ZM42.0579 13.5861C42.0579 10.631 44.0936 8.57886 47.0323 8.57886C50.0859 8.57886 52.0068 10.8116 52.0068 13.5861C52.0068 16.5248 49.9382 18.6098 47.0323 18.6098C43.9459 18.6098 42.0579 16.4099 42.0579 13.5861ZM49.6755 13.5861C49.6755 11.9772 48.6412 10.6146 47.0323 10.6146C45.3085 10.6146 44.3892 12.0921 44.3892 13.5861C44.3892 15.2278 45.3578 16.5576 47.0323 16.5576C48.7726 16.5576 49.6755 15.0965 49.6755 13.5861ZM53.5664 8.84153H55.8156V14.7682C55.8156 15.8517 56.4887 16.5412 57.5394 16.5412C58.5901 16.5412 59.2468 15.8681 59.2468 14.7682V8.84153H61.4795V14.8502C61.4795 17.1815 59.887 18.6098 57.523 18.6098C55.1096 18.6098 53.55 17.1979 53.55 14.8502V8.84153H53.5664ZM68.8016 18.3635L66.7659 14.6697H65.8465V18.3635H63.6138V8.84153H67.7017C69.5075 8.84153 70.8538 9.82657 70.8538 11.616C70.8538 13.1921 70.0001 14.1279 68.3091 14.2428V14.407L69.3105 14.5876L71.412 18.3635H68.8016ZM65.8301 10.7788V12.913H67.3897C68.0792 12.913 68.5882 12.5026 68.5882 11.8295C68.5882 11.1235 68.03 10.7788 67.3897 10.7788H65.8301ZM33.603 8.84153V10.8773H37.576V11.0907L36.4268 11.2713V18.3635H38.6431V10.8773H41.4669V8.84153H33.603ZM111.01 8.84153H107.661V18.3635H109.106V14.6368H111.01C112.8 14.6368 114.162 13.4548 114.162 11.731C114.162 9.81015 112.734 8.85795 111.01 8.84153ZM111.01 13.3399H109.5L109.303 14.1443H109.106V10.1385H111.01C112.045 10.1385 112.767 10.7459 112.767 11.731C112.767 12.7653 111.93 13.3399 111.01 13.3399ZM127.28 8.62811C125.589 8.62811 124.013 9.74448 124.013 11.5011C124.013 12.9787 125.146 13.7503 126.492 14.0294L127.543 14.2592C128.347 14.4398 129.184 14.8502 129.184 15.7696C129.184 16.886 128.265 17.3621 127.296 17.3621C126.262 17.3621 125.605 16.9024 125.375 15.8845H123.881C124.078 17.5919 125.408 18.577 127.231 18.577C129.102 18.577 130.629 17.5427 130.629 15.6875C130.629 14.1607 129.545 13.3891 128.134 13.0608L127.099 12.8145C126.262 12.6175 125.458 12.2892 125.458 11.4026C125.458 10.3191 126.344 9.84298 127.231 9.84298C128.134 9.84298 128.757 10.2206 128.954 11.1564H130.432C130.251 9.51464 128.938 8.62811 127.28 8.62811C127.28 8.62811 127.296 8.62811 127.28 8.62811ZM135.341 8.62811C133.65 8.62811 132.074 9.74448 132.074 11.5011C132.074 12.9787 133.206 13.7503 134.553 14.0294L135.603 14.2592C136.408 14.4398 137.245 14.8502 137.245 15.7696C137.245 16.886 136.326 17.3621 135.357 17.3621C134.323 17.3621 133.666 16.9024 133.436 15.8845H131.942C132.139 17.5919 133.469 18.577 135.291 18.577C137.163 18.577 138.69 17.5427 138.69 15.6875C138.69 14.1607 137.606 13.3891 136.194 13.0608L135.16 12.8145C134.323 12.6175 133.518 12.2892 133.518 11.4026C133.518 10.3191 134.405 9.84298 135.291 9.84298C136.194 9.84298 136.818 10.2206 137.015 11.1728H138.493C138.312 9.49822 137.015 8.61169 135.406 8.61169L135.341 8.62811Z" fill="#FF6700"/>
<path d="M23.7363 5.2134C22.3573 3.37467 20.4693 1.92995 18.3022 1.14192C14.7561 -0.204295 10.8323 -0.319216 7.25339 0.96133C4.29828 1.96278 1.91778 4.09702 0.784989 7.03571C-0.807484 11.2385 0.0954643 16.2458 2.83715 19.7591L2.96848 19.9233L3.31325 19.677L3.19832 19.4964C0.768572 15.8682 0.111881 10.943 1.9342 6.93721C2.6073 5.54174 3.60876 4.3597 4.84005 3.47317C5.46391 3.14482 6.13701 2.91498 6.82654 2.75081C7.86082 2.52097 8.91153 2.5538 9.60105 2.63589C10.4219 2.71798 11.2592 2.88215 12.0636 3.12841C10.4876 3.17766 8.55035 3.58809 6.82654 4.91789C6.81012 4.9343 6.48177 5.18056 6.05493 5.60741C6.02209 5.64025 5.23406 6.42827 4.62663 7.44614C3.98635 8.51326 2.90281 11.5997 3.44458 15.6055C3.95352 19.3815 5.69375 22.2381 7.05638 23.9783L7.30264 24.2902L7.94291 23.7813L7.69665 23.4694C6.38327 21.8112 4.72513 19.086 4.24903 15.4906C3.72368 11.5669 4.85647 8.6446 5.33257 7.85657C5.89075 6.93721 6.62953 6.18202 6.64595 6.1656C7.03996 5.77158 7.33547 5.54174 7.33547 5.54174C9.79806 3.65376 12.7203 3.81793 14.1815 4.06419C13.7218 4.52387 13.2785 5.01639 12.8681 5.52533C9.96223 9.16996 9.40405 13.0773 8.9772 15.9503C8.53393 19.0696 8.55035 22.2545 9.05928 25.4394L9.78164 24.832C9.37121 21.8933 9.37121 18.9546 9.78164 16.0816C10.1757 13.3071 10.7338 9.51472 13.4919 6.05068C13.968 5.44324 14.5098 4.86864 15.068 4.34328C17.6619 6.05068 18.7783 8.02075 19.238 9.3998C21.1752 15.113 16.1187 20.9083 14.5262 22.5336C13.8039 23.2724 13.0158 23.9291 12.1786 24.5365V25.5215C13.2457 24.8156 14.2307 23.9947 15.1008 23.0918C16.7754 21.368 22.0782 15.2936 20.0096 9.13712C19.5499 7.80732 18.5649 5.95217 16.365 4.2612C17.3828 4.37612 18.8768 4.70446 20.5185 5.59099C22.1767 6.47753 23.3095 7.64315 24.0482 8.66102C24.5736 10.2535 24.6721 11.9937 24.2452 13.734C23.3423 17.9368 20.0917 21.0068 16.7754 23.5186C14.7068 25.1604 12.4741 26.5558 10.11 27.705V29.1169C12.7696 27.902 15.2978 26.3752 17.5798 24.5693C19.3201 23.2395 21.0767 21.7948 22.4886 20.0874C25.9855 15.9339 27.2168 9.71172 23.7363 5.2134ZM9.68314 1.79861C9.35479 1.76578 8.96078 1.74936 8.51751 1.74936C9.46971 1.48668 10.4712 1.32251 11.4726 1.25684C12.5233 1.38818 13.4099 1.81503 13.9516 2.52097C14.083 2.68514 14.1815 2.88215 14.28 3.07915C12.786 2.38963 11.2428 1.96278 9.68314 1.79861ZM15.1829 3.17766C15.0516 2.75081 14.8546 2.37321 14.5919 2.02845C14.3785 1.74936 14.1322 1.51952 13.8367 1.30609C15.265 1.45385 16.6769 1.79861 18.0067 2.34038C16.8411 2.37321 15.8724 2.76723 15.1829 3.17766ZM20.9125 4.8358C19.1887 3.91643 17.6455 3.55526 16.5455 3.42392C17.0217 3.25974 17.5798 3.12841 18.1873 3.14482C19.4022 3.16124 20.3544 3.65376 21.0767 4.19553C21.7334 4.77013 22.308 5.39399 22.7841 6.09993C22.2423 5.65666 21.6185 5.22981 20.9125 4.8358Z" fill="#FF6700"/>
</svg>
