<svg width="101" height="30" viewBox="0 0 101 30" fill="none" xmlns="http://www.w3.org/2000/svg">
<g clip-path="url(#clip0_1503_447)">
<path fill-rule="evenodd" clip-rule="evenodd" d="M43.9013 7.59024C42.1915 8.04746 41.2062 9.3348 41.2062 11.1112C41.2062 12.2476 41.5254 13.1189 42.1927 13.804C42.7159 14.3411 42.9108 14.4863 44.9794 15.8801C47.1803 17.3632 47.6079 17.9221 47.5346 19.2203C47.4947 19.9248 47.4341 20.113 47.1226 20.4978C46.9217 20.746 46.519 21.0771 46.2277 21.2337C44.9075 21.9431 42.6749 21.0735 42.0214 19.5954C41.8868 19.2909 41.7011 18.8801 41.6088 18.6825C41.5163 18.4848 41.3926 18.1614 41.3337 17.9638C41.2608 17.7188 41.2235 18.2874 41.2165 19.7492L41.2062 21.8939L41.4521 21.6714C41.8567 21.3052 42.4754 21.3735 43.8156 21.9324C44.3788 22.1672 45.9307 22.1426 46.6495 21.8874C47.3745 21.6298 48.2472 20.7917 48.6306 19.9843C49.0495 19.1023 49.0984 17.8701 48.7513 16.9421C48.4116 16.0337 47.4957 15.0692 46.2521 14.3103C44.8016 13.4252 42.9725 12.0018 42.7101 11.5539C42.5354 11.2559 42.465 10.9243 42.4645 10.3985C42.464 9.75249 42.5099 9.60383 42.8347 9.20063C43.9107 7.86455 45.4641 7.88755 46.8221 9.25969C47.3424 9.78531 47.6898 10.4579 48.0078 11.5553C48.1023 11.8816 48.1319 11.5162 48.1415 9.90821C48.1482 8.77168 48.1268 7.84191 48.0938 7.84191C48.0609 7.84191 47.9261 7.94972 47.7944 8.08148C47.478 8.39783 47.3351 8.38609 46.3365 7.96109C45.4348 7.57742 44.4883 7.4332 43.9013 7.59024ZM56.5521 7.67193C55.0057 8.08771 53.3795 9.4196 52.6839 10.8397C52.0294 12.176 51.8408 13.1985 51.8919 15.1346C51.9421 17.0387 52.07 17.6194 52.7391 18.982C53.1436 19.8055 54.1726 20.934 54.9536 21.4105C55.849 21.9569 56.5641 22.1224 57.8244 22.0748C59.2805 22.0198 60.0774 21.6741 61.1796 20.6194C62.1366 19.7037 62.5292 19.0741 63.0225 17.6643C63.404 16.5737 63.4204 16.4541 63.4163 14.7895C63.412 12.988 63.411 12.9833 62.7133 11.094C62.6074 10.8072 62.4415 10.4935 62.3447 10.3966C62.2478 10.2998 62.1686 10.1766 62.1686 10.1229C62.1686 9.93995 60.7926 8.60003 60.2619 8.26619C59.6257 7.86598 58.3381 7.47956 57.677 7.49046C57.4133 7.49477 56.9072 7.57646 56.5521 7.67193ZM0.0831029 7.91845C-0.0393179 8.04087 0.114367 8.20127 0.353938 8.20127C0.628726 8.20127 1.25604 8.90345 1.50831 9.49339C1.61288 9.73799 1.83221 10.3423 1.9956 10.8364C2.15911 11.3304 2.3619 11.8964 2.44623 12.0942C2.53056 12.2918 2.7197 12.7771 2.86668 13.1724C3.35876 14.4956 3.49867 14.8476 3.65247 15.1488C3.73668 15.3135 3.8458 15.6367 3.89516 15.8671C3.94451 16.0974 4.05399 16.4478 4.13844 16.6457C4.22277 16.8435 4.40712 17.302 4.54811 17.6643C4.68897 18.0267 4.84997 18.4309 4.90591 18.5627C4.96184 18.6945 5.12942 19.1527 5.27832 19.5809C5.42733 20.0091 5.59024 20.4141 5.64055 20.4808C5.69086 20.5477 5.79543 20.8542 5.87293 21.1623C6.02506 21.7661 6.42311 22.2643 6.51283 21.9629C6.54002 21.8717 6.73263 21.3286 6.94082 20.7561C7.14901 20.1836 7.36642 19.5638 7.42391 19.3786C7.48141 19.1934 7.6448 18.7454 7.78698 18.383C7.92917 18.0207 8.11879 17.4816 8.20827 17.1852C8.29787 16.8887 8.62345 15.9454 8.93177 15.0889C9.24022 14.2325 9.7789 12.7098 10.129 11.7051C10.8821 9.54418 11.2711 8.78498 11.815 8.41472C12.5299 7.92804 12.3665 7.84191 10.7278 7.84191C9.33485 7.84191 8.76539 7.96924 9.30574 8.15982C9.42517 8.20186 9.67121 8.37328 9.85233 8.54074C10.275 8.93112 10.2815 9.41817 9.87916 10.5371C9.71325 10.9983 9.41954 11.8338 9.22645 12.3938C9.03335 12.9538 8.75976 13.7084 8.61853 14.0708C8.47731 14.4331 8.31811 14.9182 8.26457 15.1488C8.17772 15.5235 7.56802 17.2211 7.29646 17.844C7.23909 17.9758 7.13835 18.2317 7.0727 18.413C7.00718 18.5942 6.89937 18.7424 6.83313 18.7424C6.66663 18.7424 6.31171 18.015 5.89414 16.8181C5.5894 15.9447 5.13853 14.7389 4.17258 12.2141C3.07199 9.33755 3.03725 8.68185 3.9614 8.22462C4.21654 8.09837 4.39095 7.96062 4.3489 7.91845C4.24888 7.81843 0.183124 7.81855 0.0831029 7.91845ZM14.9732 7.96169L14.6737 8.05764L14.9764 8.0695C15.4081 8.08651 15.7871 8.38969 15.9931 8.88272C16.1418 9.23873 16.171 10.2216 16.171 14.8688C16.171 20.1932 16.1608 20.4489 15.9313 20.8988C15.7395 21.2747 15.59 21.3975 15.1827 21.5137L14.6737 21.659L15.033 21.7437C15.2307 21.7903 17.1743 21.8349 19.3524 21.8427C22.3589 21.8535 23.3572 21.8208 23.4984 21.7071C23.6008 21.6248 23.8303 21.0722 24.0083 20.4793C24.1865 19.8863 24.3846 19.2729 24.4485 19.1162C24.5126 18.9594 24.5405 18.8067 24.5106 18.7768C24.426 18.6922 24.0329 19.1295 23.8727 19.4863C23.6536 19.9743 22.865 20.7962 22.4482 20.9706C22.2161 21.0678 21.4998 21.1305 20.5317 21.1382C18.215 21.1568 18.2272 21.158 17.9678 20.8985C17.7419 20.6726 17.7282 20.4993 17.7282 17.868C17.7282 15.8569 17.7683 15.0368 17.872 14.9332C18.0412 14.764 20.2501 14.7433 21.0789 14.9033C21.7147 15.0259 22.2791 15.5775 22.2819 16.0791C22.2829 16.2592 22.3293 16.4786 22.3851 16.5665C22.5655 16.8511 22.6364 16.2481 22.6294 14.49C22.6221 12.6726 22.4907 11.94 22.3353 12.8503C22.2301 13.4662 21.7444 14.0042 21.1942 14.1142C20.9843 14.1562 20.1467 14.1905 19.3326 14.1905C17.8972 14.1905 17.8505 14.1824 17.7864 13.921C17.75 13.7727 17.7355 12.5195 17.7542 11.136L17.7881 8.62051L20.0218 8.58793L22.2555 8.55547L22.6179 8.86033C22.9594 9.14769 23.4779 10.0328 23.4779 10.3283C23.4779 10.4024 23.5388 10.5007 23.6132 10.5467C23.7765 10.6476 23.6387 8.38609 23.461 8.05153C23.3581 7.85784 23.0423 7.84287 19.3112 7.85389C17.09 7.86048 15.1379 7.90899 14.9732 7.96169ZM27.8501 7.95547L27.4907 8.05309L27.8658 8.06734C28.3913 8.08711 28.9574 8.68951 29.0502 9.32725C29.0895 9.59736 29.105 12.2809 29.0847 15.2908L29.0479 20.7633L28.7016 21.1246C28.5113 21.3233 28.1879 21.5254 27.9829 21.5736L27.6105 21.6613L28.0897 21.7522C28.6943 21.8668 30.8062 21.8821 31.5697 21.7775L32.1485 21.6982L31.6102 21.5412C30.7326 21.2853 30.665 21.0302 30.665 17.9725C30.665 15.1449 30.6286 15.2686 31.4602 15.2686C31.7733 15.2686 31.9609 15.3611 32.2175 15.6421C32.4985 15.9497 33.5302 17.5856 34.5883 19.4012C34.7034 19.5989 34.8246 19.7875 34.8575 19.8205C35.0242 19.9871 35.4326 20.6326 35.5032 20.8409C35.5475 20.9715 35.7159 21.2399 35.8776 21.4376C36.1652 21.7891 36.1985 21.7978 37.4227 21.8375C38.1343 21.8606 38.7679 21.8253 38.8919 21.7557C39.0991 21.6394 39.0982 21.6296 38.8704 21.5558C37.8327 21.2195 36.9841 20.5035 36.3401 19.4206C36.1506 19.1019 35.9146 18.7158 35.8158 18.5627C35.653 18.3106 34.6138 16.6231 34.3171 16.1293C34.2503 16.0182 34.1009 15.7868 33.9849 15.6149C33.6951 15.1854 33.813 14.9781 34.5439 14.6321C35.9281 13.9767 36.572 12.9463 36.5792 11.3756C36.5844 10.2409 36.3672 9.73021 35.5273 8.90213C34.65 8.03716 34.1175 7.92013 30.9046 7.88623C29.4223 7.87054 28.0477 7.90168 27.8501 7.95547ZM65.6507 7.95403C65.5241 8.03417 65.5964 8.08447 65.9273 8.14652C66.6125 8.27505 67.5161 9.20806 67.6165 9.89072C67.6591 10.1804 67.677 12.7351 67.6564 15.5681C67.6284 19.4004 67.5807 20.7856 67.4697 20.9795C67.3877 21.1228 67.0976 21.3384 66.8249 21.4586L66.3294 21.6771L66.7944 21.76C67.4055 21.869 68.46 21.8765 69.1863 21.7769L69.769 21.697L69.2929 21.5663C68.9031 21.4592 68.7678 21.3389 68.5472 20.9021C68.2816 20.3765 68.2777 20.3013 68.2795 15.8122C68.2806 13.3062 68.327 11.1838 68.3829 11.0958C68.5272 10.8679 69.0767 11.5531 71.009 14.3702C71.4609 15.029 72.1093 15.9396 72.4499 16.3938C72.7905 16.8479 73.0691 17.2657 73.0691 17.3221C73.0691 17.3785 73.1635 17.5194 73.2787 17.635C73.394 17.7506 73.7809 18.2761 74.1383 18.8029C75.8072 21.2621 76.4278 22.0422 76.5551 21.8411C76.6122 21.7509 76.6598 18.8586 76.6609 15.4135C76.6625 9.37217 76.6713 9.1332 76.9042 8.67669C77.1111 8.27098 77.2178 8.19132 77.6528 8.11801C78.1518 8.03404 78.1542 8.03129 77.8006 7.95139C77.3135 7.84131 75.2511 7.84838 74.806 7.96169L74.4466 8.05309L74.788 8.06734C75.0039 8.07621 75.2793 8.23133 75.5367 8.48875L75.944 8.89602V13.3929C75.944 16.3874 75.9021 17.9155 75.8189 17.967C75.6301 18.0837 75.3997 17.8418 74.6851 16.7775C73.8524 15.5372 73.0896 14.4398 72.4283 13.5309C72.1403 13.1352 71.6107 12.3806 71.2515 11.8539C70.4584 10.6914 69.4806 9.31826 68.8424 8.47078L68.3687 7.84191L67.0954 7.84371C66.395 7.84479 65.7449 7.89438 65.6507 7.95403ZM80.9151 7.95319C80.7037 8.03644 80.7197 8.0574 81.0497 8.13059C81.2556 8.17635 81.5521 8.35004 81.7085 8.51666L81.9931 8.8196V14.8494V20.8792L81.7028 21.1884C81.543 21.3584 81.3171 21.4975 81.2007 21.4975C80.788 21.4975 80.8668 21.7076 81.3068 21.7803C81.9351 21.8842 84.0553 21.8621 84.6284 21.7456L85.1075 21.6483L84.7266 21.5596C84.2707 21.4534 83.9321 21.1049 83.7467 20.5513C83.5586 19.99 83.5569 9.95672 83.7446 9.21094C83.899 8.59799 84.4163 8.08903 84.9071 8.06734C85.2264 8.05321 85.2262 8.05285 84.868 7.96169C84.3899 7.83999 81.2194 7.83316 80.9151 7.95319ZM88.4694 7.94888C88.433 8.00781 88.5422 8.09082 88.7119 8.13335C89.2768 8.27517 89.9159 8.77204 90.5196 9.53879C90.8481 9.95612 91.1534 10.3784 91.1978 10.4772C91.2422 10.576 91.3909 10.8455 91.5283 11.0761C91.9847 11.8424 93.3705 14.201 93.5207 14.4674C93.757 14.8863 93.6992 15.1979 93.2805 15.7604C93.065 16.05 92.7282 16.5293 92.5318 16.8258C92.3355 17.1223 92.1345 17.4188 92.0852 17.4846C92.0357 17.5505 91.8166 17.8739 91.5982 18.2034C90.7537 19.4772 90.444 19.9004 90.0586 20.3071C89.5882 20.8038 88.7052 21.4257 88.2819 21.5587C87.9996 21.6473 87.9962 21.6581 88.222 21.7464C88.5657 21.8806 91.5415 21.8749 91.7556 21.7394C91.8993 21.6486 91.857 21.5984 91.5453 21.4898C91.1451 21.3502 90.9506 20.9732 91.0239 20.4793C91.0781 20.1139 92.7315 17.4942 93.7665 16.1337C94.0427 15.7706 94.0809 15.7553 94.2748 15.9308C94.3901 16.0351 94.6604 16.4544 94.8754 16.8625C95.0905 17.2706 95.3591 17.7392 95.4725 17.9039C95.9566 18.6071 96.7866 20.3363 96.7866 20.6415C96.7866 21.0157 96.4507 21.4341 96.042 21.5691L95.7684 21.6595L96.0679 21.7462C96.4669 21.8617 100.018 21.8646 100.312 21.7496C100.507 21.6731 100.456 21.6171 99.9802 21.387C99.4322 21.1217 98.5134 20.1043 98.2232 19.4416C98.1559 19.2875 97.9967 18.9999 97.8696 18.8023C97.6515 18.463 97.5297 18.2558 97.1303 17.5445C97.0378 17.3798 96.8775 17.1103 96.774 16.9456C96.3355 16.2473 95.3702 14.4689 95.2951 14.2208C95.234 14.0192 95.3405 13.764 95.7199 13.2027C95.9984 12.7907 96.3166 12.3189 96.4267 12.1542C98.4191 9.1762 98.8133 8.70269 99.6279 8.30836C99.9099 8.1718 100.141 8.01105 100.141 7.95103C100.141 7.81292 96.9305 7.82262 96.6069 7.96169C96.3728 8.06231 96.373 8.06483 96.6207 8.07309C96.76 8.07765 97.0161 8.19324 97.1897 8.32979C97.4319 8.52025 97.5053 8.68412 97.5053 9.03378C97.5053 9.29275 97.4277 9.554 97.3257 9.63869C97.2268 9.72074 97.146 9.83873 97.146 9.9009C97.146 9.96319 97.0148 10.186 96.8545 10.3961C96.6943 10.6063 96.4911 10.9126 96.4032 11.077C96.3151 11.2412 95.9534 11.7887 95.5992 12.2936C95.0477 13.0796 94.9193 13.1985 94.7063 13.1197C94.4575 13.0277 94.3773 12.9092 93.7278 11.675C93.5372 11.3127 93.2418 10.8006 93.0716 10.5371C92.9014 10.2736 92.6604 9.82484 92.5362 9.53987C92.3269 9.06037 92.3243 8.99772 92.5005 8.70137C92.6052 8.52516 92.8598 8.29769 93.0664 8.19599C93.2731 8.0943 93.404 7.97307 93.3575 7.92648C93.2328 7.8019 88.5471 7.82334 88.4694 7.94888ZM58.9709 8.43245C59.6509 8.74521 60.553 9.69918 60.7912 10.3574C61.4703 12.2335 61.6084 13.22 61.5291 15.628C61.4693 17.441 61.3305 18.2264 60.9012 19.1797C60.8077 19.3873 60.7312 19.6082 60.7312 19.6706C60.7312 19.9201 59.3247 21.1074 58.7859 21.3127C57.8912 21.6537 56.6257 21.5314 55.9031 21.0342C55.0088 20.419 54.5191 19.6494 54.1313 18.2499C53.7968 17.0431 53.6283 15.2573 53.7199 13.8911C53.9155 10.9723 54.567 9.48213 56.0566 8.54637C56.5309 8.24834 56.7154 8.20558 57.5335 8.20354C58.2076 8.20187 58.6087 8.26583 58.9709 8.43245ZM33.6508 9.03258C35.0704 10.1574 35.1369 12.6673 33.779 13.8736C33.1284 14.4516 32.4484 14.6853 31.5337 14.6452L30.7249 14.6098L30.6928 11.7019L30.6607 8.79408L30.9324 8.67909C31.0818 8.61584 31.6376 8.57679 32.1674 8.59225C33.0646 8.6186 33.1663 8.64878 33.6508 9.03258ZM39.9484 25.7066C40.2778 25.7661 40.8169 25.8937 41.1463 25.99C42.1232 26.2758 42.6529 26.3921 43.6019 26.529C44.5541 26.6664 46.0611 26.9442 46.9559 27.1473C47.2523 27.2145 48.007 27.3444 48.6329 27.4361C49.2587 27.5276 50.2829 27.6854 50.9088 27.7869C51.5347 27.8884 52.6936 28.0474 53.4842 28.1405C54.2748 28.2336 55.3798 28.3663 55.9398 28.4355C56.4998 28.5047 57.7396 28.6185 58.6948 28.6882C59.6501 28.7579 61.0786 28.8629 61.8692 28.9216C66.0681 29.2333 75.8906 29.1643 78.3397 28.8059C78.7679 28.7433 80.0077 28.6339 81.0947 28.5628C82.1818 28.4917 83.3677 28.3836 83.73 28.3223C84.0924 28.2613 84.874 28.1572 85.4669 28.0912C86.0598 28.0252 87.0571 27.8928 87.6829 27.7968C88.3088 27.7009 89.2791 27.5604 89.8391 27.4846C90.3991 27.4089 91.1537 27.2749 91.5161 27.1871C92.2125 27.0185 93.9659 26.7021 94.8701 26.5822C95.5022 26.4984 96.695 26.2366 97.6251 25.9777C97.9875 25.8768 98.5535 25.7502 98.8829 25.6963C99.4384 25.6054 99.4054 25.5973 98.4268 25.5843C97.8466 25.5765 97.1459 25.6204 96.8696 25.6817C96.5934 25.7431 95.3163 25.9058 94.0316 26.0433C92.7469 26.1807 91.3184 26.3465 90.8572 26.4115C89.723 26.5714 85.95 26.8169 77.621 27.2728C74.0525 27.468 64.8203 27.4722 61.4499 27.28C60.0335 27.1992 57.8504 27.0787 56.5986 27.0123C52.4499 26.792 48.7033 26.5343 47.9142 26.4149C47.4859 26.3501 46.0575 26.1854 44.7398 26.0488C43.4222 25.9123 42.1143 25.7488 41.8334 25.6854C41.5523 25.622 40.8786 25.5765 40.336 25.5843C39.3694 25.5982 39.3616 25.6007 39.9484 25.7066Z" fill="black"/>
<path d="M65.1661 3.19886C65.4955 3.29516 66.0345 3.42274 66.3639 3.48227C66.9508 3.58816 66.943 3.59068 65.9763 3.60457C65.4338 3.61236 64.76 3.56684 64.479 3.50347C64.1981 3.44011 62.8901 3.2766 61.5725 3.14005C60.2549 3.00349 58.8264 2.83878 58.3982 2.77398C57.609 2.65455 53.8624 2.39689 49.7137 2.17661C48.462 2.11013 46.2789 1.98963 44.8624 1.90889C41.492 1.71664 32.2598 1.72083 28.6914 1.91608C20.3624 2.37198 16.5893 2.61742 15.4551 2.77734C14.9939 2.84238 13.5655 3.00816 12.2808 3.14556C10.9961 3.28307 9.71893 3.44574 9.44271 3.50719C9.16648 3.56852 8.46574 3.61236 7.8855 3.60458C6.90697 3.59152 6.87391 3.5835 7.42947 3.49258C7.75888 3.43868 8.32487 3.31206 8.68722 3.2112C9.61736 2.95223 10.8102 2.6905 11.4423 2.60665C12.3464 2.48674 14.0998 2.17038 14.7963 2.00172C15.1586 1.91392 15.9133 1.78 16.4733 1.7043C17.0333 1.62848 18.0035 1.48797 18.6294 1.39202C19.2553 1.29607 20.2525 1.1637 20.8454 1.0977C21.4384 1.0317 22.22 0.927608 22.5823 0.866517C22.9447 0.805307 24.1306 0.697145 25.2176 0.626113C26.3047 0.55496 27.5444 0.445592 27.9727 0.382944C30.4217 0.024546 40.2442 -0.0444518 44.4432 0.26723C45.2338 0.325924 46.6622 0.430973 47.6175 0.500688C48.5728 0.570403 49.8126 0.6842 50.3726 0.753317C50.9326 0.822552 52.0376 0.955276 52.8282 1.04835C53.6188 1.14142 54.7777 1.3005 55.4036 1.40196C56.0294 1.50342 57.0536 1.66129 57.6795 1.7528C58.3054 1.84444 59.06 1.97441 59.3565 2.04161C60.2513 2.24465 61.7583 2.52243 62.7105 2.65982C63.6594 2.79674 64.1891 2.91305 65.1661 3.19886Z" fill="black"/>
</g>
<defs>
<clipPath id="clip0_1503_447">
<rect width="100.5" height="29.1079" fill="white" transform="translate(0 0.0634766)"/>
</clipPath>
</defs>
</svg>
