<svg width="60" height="61" viewBox="0 0 60 61" fill="none" xmlns="http://www.w3.org/2000/svg">
<path fill-rule="evenodd" clip-rule="evenodd" d="M24.432 6.19482C24.432 5.67706 24.8517 5.25732 25.3695 5.25732H33.807C34.3248 5.25732 34.7445 5.67706 34.7445 6.19482V10.8823H44.1195C44.6373 10.8823 45.057 11.3021 45.057 11.8198V26.3179C48.9835 29.9989 52.5956 34.0031 54.9147 36.8181C55.1463 37.0992 55.1941 37.489 55.0374 37.8177L47.262 54.1234C47.5589 54.2822 47.8838 54.4252 48.2783 54.5473C49.0161 54.7758 50.0442 54.9448 51.6195 54.9448C53.5247 54.9448 54.9329 54.687 55.9478 54.3411C56.4379 54.1741 56.9706 54.4359 57.1376 54.926C57.3046 55.4161 57.0428 55.9488 56.5527 56.1158C55.3083 56.5399 53.6903 56.8198 51.6195 56.8198C49.9136 56.8198 48.6887 56.6373 47.7237 56.3384C46.7652 56.0416 46.1092 55.6433 45.5502 55.2806C45.5421 55.2755 45.5341 55.2703 45.5262 55.265C45.5247 55.264 45.5231 55.263 45.5215 55.262C45.4701 55.2285 45.4199 55.1957 45.3707 55.1636C44.8789 54.8422 44.4896 54.5879 43.9524 54.3878C43.3729 54.172 42.5773 54.0073 41.307 54.0073C38.7986 54.0073 37.3036 54.6453 35.6892 55.3377L35.6763 55.3432C34.0159 56.0553 32.2334 56.8198 29.3393 56.8198C27.8008 56.8198 26.6642 56.6344 25.7325 56.3356C24.8032 56.0374 24.1189 55.638 23.5166 55.2848L23.5071 55.2793C22.9057 54.9267 22.3935 54.6264 21.7085 54.3991C21.026 54.1725 20.1321 54.0073 18.807 54.0073C16.3778 54.0073 14.5059 54.5615 12.7883 55.1876C12.7825 55.1899 12.7766 55.192 12.7707 55.1941C12.6259 55.247 12.4822 55.3003 12.3393 55.3539C12.1514 55.4243 11.9633 55.496 11.7746 55.5679C10.15 56.1867 8.48806 56.8198 6.6195 56.8198C5.47484 56.8198 4.4353 56.6586 3.50306 56.4038C3.00361 56.2673 2.7094 55.7517 2.84591 55.2523C2.98242 54.7528 3.49796 54.4586 3.99741 54.5951C4.77998 54.809 5.65328 54.9448 6.6195 54.9448C8.12336 54.9448 9.45465 54.4407 11.1313 53.8057C11.143 53.8013 11.1547 53.7969 11.1664 53.7924L3.42034 37.8234C3.25941 37.4916 3.30792 37.0963 3.5443 36.8133C6.19402 33.6407 10.5079 28.9523 15.057 24.9199V11.8198C15.057 11.3021 15.4767 10.8823 15.9945 10.8823H24.432V6.19482ZM26.307 10.8823H32.8695V7.13232H26.307V10.8823ZM16.932 23.3086C18.8601 21.7059 20.808 20.2609 22.6678 19.1425C25.0014 17.7391 27.3184 16.7742 29.3393 16.7742C31.5708 16.7742 34.1616 17.9517 36.7496 19.6202C38.8518 20.9756 41.0462 22.7177 43.182 24.6084V12.7573H16.932V23.3086ZM12.9375 53.1477C14.5664 52.5993 16.4544 52.1323 18.807 52.1323C20.2944 52.1323 21.3927 52.3187 22.2991 52.6195C23.1732 52.9096 23.8316 53.2959 24.4127 53.6367L24.4649 53.6673C25.0619 54.0173 25.5907 54.321 26.3053 54.5502C26.8435 54.7228 27.5107 54.8599 28.4018 54.9166V18.735C27.0619 18.9662 25.4465 19.6594 23.6341 20.7493C21.4042 22.0902 18.9937 23.9586 16.6128 26.0478C12.2529 29.8734 8.06441 34.375 5.3728 37.5523L12.9375 53.1477ZM30.2768 18.7351V54.9131C32.2374 54.7762 33.5476 54.216 34.9502 53.6145L34.9588 53.6108C36.6209 52.8979 38.4061 52.1323 41.307 52.1323C42.7438 52.1323 43.7706 52.3192 44.6069 52.6307C45.0048 52.779 45.3498 52.9528 45.6581 53.1307L53.087 37.5517C50.7439 34.748 47.2428 30.9081 43.4813 27.4119C40.9052 25.0176 38.2284 22.8046 35.7336 21.1961C33.6537 19.8552 31.7953 18.9978 30.2768 18.7351Z" fill="#194F94"/>
</svg>
