<svg width="60" height="61" viewBox="0 0 60 61" fill="none" xmlns="http://www.w3.org/2000/svg">
<path d="M54.0781 56.8197H53.6846L37.8729 50.0328C37.7503 49.9823 37.6391 49.9078 37.5458 49.8136C37.4524 49.7195 37.3787 49.6077 37.3291 49.4847C37.2796 49.3617 37.255 49.2301 37.2569 49.0975C37.2589 48.9649 37.2873 48.834 37.3404 48.7125C37.4474 48.469 37.6452 48.2769 37.8918 48.1774C38.1384 48.0778 38.414 48.0787 38.66 48.1797L53.0595 54.2949V12.7628L37.8729 6.32339C37.7503 6.27284 37.6391 6.19832 37.5458 6.10419C37.4524 6.01007 37.3787 5.89824 37.3291 5.77526C37.2796 5.65228 37.255 5.52063 37.2569 5.38803C37.2589 5.25543 37.2873 5.12455 37.3404 5.00307C37.3887 4.87842 37.4616 4.76477 37.5547 4.6689C37.6478 4.57302 37.7592 4.49687 37.8823 4.445C38.0055 4.39312 38.1378 4.36658 38.2714 4.36695C38.405 4.36732 38.5371 4.39459 38.66 4.44715L54.4485 11.1645C54.6334 11.2387 54.7918 11.3666 54.9032 11.5318C55.0146 11.697 55.074 11.8918 55.0736 12.0911V55.8237C55.0768 55.9912 55.0356 56.1566 54.9543 56.303C54.873 56.4495 54.7544 56.5718 54.6106 56.6576C54.4539 56.765 54.268 56.8216 54.0781 56.8197V56.8197Z" fill="#194F94"/>
<path d="M38.2198 6.39291H22.4312C22.165 6.39297 21.9094 6.28878 21.719 6.10263C21.5286 5.91647 21.4186 5.66315 21.4126 5.39688C21.4126 5.12657 21.5199 4.86734 21.7109 4.6762C21.902 4.48506 22.1611 4.37769 22.4312 4.37769H38.2198C38.4899 4.37769 38.749 4.48506 38.94 4.6762C39.1311 4.86734 39.2384 5.12657 39.2384 5.39688C39.2323 5.66315 39.1223 5.91647 38.932 6.10263C38.7416 6.28878 38.4859 6.39297 38.2198 6.39291V6.39291Z" fill="#194F94"/>
<path d="M38.2198 50.1256H22.4312C22.1611 50.1256 21.902 50.0182 21.7109 49.8271C21.5199 49.6359 21.4126 49.3767 21.4126 49.1064C21.4186 48.8401 21.5286 48.5868 21.719 48.4006C21.9094 48.2145 22.165 48.1103 22.4312 48.1104H38.2198C38.4859 48.1103 38.7416 48.2145 38.932 48.4006C39.1223 48.5868 39.2323 48.8401 39.2384 49.1064C39.2384 49.3767 39.1311 49.6359 38.94 49.8271C38.749 50.0182 38.4899 50.1256 38.2198 50.1256Z" fill="#194F94"/>
<path d="M22.4312 50.1262C22.1611 50.1262 21.902 50.0189 21.7109 49.8277C21.5199 49.6366 21.4126 49.3773 21.4126 49.107V37.9191C21.4126 37.6488 21.5199 37.3896 21.7109 37.1984C21.902 37.0073 22.1611 36.8999 22.4312 36.8999C22.5639 36.8999 22.6953 36.9264 22.8176 36.9779C22.9399 37.0294 23.0507 37.1048 23.1434 37.1998C23.2362 37.2947 23.309 37.4073 23.3576 37.5308C23.4063 37.6543 23.4298 37.7864 23.4267 37.9191V49.107C23.4267 49.3734 23.3226 49.6292 23.1366 49.8197C22.9505 50.0101 22.6973 50.1202 22.4312 50.1262V50.1262Z" fill="#194F94"/>
<path d="M6.62065 56.8197C6.42329 56.8233 6.22949 56.7667 6.06503 56.6575C5.92707 56.5672 5.81433 56.4433 5.73739 56.2975C5.66045 56.1516 5.62186 55.9885 5.6252 55.8236V12.091C5.62587 11.895 5.68299 11.7034 5.78974 11.5391C5.8965 11.3747 6.04835 11.2447 6.2271 11.1645L22.0388 4.3776C22.2838 4.29134 22.5525 4.30199 22.7899 4.40738C23.0274 4.51276 23.2156 4.70492 23.3161 4.94455C23.4166 5.18418 23.4219 5.45319 23.3308 5.69656C23.2396 5.93993 23.0591 6.13928 22.8259 6.25384L7.63927 12.6933V54.2948L22.0388 48.1797C22.1604 48.128 22.291 48.1007 22.4231 48.0995C22.5553 48.0983 22.6863 48.1232 22.8088 48.1726C22.9314 48.2221 23.043 48.2952 23.1373 48.3879C23.2315 48.4805 23.3067 48.5908 23.3584 48.7124C23.41 48.8341 23.4373 48.9648 23.4385 49.097C23.4397 49.2292 23.4149 49.3603 23.3654 49.4829C23.316 49.6056 23.2429 49.7172 23.1503 49.8115C23.0578 49.9059 22.9475 49.9811 22.8259 50.0328L7.0142 56.7502C6.88843 56.7974 6.755 56.821 6.62065 56.8197V56.8197Z" fill="#194F94"/>
<path d="M22.4312 13.2261C22.1611 13.2261 21.902 13.1187 21.7109 12.9276C21.5199 12.7365 21.4126 12.4772 21.4126 12.2069V5.39688C21.4126 5.12657 21.5199 4.86734 21.7109 4.6762C21.902 4.48506 22.1611 4.37769 22.4312 4.37769C22.6973 4.38374 22.9505 4.49378 23.1366 4.68427C23.3226 4.87475 23.4267 5.13054 23.4267 5.39688V12.2069C23.4267 12.4733 23.3226 12.7291 23.1366 12.9195C22.9505 13.11 22.6973 13.2201 22.4312 13.2261V13.2261Z" fill="#194F94"/>
<path d="M38.2208 50.1262C37.9547 50.1202 37.7015 50.0101 37.5155 49.8197C37.3294 49.6292 37.2253 49.3734 37.2254 49.107V37.9191C37.2223 37.7864 37.2457 37.6543 37.2944 37.5308C37.343 37.4073 37.4159 37.2947 37.5086 37.1998C37.6013 37.1048 37.7122 37.0294 37.8345 36.9779C37.9568 36.9264 38.0881 36.8999 38.2208 36.8999C38.491 36.8999 38.7501 37.0073 38.9411 37.1984C39.1321 37.3896 39.2394 37.6488 39.2394 37.9191V49.107C39.2394 49.3773 39.1321 49.6366 38.9411 49.8277C38.7501 50.0189 38.491 50.1262 38.2208 50.1262V50.1262Z" fill="#194F94"/>
<path d="M38.2205 13.2261C37.9544 13.2201 37.7013 13.11 37.5152 12.9195C37.3292 12.7291 37.225 12.4733 37.2251 12.2069V5.39688C37.225 5.13054 37.3292 4.87475 37.5152 4.68427C37.7013 4.49378 37.9544 4.38374 38.2205 4.37769C38.4907 4.37769 38.7498 4.48506 38.9408 4.6762C39.1318 4.86734 39.2392 5.12657 39.2392 5.39688V12.2069C39.2392 12.4772 39.1318 12.7365 38.9408 12.9276C38.7498 13.1187 38.4907 13.2261 38.2205 13.2261V13.2261Z" fill="#194F94"/>
<path d="M30.3955 38.9378C30.2149 38.935 30.0381 38.8843 29.8836 38.7906C29.729 38.697 29.602 38.5639 29.5158 38.405L27.2008 34.2819C25.4877 31.2475 23.8903 28.3984 22.5707 25.4335C21.8777 23.7224 21.7964 21.8243 22.3406 20.0602C22.8847 18.296 24.0209 16.7739 25.5571 15.7512C27.0045 14.7552 28.7199 14.2219 30.4765 14.2219C32.2332 14.2219 33.9486 14.7552 35.396 15.7512C36.9327 16.7787 38.0658 18.3077 38.6019 20.0775C39.138 21.8473 39.0441 23.7484 38.3361 25.4567C36.9702 28.4216 35.3497 31.2707 33.706 34.2819C32.9421 35.6254 32.1781 36.9689 31.391 38.405C31.301 38.5657 31.17 38.6997 31.0114 38.7933C30.8528 38.8869 30.6723 38.9367 30.4881 38.9378H30.3955ZM30.3955 16.2376C29.0547 16.2188 27.7422 16.6242 26.6452 17.3958C25.5123 18.1612 24.6686 19.2846 24.2489 20.5863C23.8292 21.888 23.8578 23.2929 24.3301 24.5764C25.696 27.4719 27.2934 30.2978 28.9602 33.2859L30.3724 35.8339L31.8077 33.2859C33.4977 30.321 35.0719 27.5182 36.4378 24.6228C36.926 23.3338 36.9629 21.9172 36.5424 20.6045C36.1219 19.2918 35.2689 18.1606 34.1228 17.3958C33.0308 16.6316 31.728 16.2268 30.3955 16.2376Z" fill="#194F94"/>
<path d="M30.3962 27.356C29.1846 27.3048 28.0364 26.8003 27.179 25.9423C26.3215 25.0844 25.8173 23.9355 25.7661 22.7233C25.7661 21.4946 26.2539 20.3163 27.1222 19.4475C27.9905 18.5787 29.1682 18.0906 30.3962 18.0906C31.0419 18.0616 31.6866 18.1682 32.2886 18.4036C32.8907 18.639 33.4368 18.9979 33.8919 19.4572C34.3321 19.889 34.6818 20.4044 34.9203 20.9732C35.1588 21.542 35.2814 22.1528 35.2809 22.7696C35.2194 23.9784 34.7119 25.1213 33.8565 25.9771C33.0012 26.8329 31.8589 27.3408 30.6508 27.4023L30.3962 27.356ZM30.3962 20.0132C29.6982 20.0314 29.0353 20.3232 28.5503 20.8258C28.0653 21.3284 27.797 22.0015 27.8033 22.7001C27.8486 23.3975 28.1505 24.0533 28.6507 24.541C29.151 25.0286 29.8141 25.3136 30.5119 25.3407C31.2164 25.303 31.8827 25.0091 32.3857 24.5143C32.8888 24.0195 33.1939 23.3578 33.2437 22.6538C33.2425 22.308 33.1723 21.966 33.0371 21.6477C32.902 21.3295 32.7046 21.0415 32.4566 20.8007C32.1843 20.5368 31.8613 20.3309 31.5071 20.1955C31.153 20.0601 30.775 19.9981 30.3962 20.0132V20.0132Z" fill="#194F94"/>
</svg>
