<svg width="24" height="25" viewBox="0 0 24 25" fill="none" xmlns="http://www.w3.org/2000/svg">
<circle cx="12" cy="12.5698" r="12" fill="#FF5E00"/>
<path d="M12.79 17.0597C12.7677 17.0374 12.75 17.0109 12.7379 16.9818C12.7259 16.9527 12.7196 16.9214 12.7196 16.8899C12.7196 16.8584 12.7259 16.8271 12.7379 16.798C12.75 16.7689 12.7677 16.7424 12.79 16.7201L16.7002 12.8099L6.71983 12.8099C6.65618 12.8099 6.59513 12.7846 6.55013 12.7396C6.50512 12.6946 6.47983 12.6336 6.47983 12.5699C6.47983 12.5062 6.50512 12.4452 6.55013 12.4002C6.59513 12.3552 6.65618 12.3299 6.71983 12.3299L16.7002 12.3299L12.79 8.4197C12.7677 8.3974 12.75 8.37093 12.738 8.34179C12.7259 8.31266 12.7197 8.28143 12.7197 8.2499C12.7197 8.21836 12.7259 8.18714 12.738 8.158C12.75 8.12887 12.7677 8.1024 12.79 8.0801C12.8123 8.0578 12.8388 8.04011 12.8679 8.02804C12.8971 8.01598 12.9283 8.00977 12.9598 8.00977C12.9914 8.00977 13.0226 8.01598 13.0517 8.02804C13.0809 8.04011 13.1073 8.0578 13.1296 8.0801L17.4496 12.4001C17.4719 12.4224 17.4896 12.4489 17.5017 12.478C17.5138 12.5071 17.52 12.5384 17.52 12.5699C17.52 12.6014 17.5138 12.6327 17.5017 12.6618C17.4896 12.6909 17.4719 12.7174 17.4496 12.7397L13.1296 17.0597C13.1073 17.082 13.0809 17.0997 13.0517 17.1118C13.0226 17.1239 12.9914 17.1301 12.9598 17.1301C12.9283 17.1301 12.8971 17.1239 12.8679 17.1118C12.8388 17.0997 12.8123 17.082 12.79 17.0597Z" fill="white"/>
</svg>
