<svg width="60" height="61" viewBox="0 0 60 61" fill="none" xmlns="http://www.w3.org/2000/svg">
<path fill-rule="evenodd" clip-rule="evenodd" d="M28.021 4.31982C28.021 3.80206 28.4407 3.38232 28.9585 3.38232H30.8335C31.3513 3.38232 31.771 3.80206 31.771 4.31982V10.1532C31.771 10.6709 31.3513 11.0907 30.8335 11.0907H28.9585C28.4407 11.0907 28.021 10.6709 28.021 10.1532V4.31982Z" fill="#194F94"/>
<path fill-rule="evenodd" clip-rule="evenodd" d="M28.021 33.4866C28.021 32.9688 28.4407 32.5491 28.9585 32.5491H30.8335C31.3513 32.5491 31.771 32.9688 31.771 33.4866V56.8199C31.771 57.3377 31.3513 57.7574 30.8335 57.7574H28.9585C28.4407 57.7574 28.021 57.3377 28.021 56.8199V33.4866Z" fill="#194F94"/>
<path fill-rule="evenodd" clip-rule="evenodd" d="M10.5627 10.6705C10.7333 10.3933 11.0356 10.2244 11.3611 10.2244H34.3056C34.8233 10.2244 35.2431 10.6441 35.2431 11.1619V14.042H33.3681V12.0994H11.885L6.72579 20.483L11.885 28.8667H25.4498V30.7417H11.3611C11.0356 30.7417 10.7333 30.5728 10.5627 30.2956L4.82657 20.9744C4.64114 20.6731 4.64114 20.293 4.82657 19.9917L10.5627 10.6705Z" fill="#194F94"/>
<path fill-rule="evenodd" clip-rule="evenodd" d="M49.2986 13.5507C49.128 13.2734 48.8258 13.1045 48.5002 13.1045H25.5558C25.038 13.1045 24.6183 13.5242 24.6183 14.042V32.6844C24.6183 33.2021 25.038 33.6219 25.5558 33.6219H48.5002C48.8258 33.6219 49.128 33.453 49.2986 33.1757L55.0348 23.8545C55.2202 23.5532 55.2202 23.1731 55.0348 22.8718L49.2986 13.5507ZM47.9763 14.9795L53.1355 23.3632L47.9763 31.7469H26.4933V14.9795H47.9763Z" fill="#194F94"/>
</svg>
