<svg width="60" height="61" viewBox="0 0 60 61" fill="none" xmlns="http://www.w3.org/2000/svg">
<path fill-rule="evenodd" clip-rule="evenodd" d="M40.2142 12.5096V15.839H52.5596C53.5381 15.839 54.4766 16.228 55.1686 16.9203C55.8605 17.6127 56.2492 18.5517 56.2492 19.5308V30.1717C56.2562 30.3534 56.2153 30.5337 56.1307 30.6946C56.046 30.8556 55.9206 30.9914 55.767 31.0885L54.3942 31.9281V48.3414C54.3879 49.3227 53.9937 50.2616 53.298 50.9533C52.6022 51.6449 51.6612 52.0331 50.6804 52.0331H9.32256C8.34596 52.0268 7.41114 51.6358 6.72056 50.9448C6.02998 50.2539 5.63923 49.3185 5.63291 48.3414V31.9304L4.25647 31.0885C4.10002 30.9926 3.97115 30.8576 3.88239 30.6969C3.79363 30.5362 3.74803 30.3553 3.75007 30.1717V19.5308C3.75639 18.5536 4.14714 17.6183 4.83772 16.9273C5.52829 16.2363 6.46311 15.8454 7.43972 15.839H19.5232V12.5096C19.5232 11.3321 19.9907 10.2028 20.8228 9.37023C21.655 8.53761 22.7836 8.06989 23.9605 8.06989H35.7528C36.3376 8.06671 36.9172 8.17919 37.4583 8.40088C37.9995 8.62258 38.4915 8.9491 38.9061 9.36168C39.3207 9.77427 39.6496 10.2648 39.8741 10.805C40.0986 11.3453 40.2142 11.9245 40.2142 12.5096ZM39.2978 17.9386C39.2209 17.9387 39.1448 17.9303 39.0707 17.9141H7.43972C7.01953 17.9203 6.6183 18.0901 6.32116 18.3874C6.02401 18.6848 5.85432 19.0862 5.84809 19.5066V29.5685L13.6615 34.3943H16.5079V32.6089C16.5079 32.3273 16.6197 32.0573 16.8187 31.8582C17.0177 31.6591 17.2876 31.5472 17.569 31.5472H21.8133C22.0947 31.5472 22.3646 31.6591 22.5636 31.8582C22.7626 32.0573 22.8744 32.3273 22.8744 32.6089V34.3702H37.2473V32.6089C37.2472 32.3315 37.3557 32.065 37.5495 31.8666C37.7433 31.6682 38.0071 31.5535 38.2843 31.5472H42.5527C42.8299 31.5535 43.0936 31.6682 43.2875 31.8666C43.4813 32.065 43.5897 32.3315 43.5896 32.6089V34.3943H46.4584L54.2477 29.5685V19.5066C54.2477 19.0843 54.08 18.6792 53.7815 18.3806C53.483 18.0819 53.0782 17.9141 52.6561 17.9141H39.4213C39.3808 17.9247 39.3396 17.9329 39.2978 17.9386ZM37.2473 36.4935H22.8744V38.2551C22.8744 38.5367 22.7626 38.8067 22.5636 39.0058C22.3646 39.2049 22.0947 39.3168 21.8133 39.3168H17.569C17.2876 39.3168 17.0177 39.2049 16.8187 39.0058C16.6197 38.8067 16.5079 38.5367 16.5079 38.2551V36.4935H13.3721C13.174 36.497 12.98 36.4379 12.8175 36.3246L7.73094 33.2136V48.3414C7.73716 48.7618 7.90685 49.1632 8.204 49.4605C8.50115 49.7579 8.90238 49.9276 9.32256 49.9339H50.6804C51.1048 49.9339 51.5122 49.7668 51.8145 49.4689C52.1169 49.1709 52.2899 48.7659 52.2962 48.3414V33.2113L47.206 36.3246C47.0435 36.4379 46.8494 36.497 46.6514 36.4935H43.5896V38.2551C43.5897 38.5325 43.4813 38.799 43.2875 38.9974C43.0936 39.1958 42.8299 39.3105 42.5527 39.3168H38.2843C38.0071 39.3105 37.7433 39.1958 37.5495 38.9974C37.3557 38.799 37.2472 38.5325 37.2473 38.2551V36.4935ZM20.7763 35.2048C20.7601 35.2788 20.7518 35.3549 20.7518 35.4319C20.7518 35.5088 20.7601 35.5849 20.7763 35.6589V37.2176H18.606V33.6465H20.7763V35.2048ZM38.2367 15.839H21.6213V12.5096C21.6213 11.8697 21.8753 11.2559 22.3275 10.8034C22.7798 10.3509 23.3932 10.0967 24.0328 10.0967H35.8252C36.4648 10.0967 37.0782 10.3509 37.5304 10.8034C37.9827 11.2559 38.2367 11.8697 38.2367 12.5096V15.839ZM41.4916 35.4045L41.4906 35.4318C41.4906 35.447 41.491 35.4621 41.4916 35.4772V37.2176H39.3454V33.6465H41.4916V35.4045Z" fill="#194F94"/>
</svg>
