<svg width="60" height="61" viewBox="0 0 60 61" fill="none" xmlns="http://www.w3.org/2000/svg">
<path d="M6.51575 25.995H6.32532C6.05408 25.9378 5.81659 25.7753 5.66489 25.5433C5.51319 25.3113 5.45966 25.0286 5.51603 24.7572C6.63703 19.3324 9.59171 14.4589 13.8833 10.9563C18.1748 7.45372 23.5415 5.53557 29.0809 5.52441C29.3587 5.52441 29.6251 5.63476 29.8215 5.83118C30.0179 6.02759 30.1283 6.29398 30.1283 6.57175C30.122 6.84537 30.009 7.1057 29.8132 7.297C29.6175 7.48829 29.3546 7.59537 29.0809 7.5953C24.0213 7.58813 19.113 9.32001 15.1782 12.5008C11.2434 15.6815 8.52127 20.1179 7.46787 25.0667C7.44118 25.3077 7.33168 25.532 7.15804 25.7013C6.9844 25.8706 6.75739 25.9744 6.51575 25.995V25.995Z" fill="#194F94"/>
<path d="M6.51575 25.995H6.32532C6.05408 25.9378 5.81659 25.7753 5.66489 25.5433C5.51319 25.3113 5.45966 25.0286 5.51603 24.7572C6.63703 19.3324 9.59171 14.4589 13.8833 10.9563C18.1748 7.45372 23.5415 5.53557 29.0809 5.52441C29.3587 5.52441 29.6251 5.63476 29.8215 5.83118C30.0179 6.02759 30.1283 6.29398 30.1283 6.57175C30.122 6.84537 30.009 7.1057 29.8132 7.297C29.6175 7.48829 29.3546 7.59537 29.0809 7.5953C24.0213 7.58813 19.113 9.32001 15.1782 12.5008C11.2434 15.6815 8.52127 20.1179 7.46787 25.0667C7.44118 25.3077 7.33168 25.532 7.15804 25.7013C6.9844 25.8706 6.75739 25.9744 6.51575 25.995V25.995Z" fill="#4435B2" fill-opacity="0.2"/>
<path d="M9.29942 25.0663L6.51448 28.8271C6.46835 28.9061 6.40233 28.9717 6.32298 29.0173C6.24363 29.0628 6.15372 29.0868 6.06222 29.0868C5.97072 29.0868 5.88082 29.0628 5.80147 29.0173C5.72212 28.9717 5.65609 28.9061 5.60996 28.8271L3.80094 24.5664C3.76082 24.4845 3.74389 24.3932 3.75196 24.3023C3.76004 24.2114 3.79283 24.1245 3.84677 24.051C3.90071 23.9774 3.97375 23.92 4.05798 23.885C4.14221 23.85 4.23442 23.8387 4.32461 23.8523L8.91857 24.3998C8.98874 24.4161 9.05478 24.4468 9.11256 24.4899C9.17033 24.5329 9.21861 24.5874 9.25435 24.65C9.2901 24.7125 9.31256 24.7818 9.32031 24.8534C9.32807 24.9251 9.32095 24.9975 9.29942 25.0663Z" fill="#194F94"/>
<path d="M9.29942 25.0663L6.51448 28.8271C6.46835 28.9061 6.40233 28.9717 6.32298 29.0173C6.24363 29.0628 6.15372 29.0868 6.06222 29.0868C5.97072 29.0868 5.88082 29.0628 5.80147 29.0173C5.72212 28.9717 5.65609 28.9061 5.60996 28.8271L3.80094 24.5664C3.76082 24.4845 3.74389 24.3932 3.75196 24.3023C3.76004 24.2114 3.79283 24.1245 3.84677 24.051C3.90071 23.9774 3.97375 23.92 4.05798 23.885C4.14221 23.85 4.23442 23.8387 4.32461 23.8523L8.91857 24.3998C8.98874 24.4161 9.05478 24.4468 9.11256 24.4899C9.17033 24.5329 9.21861 24.5874 9.25435 24.65C9.2901 24.7125 9.31256 24.7818 9.32031 24.8534C9.32807 24.9251 9.32095 24.9975 9.29942 25.0663Z" fill="#4435B2" fill-opacity="0.2"/>
<path d="M24.4172 54.9867H24.203C18.7782 53.8657 13.9047 50.911 10.4021 46.6195C6.89952 42.3279 4.98137 36.9613 4.97021 31.4218C4.97014 31.1482 5.07722 30.8853 5.26851 30.6896C5.45981 30.4938 5.72012 30.3807 5.99374 30.3745C6.27151 30.3745 6.5379 30.4849 6.73432 30.6813C6.93073 30.8777 7.04108 31.1441 7.04108 31.4218C7.07766 36.4632 8.84134 41.3395 12.038 45.2379C15.2347 49.1363 19.6712 51.8211 24.6076 52.8445C24.8791 52.8697 25.1294 53.0017 25.3035 53.2116C25.4776 53.4214 25.5612 53.6918 25.536 53.9632C25.5107 54.2347 25.3787 54.485 25.1689 54.6591C24.9591 54.8332 24.6887 54.9168 24.4172 54.8915V54.9867Z" fill="#194F94"/>
<path d="M24.4172 54.9867H24.203C18.7782 53.8657 13.9047 50.911 10.4021 46.6195C6.89952 42.3279 4.98137 36.9613 4.97021 31.4218C4.97014 31.1482 5.07722 30.8853 5.26851 30.6896C5.45981 30.4938 5.72012 30.3807 5.99374 30.3745C6.27151 30.3745 6.5379 30.4849 6.73432 30.6813C6.93073 30.8777 7.04108 31.1441 7.04108 31.4218C7.07766 36.4632 8.84134 41.3395 12.038 45.2379C15.2347 49.1363 19.6712 51.8211 24.6076 52.8445C24.8791 52.8697 25.1294 53.0017 25.3035 53.2116C25.4776 53.4214 25.5612 53.6918 25.536 53.9632C25.5107 54.2347 25.3787 54.485 25.1689 54.6591C24.9591 54.8332 24.6887 54.9168 24.4172 54.8915V54.9867Z" fill="#4435B2" fill-opacity="0.2"/>
<path d="M24.5817 51.1057L28.2949 53.8669C28.374 53.913 28.4395 53.979 28.4851 54.0583C28.5306 54.1377 28.5546 54.2276 28.5546 54.3191C28.5546 54.4106 28.5306 54.5005 28.4851 54.5798C28.4395 54.6592 28.374 54.7253 28.2949 54.7714L24.058 56.5804C23.9823 56.6971 23.8632 56.7791 23.7271 56.8081C23.5909 56.8371 23.4488 56.8108 23.332 56.7351C23.2152 56.6593 23.1333 56.5403 23.1043 56.4041C23.0753 56.268 23.1015 56.1259 23.1773 56.0091L23.7248 51.3913C23.7437 51.302 23.7857 51.2193 23.8465 51.1512C23.9073 51.0831 23.9848 51.0321 24.0714 51.0032C24.158 50.9743 24.2507 50.9686 24.3402 50.9866C24.4297 51.0046 24.5129 51.0456 24.5817 51.1057V51.1057Z" fill="#194F94"/>
<path d="M24.5817 51.1057L28.2949 53.8669C28.374 53.913 28.4395 53.979 28.4851 54.0583C28.5306 54.1377 28.5546 54.2276 28.5546 54.3191C28.5546 54.4106 28.5306 54.5005 28.4851 54.5798C28.4395 54.6592 28.374 54.7253 28.2949 54.7714L24.058 56.5804C23.9823 56.6971 23.8632 56.7791 23.7271 56.8081C23.5909 56.8371 23.4488 56.8108 23.332 56.7351C23.2152 56.6593 23.1333 56.5403 23.1043 56.4041C23.0753 56.268 23.1015 56.1259 23.1773 56.0091L23.7248 51.3913C23.7437 51.302 23.7857 51.2193 23.8465 51.1512C23.9073 51.0831 23.9848 51.0321 24.0714 51.0032C24.158 50.9743 24.2507 50.9686 24.3402 50.9866C24.4297 51.0046 24.5129 51.0456 24.5817 51.1057V51.1057Z" fill="#4435B2" fill-opacity="0.2"/>
<path d="M30.8429 55.4392C30.5714 55.4392 30.3111 55.3313 30.1191 55.1394C29.9272 54.9474 29.8193 54.6871 29.8193 54.4156C29.8193 54.1419 29.9263 53.8791 30.1176 53.6834C30.3089 53.4876 30.5692 53.3746 30.8429 53.3683C35.9058 53.3634 40.8124 51.6137 44.7361 48.414C48.6599 45.2143 51.361 40.7602 52.3845 35.8018C52.4576 35.5502 52.6222 35.3351 52.846 35.199C53.0698 35.0628 53.3365 35.0155 53.5934 35.0663C53.8504 35.1171 54.079 35.2623 54.2342 35.4733C54.3893 35.6844 54.4598 35.9459 54.4316 36.2064C53.3056 41.6332 50.3463 46.5071 46.0508 50.0094C41.7552 53.5117 36.3852 55.429 30.8429 55.4392Z" fill="#194F94"/>
<path d="M30.8429 55.4392C30.5714 55.4392 30.3111 55.3313 30.1191 55.1394C29.9272 54.9474 29.8193 54.6871 29.8193 54.4156C29.8193 54.1419 29.9263 53.8791 30.1176 53.6834C30.3089 53.4876 30.5692 53.3746 30.8429 53.3683C35.9058 53.3634 40.8124 51.6137 44.7361 48.414C48.6599 45.2143 51.361 40.7602 52.3845 35.8018C52.4576 35.5502 52.6222 35.3351 52.846 35.199C53.0698 35.0628 53.3365 35.0155 53.5934 35.0663C53.8504 35.1171 54.079 35.2623 54.2342 35.4733C54.3893 35.6844 54.4598 35.9459 54.4316 36.2064C53.3056 41.6332 50.3463 46.5071 46.0508 50.0094C41.7552 53.5117 36.3852 55.429 30.8429 55.4392Z" fill="#4435B2" fill-opacity="0.2"/>
<path d="M50.5505 35.8253L53.3354 32.2073C53.3822 32.1479 53.4418 32.0998 53.5099 32.0668C53.5779 32.0338 53.6525 32.0166 53.7282 32.0166C53.8038 32.0166 53.8784 32.0338 53.9464 32.0668C54.0145 32.0998 54.0741 32.1479 54.1209 32.2073L55.9537 36.4442C55.9931 36.5295 56.0087 36.6239 55.999 36.7173C55.9893 36.8108 55.9547 36.9 55.8987 36.9754C55.8427 37.0509 55.7674 37.1099 55.6808 37.1463C55.5942 37.1826 55.4993 37.195 55.4063 37.1821L50.8123 36.6108C50.7336 36.5888 50.6615 36.5478 50.6024 36.4914C50.5432 36.4351 50.4988 36.3651 50.4729 36.2876C50.4471 36.2101 50.4406 36.1274 50.4542 36.0468C50.4677 35.9662 50.5007 35.8901 50.5505 35.8253V35.8253Z" fill="#194F94"/>
<path d="M50.5505 35.8253L53.3354 32.2073C53.3822 32.1479 53.4418 32.0998 53.5099 32.0668C53.5779 32.0338 53.6525 32.0166 53.7282 32.0166C53.8038 32.0166 53.8784 32.0338 53.9464 32.0668C54.0145 32.0998 54.0741 32.1479 54.1209 32.2073L55.9537 36.4442C55.9931 36.5295 56.0087 36.6239 55.999 36.7173C55.9893 36.8108 55.9547 36.9 55.8987 36.9754C55.8427 37.0509 55.7674 37.1099 55.6808 37.1463C55.5942 37.1826 55.4993 37.195 55.4063 37.1821L50.8123 36.6108C50.7336 36.5888 50.6615 36.5478 50.6024 36.4914C50.5432 36.4351 50.4988 36.3651 50.4729 36.2876C50.4471 36.2101 50.4406 36.1274 50.4542 36.0468C50.4677 35.9662 50.5007 35.8901 50.5505 35.8253V35.8253Z" fill="#4435B2" fill-opacity="0.2"/>
<path d="M53.8611 30.5886C53.5897 30.5886 53.3293 30.4808 53.1374 30.2888C52.9454 30.0969 52.8376 29.8366 52.8376 29.5651C52.7999 24.5205 51.0328 19.6414 47.8314 15.7426C44.63 11.8437 40.1881 9.16104 35.2472 8.14241C34.9887 8.07308 34.7665 7.90739 34.6263 7.67937C34.4861 7.45134 34.4386 7.17827 34.4934 6.91627C34.5482 6.65428 34.7013 6.4232 34.9212 6.27053C35.1411 6.11787 35.411 6.05519 35.6757 6.09536C41.1025 7.22131 45.9764 10.1807 49.4787 14.4762C52.9811 18.7717 54.8983 24.1417 54.9085 29.6841C54.8737 29.9364 54.7482 30.1674 54.5555 30.3339C54.3627 30.5004 54.1158 30.591 53.8611 30.5886Z" fill="#194F94"/>
<path d="M53.8611 30.5886C53.5897 30.5886 53.3293 30.4808 53.1374 30.2888C52.9454 30.0969 52.8376 29.8366 52.8376 29.5651C52.7999 24.5205 51.0328 19.6414 47.8314 15.7426C44.63 11.8437 40.1881 9.16104 35.2472 8.14241C34.9887 8.07308 34.7665 7.90739 34.6263 7.67937C34.4861 7.45134 34.4386 7.17827 34.4934 6.91627C34.5482 6.65428 34.7013 6.4232 34.9212 6.27053C35.1411 6.11787 35.411 6.05519 35.6757 6.09536C41.1025 7.22131 45.9764 10.1807 49.4787 14.4762C52.9811 18.7717 54.8983 24.1417 54.9085 29.6841C54.8737 29.9364 54.7482 30.1674 54.5555 30.3339C54.3627 30.5004 54.1158 30.591 53.8611 30.5886Z" fill="#4435B2" fill-opacity="0.2"/>
<path d="M35.2692 9.85555L31.5797 7.07061C31.5001 7.02786 31.4336 6.96433 31.3873 6.8868C31.3409 6.80926 31.3164 6.72061 31.3164 6.63026C31.3164 6.53992 31.3409 6.45124 31.3873 6.3737C31.4336 6.29616 31.5001 6.23267 31.5797 6.18992L35.8405 4.35708C35.9247 4.32347 36.0163 4.31234 36.1061 4.32475C36.196 4.33717 36.2811 4.37271 36.3531 4.4279C36.4251 4.4831 36.4815 4.55602 36.5168 4.63958C36.5521 4.72313 36.5651 4.81444 36.5545 4.90454L36.0071 9.49852C35.9898 9.5754 35.9554 9.64735 35.9064 9.70907C35.8574 9.7708 35.7952 9.82069 35.7243 9.85501C35.6533 9.88933 35.5756 9.90722 35.4968 9.90731C35.418 9.9074 35.3402 9.88971 35.2692 9.85555V9.85555Z" fill="#194F94"/>
<path d="M35.2692 9.85555L31.5797 7.07061C31.5001 7.02786 31.4336 6.96433 31.3873 6.8868C31.3409 6.80926 31.3164 6.72061 31.3164 6.63026C31.3164 6.53992 31.3409 6.45124 31.3873 6.3737C31.4336 6.29616 31.5001 6.23267 31.5797 6.18992L35.8405 4.35708C35.9247 4.32347 36.0163 4.31234 36.1061 4.32475C36.196 4.33717 36.2811 4.37271 36.3531 4.4279C36.4251 4.4831 36.4815 4.55602 36.5168 4.63958C36.5521 4.72313 36.5651 4.81444 36.5545 4.90454L36.0071 9.49852C35.9898 9.5754 35.9554 9.64735 35.9064 9.70907C35.8574 9.7708 35.7952 9.82069 35.7243 9.85501C35.6533 9.88933 35.5756 9.90722 35.4968 9.90731C35.418 9.9074 35.3402 9.88971 35.2692 9.85555V9.85555Z" fill="#4435B2" fill-opacity="0.2"/>
<path d="M29.9368 49.0593C26.26 49.0593 22.6658 47.9691 19.6087 45.9263C16.5516 43.8836 14.1688 40.9803 12.7618 37.5834C11.3547 34.1865 10.9866 30.4486 11.7039 26.8425C12.4212 23.2364 14.1917 19.924 16.7916 17.3241C19.3915 14.7242 22.7039 12.9537 26.31 12.2364C29.9162 11.5191 33.654 11.8872 37.0509 13.2943C40.4478 14.7013 43.3512 17.084 45.3939 20.1412C47.4366 23.1983 48.5269 26.7925 48.5269 30.4692C48.5206 35.3977 46.56 40.1225 43.075 43.6075C39.5901 47.0925 34.8653 49.053 29.9368 49.0593V49.0593ZM29.9368 13.95C26.6696 13.95 23.4758 14.9189 20.7592 16.734C18.0426 18.5492 15.9253 21.1291 14.675 24.1476C13.4247 27.1661 13.0976 30.4876 13.735 33.692C14.3724 36.8964 15.9457 39.8399 18.2559 42.1501C20.5662 44.4604 23.5096 46.0337 26.714 46.6711C29.9185 47.3085 33.2399 46.9814 36.2584 45.7311C39.2769 44.4808 41.8569 42.3635 43.672 39.6469C45.4872 36.9303 46.456 33.7364 46.456 30.4692C46.456 26.0881 44.7156 21.8863 41.6177 18.7884C38.5197 15.6904 34.318 13.95 29.9368 13.95Z" fill="#194F94"/>
<path d="M29.9368 49.0593C26.26 49.0593 22.6658 47.9691 19.6087 45.9263C16.5516 43.8836 14.1688 40.9803 12.7618 37.5834C11.3547 34.1865 10.9866 30.4486 11.7039 26.8425C12.4212 23.2364 14.1917 19.924 16.7916 17.3241C19.3915 14.7242 22.7039 12.9537 26.31 12.2364C29.9162 11.5191 33.654 11.8872 37.0509 13.2943C40.4478 14.7013 43.3512 17.084 45.3939 20.1412C47.4366 23.1983 48.5269 26.7925 48.5269 30.4692C48.5206 35.3977 46.56 40.1225 43.075 43.6075C39.5901 47.0925 34.8653 49.053 29.9368 49.0593V49.0593ZM29.9368 13.95C26.6696 13.95 23.4758 14.9189 20.7592 16.734C18.0426 18.5492 15.9253 21.1291 14.675 24.1476C13.4247 27.1661 13.0976 30.4876 13.735 33.692C14.3724 36.8964 15.9457 39.8399 18.2559 42.1501C20.5662 44.4604 23.5096 46.0337 26.714 46.6711C29.9185 47.3085 33.2399 46.9814 36.2584 45.7311C39.2769 44.4808 41.8569 42.3635 43.672 39.6469C45.4872 36.9303 46.456 33.7364 46.456 30.4692C46.456 26.0881 44.7156 21.8863 41.6177 18.7884C38.5197 15.6904 34.318 13.95 29.9368 13.95Z" fill="#4435B2" fill-opacity="0.2"/>
<path d="M29.9373 49.0593C24.3436 49.0593 19.9639 40.8949 19.9639 30.4692C19.9639 20.0435 24.3436 11.8792 29.9373 11.8792C35.531 11.8792 39.8393 20.0435 39.8393 30.4692C39.8393 40.8949 35.531 49.0593 29.9373 49.0593ZM29.9373 13.95C25.6528 13.95 22.0347 21.5193 22.0347 30.4692C22.0347 39.4191 25.6528 46.9885 29.9373 46.9885C34.2218 46.9885 37.8161 39.4429 37.8161 30.4692C37.8161 21.4955 34.2218 13.95 29.9373 13.95V13.95Z" fill="#194F94"/>
<path d="M29.9373 49.0593C24.3436 49.0593 19.9639 40.8949 19.9639 30.4692C19.9639 20.0435 24.3436 11.8792 29.9373 11.8792C35.531 11.8792 39.8393 20.0435 39.8393 30.4692C39.8393 40.8949 35.531 49.0593 29.9373 49.0593ZM29.9373 13.95C25.6528 13.95 22.0347 21.5193 22.0347 30.4692C22.0347 39.4191 25.6528 46.9885 29.9373 46.9885C34.2218 46.9885 37.8161 39.4429 37.8161 30.4692C37.8161 21.4955 34.2218 13.95 29.9373 13.95V13.95Z" fill="#4435B2" fill-opacity="0.2"/>
<path d="M47.4814 31.5167H12.372C12.0943 31.5167 11.8279 31.4063 11.6315 31.2099C11.435 31.0135 11.3247 30.7471 11.3247 30.4693C11.3309 30.1957 11.444 29.9355 11.6398 29.7442C11.8355 29.5529 12.0983 29.4458 12.372 29.4458H47.4814C47.6178 29.4427 47.7534 29.4668 47.8804 29.5168C48.0073 29.5668 48.123 29.6417 48.2206 29.7371C48.3181 29.8324 48.3957 29.9463 48.4486 30.0721C48.5015 30.1978 48.5288 30.3329 48.5287 30.4693C48.5287 30.7471 48.4184 31.0135 48.222 31.2099C48.0255 31.4063 47.7591 31.5167 47.4814 31.5167V31.5167Z" fill="#194F94"/>
<path d="M47.4814 31.5167H12.372C12.0943 31.5167 11.8279 31.4063 11.6315 31.2099C11.435 31.0135 11.3247 30.7471 11.3247 30.4693C11.3309 30.1957 11.444 29.9355 11.6398 29.7442C11.8355 29.5529 12.0983 29.4458 12.372 29.4458H47.4814C47.6178 29.4427 47.7534 29.4668 47.8804 29.5168C48.0073 29.5668 48.123 29.6417 48.2206 29.7371C48.3181 29.8324 48.3957 29.9463 48.4486 30.0721C48.5015 30.1978 48.5288 30.3329 48.5287 30.4693C48.5287 30.7471 48.4184 31.0135 48.222 31.2099C48.0255 31.4063 47.7591 31.5167 47.4814 31.5167V31.5167Z" fill="#4435B2" fill-opacity="0.2"/>
<path d="M29.938 49.0593C29.6643 49.0594 29.4014 48.9523 29.2057 48.761C29.0099 48.5698 28.8968 48.3094 28.8906 48.0358V12.9264C28.8906 12.6487 29.001 12.3823 29.1974 12.1859C29.3938 11.9895 29.6602 11.8792 29.938 11.8792C30.0744 11.8791 30.2095 11.9064 30.3352 11.9593C30.461 12.0122 30.5749 12.0897 30.6702 12.1873C30.7656 12.2849 30.8405 12.4005 30.8905 12.5275C30.9405 12.6544 30.9647 12.79 30.9615 12.9264V48.0358C30.9615 48.3073 30.8536 48.5676 30.6617 48.7596C30.4697 48.9515 30.2094 49.0593 29.938 49.0593Z" fill="#194F94"/>
<path d="M29.938 49.0593C29.6643 49.0594 29.4014 48.9523 29.2057 48.761C29.0099 48.5698 28.8968 48.3094 28.8906 48.0358V12.9264C28.8906 12.6487 29.001 12.3823 29.1974 12.1859C29.3938 11.9895 29.6602 11.8792 29.938 11.8792C30.0744 11.8791 30.2095 11.9064 30.3352 11.9593C30.461 12.0122 30.5749 12.0897 30.6702 12.1873C30.7656 12.2849 30.8405 12.4005 30.8905 12.5275C30.9405 12.6544 30.9647 12.79 30.9615 12.9264V48.0358C30.9615 48.3073 30.8536 48.5676 30.6617 48.7596C30.4697 48.9515 30.2094 49.0593 29.938 49.0593Z" fill="#4435B2" fill-opacity="0.2"/>
</svg>
