<svg width="60" height="61" viewBox="0 0 60 61" fill="none" xmlns="http://www.w3.org/2000/svg">
<path fill-rule="evenodd" clip-rule="evenodd" d="M20.4078 37.4043L29.931 44.3902L25.5695 53.0246L13.4816 44.1574L20.4078 37.4043ZM20.5795 39.8556L16.3753 43.9547L24.8938 50.2036L27.5413 44.9625L20.5795 39.8556Z" fill="#194F94"/>
<path fill-rule="evenodd" clip-rule="evenodd" d="M50.9398 3.38584C51.3672 3.36293 51.9115 3.44828 52.3279 3.75376C52.6018 3.95468 53.0608 4.39832 53.0789 5.10006C53.6376 9.09178 53.7845 12.4128 53.6319 15.3751L53.6311 15.3906C53.4296 18.346 52.8766 20.8997 52.0346 23.2498C51.2623 25.5109 50.1595 27.5097 48.8634 29.4741C47.6422 31.4253 46.1355 33.3017 44.5635 35.2595L44.4033 35.459L44.3793 35.4889L43.9555 35.9363L42.4192 37.4373L42.4168 37.4397L31.605 47.9284L16.5049 36.8515L23.3062 23.4154L24.5328 21.0382L24.5558 21.0022C25.9805 18.7677 27.3953 16.7396 28.8829 14.9087C30.3825 13.0632 32.0021 11.4527 33.863 10.0151C35.8925 8.45128 38.167 7.15388 40.929 6.07289C43.6848 4.99435 46.9178 4.13405 50.8166 3.40065L50.8777 3.38916L50.9398 3.38584ZM43.0808 34.1113C44.6784 32.1217 46.1216 30.3225 47.2798 28.4702L47.2921 28.4506C48.5396 26.5607 49.5574 24.7037 50.2624 22.6374L50.2671 22.6236C51.0493 20.4423 51.569 18.0596 51.7598 15.2707C51.9054 12.4327 51.7649 9.21567 51.2133 5.29755L51.2097 5.27209C51.1759 5.26413 51.1329 5.2584 51.0886 5.25741C47.2947 5.97428 44.207 6.80346 41.6124 7.81893C39.0071 8.83858 36.8903 10.0495 35.0084 11.4995M43.0808 34.1113L42.9653 34.2552L42.6192 34.6205L41.1113 36.0939L41.1089 36.0962L31.4365 45.4795L18.8957 36.2799L24.9725 24.2752L24.9758 24.2687L26.1597 21.9742C27.5518 19.7929 28.9173 17.8397 30.3381 16.0911C31.7545 14.3479 33.2719 12.8412 35.0084 11.4995" fill="#194F94"/>
<path fill-rule="evenodd" clip-rule="evenodd" d="M46.5059 44.1251L43.5576 34.2217L45.3546 33.6867L48.6093 44.6194L37.3002 56.7372L36.7954 55.2556C36.3736 54.0179 35.9017 52.5975 35.4151 51.1327C34.6245 48.7529 33.7951 46.2562 33.0789 44.237L34.846 43.6102C35.5665 45.6413 36.4102 48.1807 37.2067 50.5782C37.5035 51.4716 37.7938 52.3453 38.0687 53.1656L46.5059 44.1251Z" fill="#194F94"/>
<path fill-rule="evenodd" clip-rule="evenodd" d="M14.6728 22.4766L25.1772 22.4749L25.1769 20.5999L13.5793 20.6018L5.41198 35.0362L6.97675 35.0729C8.56387 35.1101 10.3541 35.0863 12.1442 35.0624C12.296 35.0604 12.4477 35.0584 12.5994 35.0564C14.5502 35.0308 16.4832 35.0114 18.1875 35.0726L18.2548 33.1988C16.4975 33.1357 14.5196 33.1561 12.5749 33.1815C12.4254 33.1835 12.2761 33.1855 12.1272 33.1875C10.9136 33.2036 9.71997 33.2195 8.59569 33.217L14.6728 22.4766Z" fill="#194F94"/>
<path fill-rule="evenodd" clip-rule="evenodd" d="M14.5336 48.1838C14.9511 48.49 15.0413 49.0767 14.735 49.4942L9.79764 56.2249C9.49138 56.6424 8.90468 56.7325 8.4872 56.4263C8.06971 56.12 7.97954 55.5333 8.28579 55.1158L13.2232 48.3852C13.5294 47.9677 14.1161 47.8775 14.5336 48.1838Z" fill="#194F94"/>
<path fill-rule="evenodd" clip-rule="evenodd" d="M18.6494 51.1923C19.0668 51.4986 19.157 52.0853 18.8508 52.5027L15.425 57.1728C15.1187 57.5903 14.532 57.6804 14.1145 57.3742C13.697 57.0679 13.6069 56.4812 13.9131 56.0638L17.3389 51.3937C17.6452 50.9762 18.2319 50.8861 18.6494 51.1923Z" fill="#194F94"/>
<path fill-rule="evenodd" clip-rule="evenodd" d="M40.0478 24.307C41.9101 24.307 43.4198 22.7973 43.4198 20.935C43.4198 19.0727 41.9101 17.563 40.0478 17.563C38.1855 17.563 36.6758 19.0727 36.6758 20.935C36.6758 22.7973 38.1855 24.307 40.0478 24.307ZM40.0478 26.182C42.9457 26.182 45.2948 23.8329 45.2948 20.935C45.2948 18.0372 42.9457 15.688 40.0478 15.688C37.15 15.688 34.8008 18.0372 34.8008 20.935C34.8008 23.8329 37.15 26.182 40.0478 26.182Z" fill="#194F94"/>
</svg>
